<svg xmlns="http://www.w3.org/2000/svg" width="1024" height="1024" viewBox="0 0 1024 1024" version="1.1">
	<path d="M 427.500 106.594 C 392.644 108.330, 363.941 113.862, 331.316 125.130 C 295.957 137.343, 265.516 153.295, 239.012 173.500 C 180.193 218.340, 150.601 250.775, 119.040 305.002 C 87.573 359.066, 70.470 414.549, 62.933 487.019 C 61.406 501.709, 62.100 505.029, 70.509 523.246 C 76.829 536.938, 77 537.523, 77 545.524 C 77 550.044, 77.695 560.437, 78.544 568.621 C 83.455 615.931, 99.425 663.766, 124.631 706.664 C 131.908 719.049, 132.246 721.118, 127.756 725.816 C 123.046 730.746, 122 733.030, 122 738.385 C 122 752.620, 128.320 765.278, 151.867 798.204 C 170.720 824.566, 171.738 825.220, 194.862 825.820 C 211.981 826.264, 224.819 824.987, 238.165 821.510 L 247.019 819.203 252.260 822.022 C 255.142 823.573, 261.233 826.042, 265.796 827.511 C 272.014 829.511, 277.150 832.247, 286.296 838.431 C 307.390 852.692, 331.669 866.208, 353 875.563 C 357.638 877.597, 362.028 880.775, 368.323 886.654 C 383.099 900.454, 389.568 902.230, 409.826 898.049 C 421.504 895.640, 425.229 895.235, 447.500 893.960 C 472.004 892.556, 506.247 889.251, 518.883 887.069 L 529.301 885.270 543.901 890.187 C 573.061 900.006, 591.525 903.662, 636 908.424 C 675.281 912.630, 688.388 913.304, 719 912.692 C 748.888 912.095, 773.408 910.380, 803.500 906.780 C 821.975 904.570, 824.669 904.462, 833.808 905.562 C 841.774 906.521, 845.489 905.454, 849.796 900.972 C 852.274 898.394, 855.569 896.352, 859.360 895.048 C 866.157 892.710, 876.839 885.828, 884.405 878.913 C 892.848 871.197, 895.708 861.154, 891.199 855.055 L 888.975 852.047 897.116 838.428 C 909.636 817.482, 923.302 785.453, 928.461 764.969 C 929.357 761.411, 931.235 755.581, 932.635 752.013 C 934.596 747.017, 935.269 743.226, 935.564 735.513 C 935.775 730.006, 936.666 718.075, 937.543 709 C 939.706 686.630, 940.588 644.107, 939.143 631.853 C 937.779 620.282, 932.918 600.528, 929.904 594.301 C 927.514 589.364, 923.184 586.768, 917.584 586.916 C 915.888 586.961, 905.275 587.401, 894 587.895 C 875.414 588.708, 872.193 589.126, 859.500 592.375 C 838.321 597.796, 820.737 601.192, 820.002 600.004 C 819.657 599.445, 817.465 590.103, 815.131 579.244 C 802.244 519.288, 794.006 482.644, 790.526 469.802 C 788.757 463.277, 788.460 460.865, 789.334 460.143 C 789.975 459.614, 796.821 456.718, 804.546 453.708 C 820.351 447.550, 834.820 440.593, 841.807 435.793 C 848.326 431.314, 854.885 425.123, 856.577 421.852 C 859.927 415.373, 856.990 404.978, 850.631 400.810 C 847.780 398.941, 847.044 397.567, 845.438 391.120 C 843.989 385.300, 842.343 381.905, 838.133 376.054 C 832.626 368.400, 822.474 352.388, 813.451 337.126 C 810.728 332.520, 807.037 327.169, 805.250 325.236 C 802.118 321.848, 801.809 321.743, 796.750 322.355 C 793.862 322.705, 790.305 323.262, 788.845 323.594 C 786.709 324.079, 785.635 323.572, 783.345 320.997 C 779.760 316.966, 773.592 313.349, 768.815 312.475 C 764.317 311.653, 763.680 310.930, 756.964 299 C 754.023 293.775, 747.610 283.244, 742.714 275.599 C 702.731 213.159, 657.252 170.629, 599.500 141.670 C 561.388 122.560, 528.618 112.928, 486.843 108.559 C 472.209 107.028, 440.115 105.965, 427.500 106.594 M 477.500 116.383 C 505.278 121.928, 518.194 125.711, 541.375 135.089 C 597.259 157.697, 659.950 211.551, 697.496 269.204 L 702.492 276.875 709.746 277.438 C 729.928 279.002, 732.512 279.069, 730.755 277.984 C 729.796 277.391, 725.113 271.415, 720.350 264.703 C 703.018 240.281, 690.947 226.109, 669.836 205.396 C 638.308 174.462, 607.649 155.072, 562.500 137.510 C 529.136 124.532, 493.148 115.442, 467.500 113.515 C 462.220 113.118, 464.677 113.823, 477.500 116.383 M 397.500 115.138 C 393.100 115.617, 385.900 116.597, 381.500 117.314 C 373.780 118.574, 374.164 118.605, 392.500 118.212 C 421.260 117.596, 440.610 120.972, 466.998 131.210 C 491.295 140.636, 514.297 153.420, 536.500 169.837 C 565.931 191.599, 601.702 231.028, 634.258 277.593 C 637.370 282.044, 640.606 286.258, 641.450 286.958 C 642.709 288.003, 646.602 287.506, 663.242 284.175 C 674.384 281.944, 686.757 279.602, 690.738 278.971 C 699.340 277.607, 699.704 279.239, 686.768 261.203 C 660.281 224.274, 625.996 190.329, 591.444 166.827 C 568.207 151.021, 536.330 135.625, 511.500 128.217 C 491.624 122.287, 464.783 116.768, 447.576 115.075 C 434.977 113.835, 409.157 113.867, 397.500 115.138 M 529.500 122.479 C 531.700 123.205, 539.283 125.677, 546.352 127.973 C 562.512 133.220, 586.928 143.357, 602.366 151.228 C 616.997 158.687, 640.182 174.068, 653.500 185.151 C 679.098 206.453, 709.366 240.485, 728.964 270 C 733.630 277.027, 737.876 282, 739.210 282 C 740.120 282, 739.942 281.689, 731.512 268.588 C 708.282 232.488, 675.073 197.411, 640.986 172.970 C 610.074 150.805, 569.041 131.230, 536.333 123.044 C 527.235 120.767, 523.339 120.444, 529.500 122.479 M 379.500 122.975 C 350.513 125.658, 326.566 131.679, 302.500 142.336 C 294.934 145.686, 281.222 153.024, 285.500 151.433 C 298.983 146.418, 307.588 143.745, 317.109 141.612 C 339.043 136.698, 349.052 135.613, 373 135.555 C 395.142 135.501, 395.703 135.551, 408.233 138.727 C 435.761 145.704, 470.445 161.054, 492.192 175.885 C 495.873 178.395, 498.750 180.584, 498.585 180.749 C 498.420 180.913, 494.058 178.392, 488.893 175.145 C 467.574 161.747, 441.211 149.646, 418.898 143.018 C 413.311 141.358, 407.111 140.018, 405.120 140.040 C 402.342 140.071, 404.523 141.087, 414.500 144.412 C 430.531 149.753, 437.056 152.472, 453 160.451 C 475.648 171.786, 497.100 185.566, 497.806 189.232 C 498.238 191.477, 490.990 193.397, 485.010 192.621 C 482.016 192.233, 470.751 187.165, 451.500 177.547 C 435.550 169.578, 417.325 161.066, 411 158.631 C 395.015 152.477, 381.329 148, 378.502 148 C 375.280 148, 374.651 146.626, 376.930 144.564 C 378.201 143.413, 381.313 142.671, 386.510 142.278 C 392.722 141.808, 393.850 141.484, 392.354 140.598 C 389.964 139.183, 360.043 139.400, 346.500 140.931 C 291.950 147.097, 237.494 175.643, 187.170 224.453 C 138.186 271.964, 98.707 341.717, 81.092 411.878 C 73.910 440.484, 66.405 492.434, 68.125 501.640 C 69.519 509.101, 84.687 540.805, 90.674 548.769 C 95.360 555.004, 120.624 573.322, 136.834 582.239 C 143.832 586.088, 146.066 588.267, 144.560 589.774 C 144.181 590.152, 140.022 588.490, 135.317 586.081 C 120.058 578.268, 97.497 562.577, 87.250 552.653 C 84.362 549.856, 82 548.177, 82 548.921 C 82 549.665, 82.928 558.200, 84.063 567.887 C 89.039 610.372, 100.710 649.149, 119.613 686 C 128.738 703.790, 141.096 717.968, 161.285 733.811 C 169.479 740.240, 180.686 748.303, 186.190 751.729 C 191.695 755.155, 199.191 760.167, 202.849 762.867 C 206.507 765.567, 215.195 770.653, 222.156 774.170 L 234.813 780.563 237.050 775.032 C 242.215 762.263, 250.407 752, 255.434 752 C 257.796 752, 261.317 754.147, 274.500 763.631 C 278.350 766.400, 286.225 771.980, 292 776.031 C 306.459 786.173, 307.999 787.937, 308.004 794.356 L 308.009 799.500 320.254 805.703 C 339.165 815.282, 353.787 825.538, 375.789 844.655 C 388.601 855.787, 393.931 859, 399.589 859 C 404.360 859, 445.385 851.420, 447.778 850.096 C 448.595 849.644, 446.290 847.806, 441.390 845.003 C 427.512 837.062, 424.242 831.850, 425.457 819.609 C 426.530 808.803, 426.454 807.991, 423.704 800.903 C 419.183 789.251, 417.787 780.037, 417.657 761 C 417.552 745.485, 417.777 742.865, 419.639 737.906 C 422.592 730.039, 427.515 722.748, 435.974 713.715 C 439.983 709.433, 443.091 705.773, 442.882 705.582 C 440.898 703.774, 365.060 676.192, 342.171 668.953 C 334.840 666.635, 327.640 663.774, 326.171 662.595 C 319.931 657.590, 320.071 657.511, 322.642 664.595 C 323.970 668.253, 325.331 673.872, 325.666 677.081 C 326.553 685.563, 323.174 692.027, 312.087 703.063 C 302.906 712.201, 295.638 716.540, 287.684 717.630 C 278.700 718.861, 267.031 711.147, 245.969 690.053 C 233.531 677.596, 220.514 661.875, 223.664 663.113 C 224.204 663.326, 228.431 667.550, 233.056 672.500 C 251.923 692.692, 269.963 707.620, 280.101 711.429 C 283.950 712.876, 285.399 712.970, 288.980 712.005 L 293.259 710.853 285.066 705.980 C 263.212 692.982, 234.070 669.027, 228.522 659.500 C 223.221 650.399, 224.865 642.678, 233.099 638 C 237.184 635.679, 238.397 635.508, 250 635.612 C 262.557 635.724, 277.111 637.828, 294.862 642.098 C 299.461 643.204, 303.379 643.955, 303.567 643.766 C 304.004 643.329, 293.204 627.812, 282.299 613.210 C 273.176 600.994, 266.404 590.262, 267.272 589.395 C 267.570 589.096, 271.320 593.498, 275.604 599.176 C 279.889 604.854, 287.497 614.675, 292.511 621 C 297.525 627.325, 303.174 634.739, 305.064 637.476 C 309.155 643.401, 310.396 644.743, 315 648.216 C 316.925 649.669, 319.850 652.064, 321.500 653.540 C 327.992 659.347, 330.902 660.916, 341.500 664.321 C 368.464 672.986, 430.220 695.286, 444 701.334 L 447.500 702.870 452.688 697.780 L 457.876 692.691 452.081 686.095 C 445.887 679.045, 436.877 666.998, 416.862 639 C 389.383 600.563, 388.416 598.692, 388.700 584.500 C 388.810 579, 389.758 570.564, 390.807 565.754 C 392.175 559.479, 392.401 556.785, 391.607 556.219 C 390.998 555.785, 384.650 552.627, 377.500 549.201 L 364.500 542.972 334.127 543.952 C 309.321 544.751, 303.312 545.220, 301.344 546.510 C 292.872 552.062, 248.146 566.599, 224.792 571.392 C 203.120 575.840, 192.172 574.705, 177.326 566.471 C 168.348 561.492, 153.965 547.129, 146.570 535.759 C 118.101 491.983, 110.404 433.286, 124.670 368.744 C 125.491 365.029, 125.971 361.429, 125.736 360.744 C 124.969 358.511, 119.028 385.658, 115.544 407.322 C 109.591 444.332, 109.493 445.498, 109.604 478.199 C 109.713 510.555, 109.573 511.524, 105.288 508.146 C 101.691 505.311, 88.260 489.300, 85.434 484.478 C 82.868 480.099, 82.770 479.446, 83.433 471.186 C 85.065 450.881, 90.904 422.077, 98.673 396.009 C 108.435 363.254, 117.935 343.878, 143.785 304 C 177.819 251.497, 218.292 217.624, 265.517 202.118 C 284.277 195.958, 300.277 192.874, 316.500 192.290 L 330.500 191.786 334.635 194.817 C 339.307 198.240, 347.812 210.548, 353.816 222.575 C 371.989 258.982, 376.966 294.069, 372.454 353.981 C 370.502 379.903, 364.508 415.840, 360.942 423.004 C 360.082 424.731, 367.699 424.725, 404 422.967 C 415.275 422.420, 437.775 421.722, 454 421.414 C 480.984 420.902, 484.353 420.642, 493.500 418.368 C 499 417, 507.196 414.060, 511.713 411.834 C 516.713 409.370, 526.645 405.970, 537.096 403.143 L 554.264 398.500 569.731 368.222 C 580.557 347.031, 584.906 337.577, 584.224 336.722 C 583.688 336.050, 582.271 330.666, 581.074 324.757 C 579.878 318.849, 577.792 310.299, 576.439 305.757 C 569.943 283.952, 554.170 250.139, 541.725 231.342 C 538.026 225.756, 535 220.918, 535 220.592 C 535 215.989, 555.659 242.731, 568.534 264 C 580.536 283.827, 597 317.998, 597 323.081 C 597 323.980, 594.016 330.518, 590.369 337.608 C 570.136 376.943, 561.366 395.070, 562.866 394.452 C 566.879 392.799, 573.071 392.825, 577.766 394.513 C 582.539 396.229, 582.795 396.221, 588.351 394.142 C 602.345 388.906, 643.998 379.829, 672.438 375.819 C 680.990 374.613, 688.501 373.308, 689.129 372.920 C 689.925 372.428, 689.116 369.526, 686.465 363.357 C 684.371 358.486, 682.060 352.516, 681.329 350.091 C 678.397 340.364, 680.729 330.584, 687.141 325.720 C 695.367 319.479, 719.057 312.923, 744.966 309.718 L 755.431 308.423 751.088 303.712 C 737.363 288.822, 708.858 286.084, 665.500 295.492 C 658.900 296.924, 650.465 298.754, 646.756 299.560 C 641.651 300.668, 639.585 300.749, 638.256 299.891 C 637.290 299.268, 630.200 290.387, 622.500 280.155 C 576.005 218.375, 545.868 187.029, 508.828 161.925 C 484.082 145.153, 447.288 128.927, 424 124.517 C 413.793 122.584, 391.915 121.826, 379.500 122.975 M 475 138.472 C 475 138.717, 480.063 141.502, 486.250 144.661 C 509.767 156.667, 536.770 176.773, 558.542 198.487 C 580.115 220.003, 593.705 235.966, 620.998 271.847 C 638.906 295.389, 640.465 297.155, 642.889 296.637 C 644.325 296.330, 651.575 294.688, 659 292.989 C 695.039 284.741, 719.392 283.705, 738.390 289.610 C 740.478 290.259, 740.480 290.244, 738.586 288.123 C 735.606 284.786, 727.615 282.860, 714.320 282.273 C 699.408 281.615, 689.678 282.780, 663 288.420 C 649.841 291.202, 641.910 292.447, 640.853 291.897 C 639.948 291.426, 633.893 283.719, 627.398 274.770 C 586.541 218.480, 558.457 189.179, 521 163.767 C 505.064 152.955, 475 136.423, 475 138.472 M 300 197.534 C 275.382 201.417, 249.372 210.669, 229 222.787 C 215.466 230.839, 215.466 231.596, 229 224.580 C 257.072 210.028, 285.786 200.921, 311.500 198.413 C 315.350 198.038, 319.400 197.370, 320.500 196.929 C 323.760 195.621, 309.447 196.044, 300 197.534 M 326.100 197.991 C 334.582 202.474, 344.220 218.276, 354.881 245.180 C 358.381 254.015, 359.783 259.684, 363.616 280.500 C 365.982 293.356, 366.386 298.215, 366.439 314.500 C 366.489 330.035, 366.203 334.138, 364.874 337 C 363.822 339.264, 363.021 344.731, 362.606 352.484 C 361.900 365.669, 359.726 385.556, 357.467 399.500 C 355.188 413.560, 355.709 424.517, 358.445 420.089 C 359.303 418.700, 362.780 400.724, 365.031 386.038 C 369.962 353.871, 371.417 310.699, 368.435 285.070 C 365.124 256.618, 353.831 225.495, 339.742 206 C 334.015 198.075, 331.257 196.003, 326.500 196.049 L 322.500 196.088 326.100 197.991 M 321.313 201.785 C 319.644 202.847, 314.573 213.536, 312.909 219.500 C 310.243 229.057, 311.768 250.056, 316.122 263.750 C 316.950 266.355, 317.685 266.997, 319.828 266.985 C 325.251 266.954, 325.843 264.472, 321.780 258.786 C 320.776 257.380, 320.921 256.571, 322.586 254.286 C 327.468 247.589, 339.974 244.858, 346.774 249.004 C 353.331 253.001, 353.397 252.006, 347.530 237.685 C 340.530 220.599, 331.109 205.296, 325.760 202.326 C 323.076 200.835, 322.850 200.808, 321.313 201.785 M 305 202.668 C 275.914 207.274, 250.245 216.379, 223.250 231.667 C 207.071 240.829, 198.949 247.022, 185.453 260.485 C 162.415 283.467, 151.294 300.593, 140.962 329 C 131.992 353.663, 130.435 360.603, 127.503 389 C 124.265 420.362, 124.644 449.165, 128.594 472 C 130.589 483.530, 136.781 502.629, 141.676 512.349 C 152.705 534.250, 171.622 553.676, 188.400 560.328 C 194.604 562.788, 211.449 563.218, 220 561.135 C 233.816 557.770, 268 547.393, 268 546.564 C 268 546.415, 265.863 546.484, 263.250 546.717 C 253.083 547.624, 246 542.116, 246 533.302 C 246 526.039, 251.933 516.901, 259.950 511.817 C 264.411 508.988, 278.867 503.854, 286.250 502.477 C 289.511 501.869, 290 501.417, 290 499.011 C 290 497.490, 290.563 495.781, 291.250 495.213 C 292.881 493.868, 303.656 490.271, 307.500 489.789 C 310.397 489.426, 310.350 489.369, 306.135 488.137 C 296.379 485.285, 294.251 477.998, 300.250 467.989 C 303.699 462.235, 306.241 460.426, 312.174 459.507 L 315.847 458.938 313.302 456.393 C 311.165 454.256, 310.843 453.206, 311.294 449.846 C 312.029 444.368, 314.401 442, 319.155 442 C 322.836 442, 323 441.860, 323 438.710 C 323 436.901, 323.675 432.829, 324.500 429.661 C 325.325 426.494, 326 423.451, 326 422.899 C 326 422.297, 322.953 421.976, 318.401 422.096 C 309.724 422.326, 309.039 421.827, 309.015 415.266 C 309.003 411.987, 309.659 410.294, 311.918 407.766 C 314.720 404.630, 315.178 404.486, 323.425 404.147 C 331.257 403.825, 332.055 403.605, 332.479 401.647 C 333.363 397.573, 334.916 377.452, 335.596 361.251 L 336.278 345.002 327.238 345.644 C 319.121 346.220, 317.848 346.069, 314.771 344.167 C 309.107 340.667, 307.275 333.236, 310.526 326.950 C 312.295 323.529, 313.869 323.352, 326.901 325.106 C 331.422 325.715, 335.378 325.955, 335.693 325.641 C 336.401 324.933, 336.229 314.458, 335.449 310.829 C 334.896 308.253, 334.686 308.177, 329.607 308.701 C 324.740 309.203, 324.172 309.035, 322.169 306.488 C 319.773 303.441, 319.311 298.796, 321.250 297.245 C 321.938 296.695, 323.625 295.917, 325 295.515 C 326.375 295.114, 329.635 293.439, 332.244 291.793 C 336.406 289.167, 336.916 288.474, 336.401 286.150 C 334.973 279.703, 335.504 279.951, 328.771 282.590 C 318.452 286.634, 313.035 285.667, 310.971 279.413 C 309.979 276.407, 310.057 275.199, 311.441 272.130 C 313.034 268.598, 312.998 268.053, 310.523 258.476 C 307.482 246.705, 306.306 230.944, 307.854 222.724 C 308.753 217.948, 310.923 211.745, 314.664 203.250 C 315.215 201.998, 310.882 201.737, 305 202.668 M 333.941 252.158 C 330.032 253.202, 324.270 257.603, 325.370 258.703 C 325.751 259.084, 327.961 258.828, 330.282 258.133 C 332.602 257.438, 336.417 256.520, 338.760 256.092 C 344.097 255.117, 345.023 254.221, 342.557 252.418 C 340.382 250.828, 339.067 250.788, 333.941 252.158 M 352.721 256.136 C 351.752 256.678, 350.069 256.839, 348.980 256.494 C 347.851 256.135, 347 256.324, 347 256.933 C 347 257.520, 348.132 258, 349.515 258 C 351.236 258, 352.604 258.945, 353.852 260.996 C 356.114 264.716, 357.020 264.021, 355.971 259.371 C 354.988 255.013, 354.894 254.920, 352.721 256.136 M 336.644 260.327 C 333.424 261.484, 331.309 262.603, 331.945 262.815 C 332.581 263.027, 334.316 262.739, 335.801 262.176 C 337.285 261.612, 340.200 260.870, 342.278 260.525 C 344.356 260.181, 345.792 259.472, 345.469 258.949 C 344.682 257.677, 343.522 257.858, 336.644 260.327 M 339.500 264.928 C 336.200 265.904, 331.025 267.847, 328 269.245 C 324.975 270.643, 320.813 272.080, 318.750 272.439 C 315.741 272.962, 315.003 273.526, 315.015 275.295 C 315.047 279.907, 318.682 281.720, 323.500 279.528 C 325.452 278.640, 325.888 278.134, 324.750 278.081 C 323.619 278.029, 323 277.194, 323 275.721 C 323 273.687, 323.725 273.320, 329.750 272.304 C 333.462 271.678, 339.988 270.577, 344.250 269.858 C 352.185 268.518, 353.365 267.508, 350.429 264.571 C 348.492 262.635, 347.095 262.681, 339.500 264.928 M 355.405 268.514 C 355.569 270.060, 355.257 272.509, 354.710 273.959 C 353.881 276.155, 354.319 277.834, 357.341 284.047 C 361.556 292.712, 361.776 291.805, 358.858 277.788 C 356.823 268.018, 354.761 262.481, 355.405 268.514 M 567.342 270 C 567.621 270.825, 569.898 276.478, 572.401 282.563 C 577.052 293.867, 582.559 312.246, 585.548 326.439 L 587.221 334.379 589.605 330.439 C 590.917 328.273, 591.992 325.133, 591.995 323.462 C 592 320.179, 584.788 302.403, 578.216 289.500 C 573.341 279.930, 566.630 267.895, 567.342 270 M 250 273.582 C 225.573 280.025, 198.796 292.107, 183.853 303.428 C 170.135 313.821, 154.758 331.867, 150.845 342.167 C 148.425 348.534, 148.518 351.328, 151.253 354.508 C 154.177 357.907, 155.832 357.178, 159.335 350.946 C 163.409 343.698, 172.838 332.303, 179.632 326.415 C 185.697 321.159, 197.170 313, 198.496 313 C 198.911 313, 198.907 314.462, 198.489 316.250 C 198.070 318.038, 197.451 326.607, 197.114 335.293 L 196.500 351.085 188.479 354.366 C 177.524 358.846, 168.810 363.875, 160.531 370.493 C 151.378 377.811, 149.452 380.811, 150.966 385.397 C 152.231 389.231, 155.717 392, 159.278 392 C 160.570 392, 169.638 388.812, 179.430 384.916 C 189.221 381.020, 197.581 378.207, 198.008 378.666 C 198.434 379.125, 199.783 384, 201.004 389.500 C 202.226 395, 205.200 405.899, 207.613 413.720 C 210.026 421.541, 212 428.366, 212 428.887 C 212 429.408, 209.637 430.332, 206.750 430.940 C 197.324 432.926, 189.019 436.097, 187.933 438.125 C 185.833 442.048, 192.413 467.004, 196.165 469.344 C 197.384 470.105, 200.456 469.704, 207.665 467.846 C 218.810 464.972, 246.991 456.964, 257.500 453.684 L 264.500 451.500 264.808 446.676 C 265.139 441.479, 262.782 428.413, 260.741 424.131 C 259.162 420.820, 255.579 420.364, 246.898 422.370 C 243.385 423.181, 240.384 423.718, 240.228 423.562 C 240.072 423.406, 238.438 418.153, 236.596 411.889 C 232.489 397.922, 228.063 377.235, 227.740 370.500 L 227.500 365.500 247.500 361.173 C 258.500 358.793, 268.535 356.430, 269.800 355.922 C 271.954 355.056, 272.061 354.603, 271.502 348.749 C 270.477 338.027, 269.974 336.057, 267.995 334.997 C 265.620 333.726, 256.374 335.041, 239.186 339.095 C 232.414 340.693, 226.676 342, 226.436 342 C 225.269 342, 226.853 317.463, 228.476 310.414 C 228.859 308.749, 231.229 307.597, 240.228 304.698 C 246.428 302.701, 253.750 300.538, 256.500 299.890 C 265.565 297.754, 265.314 298.155, 264.799 286.647 C 264.549 281.066, 263.802 275.488, 263.137 274.250 C 261.702 271.576, 258.268 271.401, 250 273.582 M 343.265 275.397 C 341.486 276.004, 339.966 276.725, 339.887 277 C 339.808 277.275, 340.060 279.804, 340.448 282.619 L 341.152 287.738 347.111 286.237 C 352.631 284.847, 352.957 284.610, 351.528 283.031 C 350.679 282.093, 349.201 279.743, 348.242 277.810 C 346.565 274.424, 346.380 274.334, 343.265 275.397 M 247.500 279.509 C 229.950 284.083, 210.985 291.916, 197.230 300.271 C 180.928 310.174, 163.820 327.305, 157.951 339.603 C 154.015 347.849, 154.231 348.616, 158.642 342.065 C 160.645 339.091, 165.863 332.929, 170.238 328.372 C 181.590 316.547, 202.076 302.887, 203.938 305.900 C 204.294 306.476, 204.026 312.022, 203.342 318.224 C 202.658 324.426, 202.076 335.129, 202.049 342.009 L 202 354.518 195.250 356.928 C 177.165 363.385, 155.479 378.096, 156.231 383.398 C 156.873 387.927, 159.213 387.645, 175.580 381.064 C 192.272 374.351, 201.071 371.599, 202.068 372.780 C 202.402 373.176, 204.529 381.150, 206.794 390.500 C 209.059 399.850, 212.688 413.042, 214.859 419.816 L 218.805 432.132 216.621 433.127 C 215.419 433.675, 209.500 435.372, 203.468 436.899 L 192.500 439.675 192.775 443.088 C 193.261 449.124, 198.191 465, 199.578 465 C 200.296 465, 206.197 463.382, 212.692 461.405 C 219.186 459.428, 232.375 455.644, 242 452.996 L 259.500 448.181 259.350 443.731 C 259.176 438.562, 257.326 429.105, 256.107 427.157 C 255.409 426.042, 253.875 426.098, 247.063 427.487 C 242.552 428.407, 238.261 428.930, 237.529 428.650 C 235.092 427.714, 226.818 398.119, 222.960 376.532 L 220.821 364.564 222.908 362.873 C 224.843 361.307, 242.467 356.649, 256.500 353.997 C 266.966 352.018, 266.346 352.581, 265.629 345.722 C 265.280 342.389, 264.848 339.514, 264.667 339.334 C 264.134 338.800, 253.531 340.876, 237.640 344.624 C 229.466 346.552, 222.088 347.864, 221.244 347.540 C 219.936 347.038, 219.808 345.363, 220.383 336.225 C 221.447 319.284, 223.113 308.079, 224.889 305.918 C 226.467 303.997, 239.833 299.090, 253.250 295.506 L 260 293.703 259.942 289.602 C 259.860 283.706, 258.655 277.705, 257.496 277.414 C 256.948 277.276, 252.450 278.219, 247.500 279.509 M 345.249 291.462 C 342.911 292.192, 337.399 294.515, 332.999 296.624 C 326.474 299.751, 325 300.876, 325 302.729 C 325 303.978, 325.268 305, 325.595 305 C 325.922 305, 330.759 303.456, 336.345 301.568 C 341.930 299.681, 349.087 297.829, 352.250 297.453 C 358.395 296.723, 358.628 296.473, 356.839 292.547 C 355.496 289.599, 352.199 289.291, 345.249 291.462 M 358.250 301.662 C 357.449 301.986, 357.016 304.200, 357.044 307.833 C 357.104 315.670, 358.323 321.248, 360.834 325.170 L 362.966 328.500 362.983 314.750 C 362.998 302.285, 362.836 301.007, 361.250 301.079 C 360.288 301.122, 358.938 301.385, 358.250 301.662 M 343.250 304.119 C 339.597 305.173, 339.478 305.822, 340.652 318.250 C 341.357 325.722, 341.159 325.588, 349.041 323.898 C 353.599 322.920, 354.115 322.553, 353.605 320.648 C 353.289 319.467, 352.734 315.012, 352.371 310.750 C 351.730 303.203, 351.644 303.002, 349.106 303.090 C 347.673 303.140, 345.038 303.603, 343.250 304.119 M 740.500 315.714 C 732.084 316.878, 701.435 324.187, 697.035 326.080 C 690.259 328.995, 685.992 333.918, 686.024 338.785 C 686.061 344.305, 687.552 349.843, 692.143 361.509 C 696.046 371.427, 696.428 372, 699.136 372 C 700.711 372, 702 371.791, 702 371.535 C 702 370.164, 698.268 360.401, 694.766 352.613 C 689.814 341.598, 689.878 336.784, 695.051 331.447 C 701.560 324.732, 713.416 321.802, 718.806 325.577 C 721.402 327.395, 727.051 338.350, 736.041 359 C 739.513 366.975, 742.928 374.139, 743.631 374.919 C 744.883 376.308, 748.170 376.033, 761.750 373.398 C 765.061 372.756, 764.599 370.218, 759.366 360.291 C 745.069 333.173, 745 333.019, 745 328.468 C 745 325.240, 745.592 323.408, 747.134 321.866 C 749.029 319.971, 750.028 319.796, 756.059 320.302 C 764.756 321.031, 767.336 322.432, 773.919 330.001 C 778.813 335.627, 779.577 336.135, 782.328 335.584 C 786.371 334.776, 786.468 334.583, 784.465 331.319 C 777.288 319.622, 759.052 313.149, 740.500 315.714 M 750.667 325.667 C 749.250 327.083, 750.143 331.729, 752.844 337 C 754.394 340.025, 757.794 346.663, 760.398 351.750 C 763.003 356.837, 765.318 361, 765.542 361 C 766.227 361, 764.488 357.050, 758.108 344.113 C 751.486 330.684, 750.811 328, 754.059 328 C 755.191 328, 755.852 328.431, 755.526 328.957 C 754.714 330.272, 763.940 348.404, 768.763 354.971 C 768.953 355.230, 769.471 354.855, 769.914 354.138 C 770.476 353.230, 771.201 353.996, 772.309 356.667 C 773.182 358.775, 773.920 359.908, 773.948 359.184 C 774.020 357.356, 772.101 353.903, 769.603 351.362 C 767.484 349.207, 760.025 335.851, 758.092 330.750 C 757.100 328.133, 757.193 328, 760.025 328 C 761.661 328, 763 328.534, 763 329.187 C 763 330.771, 776.236 354.097, 776.809 353.524 C 777.056 353.277, 774.275 347.680, 770.629 341.085 C 766.983 334.491, 764 328.613, 764 328.023 C 764 325.761, 752.589 323.744, 750.667 325.667 M 314.667 328.667 C 313.378 329.955, 314.018 336.580, 315.656 338.919 C 317.263 341.213, 317.613 341.266, 327.406 340.697 C 337.669 340.101, 355.438 336.603, 357.798 334.714 C 359.493 333.358, 358.951 329.987, 356.825 328.655 C 355.039 327.535, 342.531 329.484, 328.085 333.131 C 324.006 334.160, 320.406 334.739, 320.085 334.416 C 319.763 334.094, 320.701 332.796, 322.169 331.533 L 324.838 329.235 321.169 328.629 C 316.450 327.848, 315.479 327.854, 314.667 328.667 M 793.750 329.080 C 792.788 329.641, 792 330.977, 792 332.050 C 792 333.717, 792.708 334, 796.886 334 C 801.192 334, 802.221 334.445, 805.559 337.750 C 808.251 340.416, 808.906 340.778, 807.826 339 C 806.990 337.625, 805.674 335.375, 804.903 334 C 801.531 327.992, 798.167 326.508, 793.750 329.080 M 704.223 330.661 C 700.077 332.704, 696 337.498, 696.001 340.327 C 696.001 341.522, 697.387 345.425, 699.081 349 C 700.774 352.575, 703.507 358.988, 705.153 363.250 C 708.040 370.728, 709.015 371.699, 712.350 370.419 C 713.579 369.948, 712.842 367.757, 708.432 358.771 C 702.457 346.597, 701.631 342.659, 705.163 343.180 C 706.758 343.416, 708.538 345.865, 711.935 352.500 C 714.471 357.450, 718.439 364.531, 720.753 368.236 C 726.017 376.661, 727.779 380.850, 728.567 386.808 C 729.339 392.649, 726.741 396.583, 721.457 397.574 C 717.799 398.260, 717.497 398.657, 718.920 400.905 C 719.621 402.011, 721.456 402.170, 727.563 401.654 C 736.289 400.917, 741.017 398.735, 742.397 394.812 C 743.907 390.519, 740.140 381.003, 722.385 344.250 L 715.018 329 711.259 329.023 C 709.192 329.035, 706.025 329.772, 704.223 330.661 M 796.500 340.432 C 801.028 343.776, 803.207 346.955, 809.015 358.689 C 812.368 365.464, 816.774 372.934, 818.806 375.290 C 820.838 377.646, 823.264 380.682, 824.198 382.037 C 826.699 385.666, 826.412 382.415, 823.737 376.821 C 822.507 374.248, 818.575 367.560, 815 361.959 C 800.489 339.224, 800.717 339.520, 797.500 339.227 C 794.635 338.967, 794.590 339.021, 796.500 340.432 M 349 342.927 L 340.500 344.609 339.884 363.554 C 339.545 373.974, 338.926 387.540, 338.509 393.699 L 337.749 404.899 340.625 405.513 C 342.206 405.851, 345.212 406.747, 347.304 407.504 C 350.180 408.546, 351.194 408.591, 351.462 407.691 C 354.866 396.215, 360.638 340.816, 358.397 341.123 C 357.904 341.190, 353.675 342.002, 349 342.927 M 809.582 343 C 809.984 343.825, 813.780 350.125, 818.018 357 C 831.613 379.056, 834.295 385.698, 831.702 390.896 L 830.248 393.810 834.716 394.480 C 837.173 394.849, 839.439 394.894, 839.752 394.581 C 840.947 393.387, 837.752 385.794, 833.108 378.793 C 830.448 374.782, 824.643 365.650, 820.208 358.500 C 812.910 346.735, 807.701 339.136, 809.582 343 M 785.584 359 C 788.842 365.695, 791.921 370, 793.451 370 C 794.477 370, 787.751 358.128, 784.855 354.829 C 781.938 351.504, 781.939 351.510, 785.584 359 M 126.079 357.583 C 126.127 358.748, 126.364 358.985, 126.683 358.188 C 126.972 357.466, 126.936 356.603, 126.604 356.271 C 126.272 355.939, 126.036 356.529, 126.079 357.583 M 796.040 358.404 C 795.960 360.219, 803.018 371.793, 804.568 372.388 C 808.391 373.855, 809.211 373.105, 807.072 370.101 C 803.948 365.713, 796.085 357.377, 796.040 358.404 M 766.031 362.500 C 766.031 363.050, 766.467 364.175, 767 365 C 767.533 365.825, 767.969 366.050, 767.969 365.500 C 767.969 364.950, 767.533 363.825, 767 363 C 766.467 362.175, 766.031 361.950, 766.031 362.500 M 701 377.615 C 662.895 382.163, 640.463 386.132, 610.609 393.610 C 592.399 398.171, 586 400.272, 586 401.690 C 586 402.278, 592.508 416.249, 593.469 417.724 C 593.550 417.848, 601.914 416.139, 612.058 413.926 C 646.075 406.507, 686.375 398.137, 700.955 395.464 C 708.905 394.007, 717.005 392.281, 718.955 391.629 C 722.135 390.565, 722.483 390.097, 722.337 387.077 C 722.247 385.226, 721.391 381.977, 720.435 379.856 C 718.422 375.392, 719.035 375.462, 701 377.615 M 806.641 382.396 C 807.100 385.745, 806.833 387.605, 805.632 389.438 C 804.735 390.809, 804 392.170, 804 392.465 C 804 392.759, 808.019 393, 812.932 393 C 821.650 393, 821.913 392.930, 823.932 390.096 C 826.177 386.942, 826.869 383.731, 824.873 385.727 C 823.348 387.252, 819.350 385.680, 815.500 382.042 C 813.850 380.483, 811.041 378.900, 809.258 378.526 L 806.017 377.845 806.641 382.396 M 767 380.006 C 762.875 380.406, 756.656 381.066, 753.180 381.473 L 746.860 382.213 747.672 386.356 C 748.118 388.635, 748.475 392.411, 748.465 394.746 C 748.451 398.156, 748.757 398.895, 750.018 398.494 C 750.883 398.220, 757.809 397.119, 765.411 396.048 C 773.013 394.977, 779.350 393.966, 779.493 393.800 C 779.637 393.635, 780.677 391.670, 781.804 389.433 C 782.931 387.196, 784.542 384.795, 785.382 384.098 C 786.614 383.076, 786.678 382.458, 785.715 380.915 C 784.399 378.808, 781.050 378.645, 767 380.006 M 788.550 379.916 C 789.444 380.777, 793.648 381.362, 797 381.091 C 798.333 380.983, 798.333 380.862, 797 380 C 795.062 378.747, 787.257 378.669, 788.550 379.916 M 124.195 392.500 C 124.215 394.150, 124.439 394.704, 124.693 393.731 C 124.947 392.758, 124.930 391.408, 124.656 390.731 C 124.382 390.054, 124.175 390.850, 124.195 392.500 M 122.144 407.013 C 120.853 418.365, 120.800 441.468, 122.043 450.500 C 122.617 454.667, 122.731 452.070, 122.416 442 C 122.167 434.025, 122.439 420.806, 123.022 412.624 C 123.604 404.442, 123.903 397.569, 123.684 397.351 C 123.466 397.133, 122.773 401.481, 122.144 407.013 M 562.835 401.024 C 560.820 402.089, 550.743 405.247, 540.443 408.042 C 530.143 410.837, 519.749 414.048, 517.347 415.177 C 511.946 417.716, 505.192 425.105, 499.754 434.422 C 497.483 438.315, 493.071 444.209, 489.950 447.520 C 481.893 456.068, 483.796 451.894, 458.079 517.413 C 446.870 545.972, 441.253 563.286, 440.328 572.133 C 439.154 583.369, 441.447 587.674, 468.495 625 C 493.638 659.697, 508.709 679.578, 511.914 682.274 C 516.092 685.790, 524.485 687.391, 535 686.679 C 539.675 686.363, 557 684.030, 573.500 681.496 C 600.163 677.401, 629.613 673.035, 715 660.519 C 753.772 654.836, 764.429 653.139, 781.500 649.927 C 817.437 643.167, 834.085 639.237, 850.946 633.534 C 856.692 631.590, 862.418 630, 863.672 630 C 865.729 630, 865.852 629.740, 864.934 627.326 C 864.375 625.856, 862.811 623.628, 861.459 622.374 C 857.329 618.547, 858.325 615.520, 863.160 617.205 C 867.174 618.605, 873.448 626.749, 874.873 632.411 C 875.895 636.470, 876.345 636.998, 878.764 636.985 C 882.521 636.964, 883.871 635.906, 884.550 632.450 C 885.032 629.996, 884.067 627.911, 878.815 620.049 C 875.342 614.851, 871.749 610.151, 870.832 609.606 C 869.566 608.853, 866.912 609.732, 859.832 613.249 C 841.286 622.461, 815.539 628.192, 762 635.023 C 680.359 645.440, 639.011 650.344, 638.354 649.688 C 637.372 648.706, 615.202 560.802, 609.428 535 C 605.835 518.941, 597.310 483.873, 595.411 477.343 L 593.830 471.903 589.452 472.560 C 585.974 473.081, 584.706 472.847, 583.287 471.421 C 581.568 469.694, 581.489 469.702, 581.205 471.623 C 580.652 475.376, 599.015 556.552, 612.961 612 C 618.425 633.725, 622.581 651.814, 622.198 652.198 C 621.425 652.972, 598.426 656.592, 570 660.416 C 538.473 664.657, 540.716 664.585, 534.508 661.548 C 531.341 659.998, 527.594 657.096, 525.643 654.682 C 516.847 643.796, 484.809 593.828, 478.888 581.762 C 475.696 575.254, 475.622 574.833, 476.745 569.481 C 477.384 566.432, 485.973 543.814, 495.830 519.219 C 505.688 494.624, 516.586 466.240, 520.048 456.144 C 523.510 446.048, 527.291 436.373, 528.450 434.644 C 530.399 431.736, 531.669 431.222, 545.399 427.796 C 553.562 425.759, 560.484 423.849, 560.781 423.552 C 561.078 423.255, 560.574 422.187, 559.661 421.177 C 557.942 419.279, 557.544 416.353, 558.621 413.545 C 559.301 411.774, 564.032 409, 566.373 409 C 568.486 409, 574.516 419.117, 578.162 428.778 C 579.881 433.333, 581.705 437.318, 582.215 437.633 C 582.725 437.948, 585.137 437.907, 587.575 437.541 C 591.758 436.914, 591.974 436.725, 591.415 434.188 C 589.016 423.291, 581.399 405.308, 577.554 401.463 C 574.477 398.386, 568.185 398.198, 562.835 401.024 M 774.500 400.125 C 761.824 401.870, 720.738 408.892, 708 411.491 C 692.964 414.559, 653.204 424.686, 640 428.811 C 603.830 440.111, 599.437 441.297, 587.500 442.988 C 576.708 444.517, 576.199 444.714, 574.489 448.021 C 572.607 451.661, 572.618 453.392, 574.548 457.460 C 578.160 465.072, 583.901 464.390, 621.439 451.889 C 670.498 435.551, 685.832 431.590, 742.987 420.496 C 777.325 413.831, 790.091 412.038, 808.500 411.295 C 826.477 410.569, 835.682 411.966, 840.096 416.089 C 841.844 417.723, 842.977 419.619, 842.674 420.407 C 842.378 421.180, 842.935 422.536, 843.913 423.421 C 845.554 424.907, 845.890 424.874, 848.273 423 C 852.082 420.004, 853.457 415.029, 851.662 410.734 C 849.963 406.668, 846.349 403.904, 839.500 401.433 C 835.231 399.893, 830.628 399.595, 808 399.396 C 793.425 399.267, 778.350 399.595, 774.500 400.125 M 693.689 407.565 C 688.843 408.319, 675.568 411.177, 664.189 413.916 C 624.654 423.434, 614.451 425.825, 605.750 427.613 C 597.773 429.252, 597 429.616, 597 431.737 C 597 435.278, 599.131 435.423, 608.711 432.536 C 613.545 431.079, 622.675 428.324, 629 426.414 C 635.325 424.503, 654.339 419.427, 671.254 415.132 C 688.169 410.838, 702.307 407.027, 702.671 406.662 C 703.035 406.298, 703.146 406.044, 702.917 406.097 C 702.688 406.150, 698.535 406.811, 693.689 407.565 M 317.851 409.082 C 315.220 410.092, 312.113 415.446, 313.406 416.740 C 313.778 417.111, 318.676 417.510, 324.291 417.626 C 330.986 417.764, 337.218 418.571, 342.398 419.971 C 351.154 422.337, 352.577 421.903, 351.540 417.184 C 351.085 415.110, 349.884 413.707, 347.689 412.684 C 341.039 409.586, 322.398 407.336, 317.851 409.082 M 566.667 416.667 C 565.295 418.039, 566.127 421.665, 569.018 426.910 C 570.848 430.229, 572 433.781, 572 436.101 C 572 438.180, 572.441 440.154, 572.979 440.487 C 573.746 440.961, 577.122 439.818, 578.748 438.533 C 579.098 438.257, 571.376 420.575, 569.811 418.069 C 568.447 415.885, 567.756 415.577, 566.667 416.667 M 789.319 418.524 C 781.520 419.231, 773.747 420.116, 772.046 420.490 L 768.954 421.169 772.644 426.335 C 778.540 434.587, 778.255 434.398, 782.647 432.976 C 795.100 428.945, 819 418.760, 819 417.483 C 819 416.657, 804.150 417.178, 789.319 418.524 M 488.500 425.825 C 472.625 431.332, 460.426 437.932, 453.595 444.709 C 448.880 449.386, 446.606 452.996, 440.538 465.436 C 433.496 479.872, 422.781 505.817, 417.839 520.400 C 415.958 525.948, 415.767 527.392, 416.864 527.771 C 417.614 528.030, 421.062 530.183, 424.525 532.554 L 430.822 536.865 435.582 523.182 C 448.393 486.362, 458.602 460.699, 462.446 455.660 C 465.903 451.127, 476.509 444.004, 484.481 440.859 C 489.874 438.732, 490.978 437.761, 495.691 431 C 500.898 423.530, 501.675 421.996, 500.250 422.004 C 499.837 422.007, 494.550 423.726, 488.500 425.825 M 331.574 423.881 C 331.272 424.369, 330.128 428.525, 329.031 433.117 C 327.458 439.704, 327.297 441.706, 328.269 442.605 C 329.686 443.916, 339 447.153, 339 446.334 C 339 446.034, 337.875 444.452, 336.500 442.818 C 335.125 441.184, 334.011 439.544, 334.023 439.173 C 334.036 438.803, 335.288 436.250, 336.805 433.500 L 339.564 428.500 345.342 428.764 C 349.249 428.943, 351.821 428.538, 353.283 427.514 C 354.472 426.681, 354.985 426, 354.423 426 C 353.860 426, 352.895 426.505, 352.279 427.121 C 351.450 427.950, 349.374 427.717, 344.329 426.231 C 334.340 423.289, 332.185 422.892, 331.574 423.881 M 415.500 426.031 C 408.350 426.433, 393.111 427.091, 381.636 427.495 C 363.403 428.136, 360.542 428.458, 358.953 430.047 C 357.952 431.048, 356.037 432.585, 354.697 433.463 C 352.908 434.635, 351.923 436.652, 350.989 441.053 C 349.858 446.381, 349.914 447.483, 351.495 450.988 C 355.337 459.509, 351.125 468, 343.056 468 C 339.413 468, 339.189 468.186, 338.548 471.750 C 338.176 473.813, 337.173 478.452, 336.319 482.059 C 334.821 488.381, 334.841 488.768, 336.882 492.769 C 338.047 495.052, 339 497.613, 339 498.460 C 339 499.606, 340.092 500, 343.270 500 C 348.671 500, 359.979 503.116, 370.739 507.571 C 377.226 510.256, 379.512 510.796, 381.006 509.997 C 382.062 509.431, 386.480 504.588, 390.822 499.234 C 400.286 487.566, 419.239 468.394, 431.102 458.491 C 435.832 454.542, 443.482 447.515, 448.102 442.877 C 454.854 436.096, 458.325 433.517, 465.810 429.721 L 475.121 425 451.810 425.150 C 438.990 425.233, 422.650 425.629, 415.500 426.031 M 343.228 435.230 C 340.441 436.574, 339.372 440.326, 340.852 443.574 C 342.646 447.511, 345.410 446.653, 346.725 441.750 C 347.352 439.413, 348.168 436.712, 348.539 435.750 C 349.328 433.704, 346.890 433.465, 343.228 435.230 M 558.500 437.004 C 556.850 437.458, 549.822 439.269, 542.882 441.030 L 530.265 444.230 529.165 447.814 C 528.560 449.786, 528.292 451.625, 528.569 451.902 C 529.032 452.366, 564.917 442.416, 565.736 441.597 C 565.935 441.398, 565.802 440.058, 565.440 438.618 C 564.748 435.860, 563.620 435.598, 558.500 437.004 M 317.054 447.675 C 312.552 450.828, 314.336 452.493, 327 456.959 C 342.329 462.364, 346.403 462.983, 347.926 460.139 C 349.618 456.977, 348.266 453, 345.499 453 C 344.242 453, 342.955 453.675, 342.638 454.500 C 341.840 456.580, 339.272 456.378, 338.075 454.140 C 336.969 452.074, 329.525 448.578, 323.213 447.159 C 320.081 446.455, 318.620 446.578, 317.054 447.675 M 469.135 456.865 C 465.637 460.363, 463.210 465, 464.878 465 C 465.258 465, 467.951 462.587, 470.864 459.638 C 475.044 455.405, 475.822 454.146, 474.557 453.660 C 473.509 453.258, 471.634 454.366, 469.135 456.865 M 471.405 456.250 L 469.500 458.500 471.750 456.595 C 472.988 455.547, 474 454.535, 474 454.345 C 474 453.545, 473.195 454.136, 471.405 456.250 M 422.846 472.265 C 410.367 483.927, 397.805 497.049, 392.978 503.465 C 391.772 505.069, 392.328 504.933, 396 502.726 C 398.475 501.239, 406.007 496.837, 412.738 492.943 L 424.975 485.864 431.375 472.682 C 434.895 465.432, 437.644 459.356, 437.484 459.179 C 437.323 459.003, 430.737 464.892, 422.846 472.265 M 319.750 467.015 C 318.238 469.757, 317 472.177, 317 472.392 C 317 472.607, 318.688 473.460, 320.750 474.288 C 322.813 475.116, 325.788 476.989, 327.361 478.452 C 328.935 479.914, 330.351 480.973, 330.509 480.805 C 331.157 480.114, 334 469.497, 334 467.770 C 334 465.913, 327.267 462.053, 324 462.036 C 323.175 462.032, 321.262 464.273, 319.750 467.015 M 311.500 464.674 C 302.974 465.738, 301.486 467.399, 308.062 468.511 C 311.215 469.043, 312.559 468.804, 314.062 467.443 C 316.003 465.687, 316.659 463.868, 315.250 464.150 C 314.837 464.232, 313.150 464.468, 311.500 464.674 M 469.347 467.644 C 470.501 469.706, 467.165 475.401, 461.539 480.969 C 458.500 483.977, 455.162 488.252, 454.121 490.469 C 449.418 500.483, 436.794 537.275, 435.478 544.804 C 434.680 549.370, 433.346 555.735, 432.514 558.948 C 431.681 562.160, 431 566.130, 431 567.769 C 431 572.359, 429.855 577.029, 428.878 576.425 C 428.395 576.126, 428 577.960, 428 580.500 C 428 583.443, 428.377 584.885, 429.040 584.475 C 429.709 584.062, 429.859 584.715, 429.459 586.307 C 429.117 587.668, 429.282 589.057, 429.826 589.392 C 430.411 589.754, 430.613 589.086, 430.320 587.751 C 429.942 586.026, 430.063 585.836, 430.837 586.936 C 432.200 588.872, 435.006 586.634, 434.985 583.628 C 434.972 581.881, 434.793 581.769, 433.986 583 C 433.261 584.106, 433.121 583.712, 433.454 581.500 C 433.702 579.850, 434.166 575.818, 434.486 572.541 C 435.481 562.326, 449.429 522.322, 463.299 489.901 C 469.364 475.724, 471.358 468.929, 469.858 467.554 C 469.041 466.806, 468.893 466.832, 469.347 467.644 M 761.572 469.893 L 753.645 472.621 751.298 479.560 C 748.490 487.861, 739.940 519.791, 737.057 532.739 C 733.973 546.591, 734.243 549.948, 739.159 558.915 C 746.596 572.477, 766.519 604.437, 771.472 610.752 C 771.756 611.114, 800.338 604.996, 800.876 604.458 C 801.123 604.210, 799.641 596.469, 797.582 587.254 C 795.524 578.039, 792.507 564.200, 790.878 556.500 C 774.899 480.941, 771.883 467.761, 770.492 467.413 C 769.946 467.277, 765.933 468.393, 761.572 469.893 M 465.750 469.963 C 463.204 472.443, 463.600 473.450, 466.177 471.050 C 467.375 469.934, 468.162 468.849, 467.927 468.640 C 467.692 468.430, 466.712 469.025, 465.750 469.963 M 301.429 475.428 C 300.372 479.639, 301.790 481.866, 306.310 483.091 C 315.833 485.672, 327.459 486.008, 326.772 483.682 C 326.250 481.915, 307.919 473.025, 304.769 473.012 C 302.707 473.003, 301.889 473.595, 301.429 475.428 M 323.500 491.001 C 323.160 491.551, 320.841 492.515, 318.348 493.142 L 313.815 494.284 314.487 498.762 C 315.269 503.978, 322.553 529.296, 324.106 532.199 C 325.209 534.259, 325.278 534.257, 334.155 531.932 C 336.166 531.405, 338.815 530.161, 340.042 529.167 L 342.274 527.360 336.497 510.430 C 333.320 501.118, 330.317 492.712, 329.825 491.750 C 328.863 489.869, 324.517 489.354, 323.500 491.001 M 407.066 501.124 C 398.639 506.112, 390.452 510.644, 388.872 511.194 C 387.292 511.745, 386 512.536, 386 512.953 C 386 514.108, 409.716 524.762, 410.336 523.885 C 410.485 523.673, 413.031 517.200, 415.994 509.500 C 418.956 501.800, 421.809 494.927, 422.333 494.226 C 424.611 491.178, 421.466 492.599, 407.066 501.124 M 300.629 496.746 L 295.758 498.369 296.316 503.434 C 296.944 509.139, 305.365 537.765, 306.853 539.253 C 307.689 540.089, 320 539.383, 320 538.498 C 320 538.330, 318.015 531.512, 315.588 523.346 C 311.454 509.432, 310.091 504.453, 308.581 497.750 C 307.872 494.600, 307.291 494.527, 300.629 496.746 M 286.500 507.679 C 278.783 509.405, 265.214 514.718, 261.721 517.382 C 252.023 524.779, 248.538 534.996, 254.243 539.307 L 256.986 541.380 269.243 539.104 C 284.644 536.244, 295.660 533.828, 296.961 533.024 C 297.597 532.631, 297.046 528.946, 295.455 522.952 C 290.938 505.930, 291.330 506.599, 286.500 507.679 M 353.820 511.912 C 354.025 514.063, 353.475 518.295, 352.597 521.316 C 351.718 524.336, 351 527.556, 351 528.471 C 351 530.209, 371.839 540.723, 397 551.679 C 403.875 554.673, 412.328 558.670, 415.784 560.561 C 419.241 562.452, 422.435 564, 422.883 564 C 424.934 564, 429.509 549.165, 428.589 545.498 C 427.064 539.424, 417.482 533.765, 385.084 519.806 C 366.515 511.806, 356.678 508, 354.567 508 C 353.868 508, 353.587 509.469, 353.820 511.912 M 150.549 535 C 162.515 552.378, 177.934 564.742, 192.500 568.639 C 204.604 571.877, 222.412 569.240, 254.908 559.398 C 281.490 551.347, 302.290 542.890, 300.329 540.929 C 299.785 540.385, 290.228 543.238, 276.460 548.057 C 250.088 557.289, 228.792 563.377, 214.648 565.730 C 190.529 569.742, 174.346 561.723, 150.614 534 L 146.762 529.500 150.549 535 M 344 533.949 C 344 534.471, 341.413 535.655, 338.250 536.580 C 335.087 537.506, 331.375 538.659, 330 539.142 L 327.500 540.022 330 539.525 C 331.375 539.251, 337.900 538.999, 344.500 538.964 L 356.500 538.900 350.500 535.963 C 343.611 532.591, 344 532.711, 344 533.949 M 396.318 566.750 C 395.168 571.652, 394.500 578.358, 394.500 585 C 394.500 597.631, 394.902 598.604, 408.261 618.298 C 440.663 666.063, 457.809 689, 461.116 689 C 464.701 689, 464.036 686.723, 458.254 679.203 C 454.997 674.966, 449.919 667.900, 446.970 663.500 C 444.022 659.100, 436.626 648.525, 430.536 640 C 413.799 616.571, 409.145 609.051, 405.163 599 C 402.788 593.007, 402.584 591.270, 402.544 576.715 C 402.508 563.806, 402.227 560.756, 401 559.980 C 398.461 558.373, 398.192 558.762, 396.318 566.750 M 408.292 565.750 C 407.882 567.263, 407.536 574.606, 407.523 582.069 L 407.500 595.637 411.684 604.069 C 418.133 617.063, 452.633 667.319, 463.735 679.892 C 478.165 696.233, 499.572 706.583, 533.339 713.545 C 579.621 723.087, 605.436 725.526, 635.075 723.157 C 652.434 721.769, 652.351 721.803, 651.748 716.461 C 651.486 714.129, 650.422 710.484, 649.385 708.361 L 647.500 704.500 623.904 704.336 C 599.973 704.169, 589.690 703.363, 569 700.032 C 562.675 699.014, 551.200 697.197, 543.500 695.994 C 518.819 692.138, 501.460 687.386, 489.771 681.286 C 482.261 677.367, 480.371 675.268, 460.394 648.654 C 429.156 607.038, 421.918 594.776, 419.973 580.179 C 418.362 568.085, 418.100 567.425, 414.020 565.131 C 409.234 562.442, 409.188 562.447, 408.292 565.750 M 295.618 571.667 C 292.528 575.389, 290.001 578.900, 290.002 579.467 C 290.005 581.225, 301.918 597.500, 303.202 597.500 C 305.031 597.500, 315 584.103, 315 581.645 C 315 579.015, 305.128 565.643, 302.868 565.211 C 301.857 565.017, 299.098 567.474, 295.618 571.667 M 431 593.882 C 431 594.432, 431.450 595.160, 432 595.500 C 432.550 595.840, 433 595.668, 433 595.118 C 433 594.568, 432.550 593.840, 432 593.500 C 431.450 593.160, 431 593.332, 431 593.882 M 870.409 595.435 C 864.309 596.703, 857.559 598.298, 855.409 598.981 C 845.710 602.060, 828.969 614.302, 831.287 616.620 C 831.965 617.299, 848.628 611.694, 858.621 607.426 C 867.184 603.768, 869.369 603.190, 871.531 604.012 C 873.665 604.823, 874.705 604.575, 877.316 602.634 C 879.067 601.332, 882.750 599.455, 885.500 598.461 C 900.442 593.065, 890.963 591.164, 870.409 595.435 M 898.937 594.576 C 896.946 596.974, 899.349 597.967, 907.191 597.985 C 914.070 598, 915.455 597.348, 914.396 594.590 C 913.525 592.320, 900.818 592.309, 898.937 594.576 M 920 593.679 C 920 594.053, 920.886 597.315, 921.969 600.929 C 928.469 622.622, 928.498 623.292, 922.985 624.503 C 921.334 624.866, 920.190 625.498, 920.443 625.908 C 920.697 626.318, 921.369 634.944, 921.937 645.077 C 923.059 665.096, 922.250 686.266, 919.350 712.756 C 918.431 721.147, 917.977 728.310, 918.341 728.674 C 918.705 729.038, 921.413 729.536, 924.359 729.780 L 929.716 730.224 930.367 724.362 C 931.889 710.659, 933.965 682.316, 934.569 667 C 935.556 641.960, 934.022 629.617, 926.365 601 C 925.171 596.538, 920 590.590, 920 593.679 M 435.756 599.664 C 436.447 599.943, 436.715 600.652, 436.352 601.240 C 435.958 601.877, 436.164 602.017, 436.862 601.585 C 438.239 600.735, 437.412 598.965, 435.691 599.079 C 434.839 599.135, 434.857 599.302, 435.756 599.664 M 435.639 604.250 C 436.936 606.391, 446.007 619.071, 453.344 629 C 475.612 659.129, 483.270 669.011, 486.881 672.273 C 490.913 675.916, 498.811 680.522, 499.627 679.706 C 499.866 679.468, 498.318 677.299, 496.188 674.886 C 494.058 672.474, 486.728 664.200, 479.899 656.500 C 464.758 639.428, 450.439 622.273, 442.129 611.250 C 438.709 606.712, 435.679 603, 435.396 603 C 435.113 603, 435.223 603.563, 435.639 604.250 M 885.605 604.568 C 878.132 607.307, 878.125 606.922, 885.901 619.888 C 886.596 621.046, 887.956 620.907, 894.117 619.050 C 898.178 617.826, 905.212 615.093, 909.750 612.977 C 916.802 609.688, 918 608.773, 918 606.672 C 918 605.320, 917.288 603.941, 916.418 603.607 C 913.206 602.374, 889.580 603.111, 885.605 604.568 M 792.666 622.070 C 777.869 625.706, 779.215 627.279, 794.778 624.540 C 803.486 623.008, 805 622.475, 805 620.941 C 805 619.574, 801.533 619.891, 792.666 622.070 M 901.543 625.958 L 890.585 626.500 890.840 632 C 890.980 635.025, 891.720 639.525, 892.486 642 C 895.260 650.975, 898.374 669.554, 904.039 710.938 C 905.728 723.278, 907.492 734.057, 907.958 734.890 C 908.425 735.723, 911.887 737.119, 915.653 737.993 C 922.071 739.481, 922.489 739.746, 922.322 742.217 C 922.180 744.307, 922.750 745.066, 925.066 745.873 C 928.242 746.980, 928.093 747.204, 929.378 739.404 L 929.888 736.308 920.814 735.191 C 915.824 734.577, 911.495 733.828, 911.195 733.528 C 910.895 733.228, 911.405 727.699, 912.328 721.241 C 916.015 695.450, 916.421 689.718, 916.385 664 C 916.348 637.815, 915.446 625.783, 913.500 625.541 C 912.950 625.472, 907.569 625.660, 901.543 625.958 M 303 627.414 C 303 628.192, 305.919 631.150, 309.487 633.989 C 313.054 636.828, 319.575 643.054, 323.978 647.825 C 330.078 654.437, 331.984 655.997, 331.991 654.385 C 332.008 650.393, 322.318 639.650, 311.260 631.401 C 307.277 628.430, 303.790 626, 303.510 626 C 303.229 626, 303 626.636, 303 627.414 M 853 638.693 C 849.425 640.049, 841.100 642.650, 834.500 644.472 C 823.380 647.542, 822.510 647.958, 822.636 650.142 C 822.711 651.439, 823.329 658.800, 824.009 666.500 C 825.175 679.701, 824.888 702.560, 823.511 706.122 C 822.954 707.564, 824.199 707.735, 834.758 707.669 C 845.910 707.599, 846.911 707.758, 851.220 710.283 C 856.457 713.352, 858.937 717.658, 861.567 728.250 C 862.489 731.962, 863.529 735, 863.879 735 C 865.251 735, 882.235 730.099, 882.791 729.542 C 884.052 728.281, 878.321 684.820, 873.367 658.074 C 870.834 644.403, 870.448 643.268, 867.131 639.750 C 863.039 635.411, 861.881 635.325, 853 638.693 M 788.189 654.205 L 782.879 655.172 783.611 658.336 C 785.707 667.399, 783.711 674.366, 772.966 695.496 C 769.135 703.030, 766 709.611, 766 710.120 C 766 710.662, 773.740 710.932, 784.750 710.772 L 803.500 710.500 804.161 705.500 C 804.525 702.750, 805.152 694.406, 805.555 686.958 L 806.288 673.416 801.644 664.612 C 799.090 659.770, 797 655.176, 797 654.404 C 797 652.836, 795.850 652.810, 788.189 654.205 M 639.500 679 C 639.840 679.550, 639.416 680, 638.559 680 C 637.702 680, 637 680.450, 637 681 C 637 681.550, 635.425 682, 633.500 682 C 629.342 682, 629.189 682.859, 631.622 692.544 L 633.243 699 638.040 699 C 645.931 699, 646.008 698.904, 644.268 691.275 C 642.700 684.400, 640.366 678, 639.428 678 C 639.127 678, 639.160 678.450, 639.500 679 M 468.566 694.893 C 468.289 695.341, 469.174 696.214, 470.531 696.832 C 473.514 698.191, 473.617 697.973, 471.035 695.762 C 469.954 694.836, 468.843 694.445, 468.566 694.893 M 455.500 703.227 C 444.515 712.695, 432.541 725.431, 429.085 731.320 C 424.351 739.390, 423 745.542, 423 759.031 C 423 770.394, 423.055 770.677, 425.750 773.180 C 427.262 774.585, 430.636 776.961, 433.246 778.460 C 438.584 781.525, 438.170 781.888, 440.331 772.250 C 441.582 766.668, 441.566 766, 440.182 766 C 439.329 766, 436.715 765.072, 434.373 763.939 C 431.161 762.384, 429.826 761.004, 428.941 758.322 C 426.524 750.999, 429.934 739.258, 434.367 739.635 C 435.453 739.727, 436.141 738.624, 436.552 736.135 C 437.523 730.246, 439.063 727.125, 442.380 724.325 C 447.245 720.216, 454.973 717.021, 460.068 717.010 C 467.717 716.993, 479.911 721.423, 477.861 723.473 C 477.574 723.759, 474.901 723.255, 471.920 722.353 C 465.968 720.551, 456.030 720.378, 452.958 722.023 C 450.926 723.110, 450.479 725.516, 451.723 728.668 C 452.316 730.173, 452.540 729.968, 452.979 727.522 C 453.873 722.527, 457.010 722.221, 470.124 725.852 C 483.048 729.431, 484.612 729.551, 491.409 727.489 C 500.581 724.707, 505.866 725.744, 507.825 730.712 C 516.061 751.598, 518.999 761.350, 518.985 767.753 C 518.956 781.087, 513.244 797.180, 506.597 802.660 C 501.780 806.630, 496.975 808, 487.869 808 C 481.830 808, 479.644 807.539, 475.985 805.493 C 467.477 800.738, 459.797 796.870, 459.488 797.185 C 458.877 797.807, 456 809.830, 456 811.762 C 456 813.330, 457.900 814.461, 465.250 817.266 C 476.059 821.390, 496.956 828, 499.188 828 C 501.415 828, 519.620 814.112, 531.753 803.156 C 549.001 787.581, 553 781.258, 553 769.560 C 553 761.200, 547.282 745.034, 542.314 739.347 C 539.978 736.672, 537.365 735.324, 513.618 724.543 C 510.639 723.191, 510.058 722.559, 511.118 721.825 C 512.122 721.130, 511.924 721.030, 510.391 721.457 C 507.297 722.320, 474.448 707.702, 475.534 705.946 C 475.792 705.528, 475.183 705.401, 474.182 705.663 C 473.180 705.925, 471.774 705.433, 471.058 704.570 C 470.341 703.706, 468.855 703, 467.755 703 C 466.091 703, 465.964 702.748, 467 701.500 C 468.062 700.220, 467.778 700, 465.063 700 C 463.197 700, 462.137 699.587, 462.500 699 C 463.929 696.688, 461.114 698.388, 455.500 703.227 M 473.443 702.418 C 472.376 703.198, 471.727 704.040, 472.002 704.289 C 472.276 704.538, 473.366 703.900, 474.425 702.871 C 476.702 700.657, 476.180 700.417, 473.443 702.418 M 827 713.676 C 823.526 714.393, 822 715.861, 822 718.486 C 822 720.527, 822.588 720.773, 828.620 721.258 C 840.029 722.173, 841.083 723.818, 849.894 754.452 C 856.014 775.730, 858.241 789.098, 858.233 804.500 C 858.221 825.256, 854.685 842.947, 846.340 864 C 841.339 876.616, 839.331 880.376, 834.188 886.750 C 830.390 891.457, 827.322 892.290, 826.820 888.750 C 826.417 885.919, 826.302 885.921, 800 889.321 C 773.024 892.809, 755.179 893.978, 728.750 893.990 L 707 894 707 896.441 C 707 897.784, 706.568 899.149, 706.041 899.475 C 704.450 900.458, 700.946 897.720, 699.036 894 C 696.094 888.271, 684.485 851.040, 676.043 820.256 C 661.644 767.752, 652.021 733.528, 651.002 731.199 C 650.109 729.155, 649.384 728.922, 644.532 729.118 C 641.527 729.240, 638.617 729.619, 638.064 729.960 C 636.874 730.696, 639.841 742.362, 653.840 792 C 659.347 811.525, 665.028 832.152, 666.466 837.837 C 667.903 843.523, 671.280 855.223, 673.970 863.837 C 680.964 886.236, 683.133 895.075, 682.429 898.303 C 681.643 901.905, 680.073 901.330, 677.529 896.508 C 676.413 894.393, 674.825 892.579, 674 892.476 C 673.175 892.373, 667.634 891.983, 661.687 891.609 C 641.236 890.323, 606.131 884.904, 579.485 878.922 C 548.093 871.874, 510.810 857.928, 471.272 838.446 C 448.004 826.980, 446.988 826.116, 447.013 817.800 C 447.025 813.774, 450.064 797.325, 451.410 794 C 451.872 792.858, 450.556 792.071, 445.890 790.702 C 442.520 789.713, 439.633 789.038, 439.476 789.202 C 438.133 790.596, 431.691 814.955, 431.271 820.223 C 430.566 829.070, 431.865 831.915, 438.836 836.798 C 447.364 842.770, 488.178 862.833, 508 870.797 C 550.822 888.001, 579.200 895.935, 612.469 900.007 C 661.005 905.946, 668.706 906.458, 709 906.420 C 749.531 906.382, 772.654 904.916, 812.411 899.868 C 825.364 898.223, 829.749 897.987, 831.147 898.860 C 833.092 900.074, 839.802 900.397, 842.398 899.401 C 843.257 899.071, 844.827 897.384, 845.888 895.651 C 847.872 892.410, 861.670 851.203, 864.355 840.500 C 868.830 822.661, 870.212 792.920, 867.435 774.220 C 865.936 764.122, 855.612 726.070, 852.835 720.403 C 850.322 715.276, 846.862 713.668, 837.773 713.402 C 833.223 713.269, 828.375 713.392, 827 713.676 M 137.488 725.013 C 135.404 727.316, 135.089 732.197, 136.884 734.361 C 139.047 736.966, 147.097 740.119, 160.449 743.589 C 167.627 745.455, 173.725 746.984, 174 746.988 C 174.275 746.992, 172.025 745.501, 169 743.676 C 162.114 739.520, 149.747 730.746, 144.570 726.343 C 139.954 722.417, 139.855 722.398, 137.488 725.013 M 443.116 729.041 C 440.623 733.130, 440.381 738.671, 442.558 741.779 C 444.239 744.179, 443.612 746.449, 441.493 745.636 C 440.013 745.068, 437.986 747.108, 435.665 751.500 L 434.080 754.500 434.040 751.700 C 434.018 750.161, 434.708 747.531, 435.574 745.857 C 437.387 742.351, 436.529 740.557, 434.418 743.443 C 432.814 745.636, 432.516 754.596, 433.923 758.299 C 435.530 762.524, 437.979 762.492, 442.282 758.188 C 446.179 754.291, 446.179 754.291, 447.221 742.836 C 448.106 733.108, 448.034 730.943, 446.744 728.481 L 445.225 725.582 443.116 729.041 M 561.500 726.713 C 562.600 726.978, 563.928 727.600, 564.450 728.097 C 564.972 728.594, 565.872 728.986, 566.450 728.968 C 567.028 728.951, 566.626 728.276, 565.559 727.468 C 564.491 726.661, 562.691 726.052, 561.559 726.116 C 559.550 726.229, 559.549 726.244, 561.500 726.713 M 456.641 728.502 C 454.445 730.698, 453.103 741.144, 452.789 758.486 L 452.500 774.473 458 776.659 C 468.959 781.014, 468.587 781.114, 470.347 773.334 C 471.246 769.358, 471.810 762.736, 471.696 757.500 C 471.518 749.296, 471.744 748.087, 474.250 743.823 C 475.762 741.251, 478.376 738.068, 480.060 736.750 L 483.121 734.355 475.310 732.210 C 471.015 731.030, 465.371 729.400, 462.768 728.586 C 458.720 727.320, 457.835 727.308, 456.641 728.502 M 819.160 733.859 C 818.530 737.676, 817.738 741.520, 817.400 742.400 C 816.859 743.811, 818.172 744, 828.501 744 L 840.217 744 839.531 741.250 C 839.153 739.737, 837.866 736.025, 836.670 733 L 834.496 727.500 827.401 727.209 L 820.307 726.919 819.160 733.859 M 562 728.928 C 562 731.597, 576.431 738.086, 585.644 739.559 C 587.938 739.926, 591.897 739.567, 595.271 738.686 C 601.076 737.170, 602.864 737.315, 598.750 738.969 C 597.026 739.662, 596.909 739.888, 598.250 739.937 C 599.212 739.971, 600.014 740.563, 600.030 741.250 C 600.070 742.895, 601.533 740.320, 602.445 737 C 602.969 735.091, 602.883 734.855, 602.081 736 C 601.176 737.293, 601.029 737.259, 601.015 735.750 C 601.003 734.333, 600.095 733.997, 596.250 733.985 C 593.638 733.976, 592.044 733.623, 592.710 733.200 C 593.375 732.777, 591.575 732.371, 588.710 732.296 C 584.432 732.185, 584.003 732.313, 586.314 733.011 C 587.862 733.479, 589.703 734.339, 590.406 734.922 C 591.109 735.505, 591.905 735.762, 592.175 735.491 C 592.446 735.221, 592.667 735.603, 592.667 736.340 C 592.667 737.455, 592.207 737.451, 589.934 736.317 C 587.181 734.944, 574.551 731.339, 567.923 730.035 C 565.956 729.648, 563.818 729.006, 563.173 728.607 C 562.528 728.208, 562 728.353, 562 728.928 M 784 729.179 C 774.925 729.580, 764.278 730.188, 760.339 730.531 C 753.520 731.124, 753.118 731.300, 751.904 734.231 C 749.803 739.303, 742.118 750.107, 736.063 756.500 C 726.831 766.248, 726.845 766.302, 737.479 761.958 C 753.981 755.218, 775.395 749.196, 790.356 747.087 C 794.127 746.556, 797.354 745.980, 797.526 745.808 C 798.050 745.283, 801.232 728.889, 800.853 728.662 C 800.659 728.546, 793.075 728.779, 784 729.179 M 497.537 731.349 C 494.177 732.361, 493.458 733.074, 492.821 736.022 C 491.820 740.649, 492.426 742, 495.501 742 C 498.880 742, 504.913 744.569, 507.715 747.202 L 509.957 749.308 507.947 743.404 C 505.269 735.534, 502.832 729.983, 502.098 730.077 C 501.769 730.119, 499.716 730.691, 497.537 731.349 M 128.670 732.664 C 128.301 733.032, 128 735.475, 128 738.093 L 128 742.853 133.750 745.531 C 136.912 747.003, 146.025 750.992, 154 754.394 C 172.574 762.318, 182.513 768.888, 197.969 783.459 C 202.077 787.331, 206.520 791.757, 207.843 793.292 C 212.556 798.763, 208.965 797.118, 200.300 789.838 C 188.936 780.290, 180.966 774.223, 173.500 769.435 C 167.106 765.335, 129.960 748.707, 129.105 749.562 C 127.082 751.585, 155.289 796.105, 166.757 808.990 C 170.726 813.449, 170.778 813.472, 174.626 812.330 C 191.129 807.433, 196.904 806.091, 206.219 804.987 C 212.064 804.294, 220.208 803.943, 224.316 804.206 L 231.785 804.686 226.233 798.093 C 206.794 775.005, 196.755 764.993, 186.672 758.635 C 182.258 755.852, 171.554 752.095, 160.335 749.391 C 140.624 744.641, 135.417 742.187, 131.650 735.869 C 130.379 733.738, 129.038 732.295, 128.670 732.664 M 558.468 737.226 C 565.789 769.327, 564.599 778.919, 550.770 799.327 C 548.598 802.532, 547.011 805.344, 547.244 805.577 C 548.201 806.535, 592.954 795.831, 614.291 789.541 L 620.083 787.834 616.571 783.947 C 612.218 779.128, 608.124 771.120, 604.049 759.449 C 602.328 754.520, 600.550 749.890, 600.098 749.159 C 599.647 748.428, 594.152 746.548, 587.889 744.981 C 576.653 742.170, 569.110 739.746, 561.725 736.574 C 557.962 734.957, 557.952 734.960, 558.468 737.226 M 596 736 C 597.957 737.264, 600 737.264, 600 736 C 600 735.450, 598.763 735.007, 597.250 735.015 C 595.107 735.027, 594.831 735.245, 596 736 M 484.899 738.751 C 481.105 741.571, 477 747.727, 477 750.596 C 477 751.699, 477.800 751.104, 479.281 748.898 C 480.535 747.029, 483.169 744.632, 485.134 743.571 C 487.880 742.088, 488.724 740.989, 488.786 738.821 C 488.830 737.269, 488.784 736.017, 488.683 736.037 C 488.582 736.057, 486.880 737.279, 484.899 738.751 M 873.687 738.464 C 869.390 739.745, 865.723 740.952, 865.539 741.147 C 865.355 741.341, 866.062 744.200, 867.110 747.500 C 868.158 750.800, 870.195 759.125, 871.637 766 C 873.851 776.558, 874.277 781.257, 874.379 796.244 C 874.446 806.003, 874.624 813.991, 874.775 813.994 C 876.490 814.031, 882.082 789.867, 883.688 775.478 C 885.443 759.755, 884.815 735.940, 882.649 736.068 C 882.017 736.105, 877.984 737.184, 873.687 738.464 M 546 738.362 C 546 738.560, 547.755 742.498, 549.899 747.112 C 552.044 751.725, 554.362 758.072, 555.051 761.215 C 556.693 768.714, 557.864 767.809, 556.884 759.798 C 555.925 751.951, 553.716 745.627, 550.429 741.319 C 548.304 738.533, 546 736.994, 546 738.362 M 602.535 739.890 C 602.021 741.509, 602.339 742.531, 603.659 743.504 C 606.043 745.260, 606.508 743.848, 604.689 740.376 C 603.258 737.645, 603.248 737.642, 602.535 739.890 M 484.326 749.379 C 480.703 752.428, 479 758.060, 479 766.992 C 479 773.757, 480.354 777.105, 484.799 781.330 C 490.515 786.762, 501.147 785.635, 507.580 778.914 C 510.325 776.047, 510.500 775.367, 510.500 767.608 C 510.500 760.342, 510.181 758.870, 507.839 755.332 C 504.696 750.583, 499.436 747.808, 492.454 747.215 C 488.129 746.847, 486.967 747.157, 484.326 749.379 M 605.474 751.750 C 605.852 752.712, 606.837 755.525, 607.663 758 C 611.312 768.937, 617.182 779.262, 622.843 784.702 C 628.523 790.160, 639.467 796.284, 645.750 797.520 C 649.268 798.212, 649.583 797.664, 648.025 793.565 C 647.278 791.602, 646.349 791, 644.062 791 C 642.419 791, 638.607 790.077, 635.590 788.948 C 626.405 785.511, 618.690 775.157, 610.110 754.750 C 608.864 751.788, 607.486 750, 606.449 750 C 605.270 750, 604.986 750.509, 605.474 751.750 M 807 751.090 C 778.555 753.612, 747.989 762.467, 727.724 774.057 C 706.754 786.050, 697.111 794.438, 686.989 809.489 L 681.616 817.479 684.753 828.989 C 690.199 848.970, 691.291 850.899, 693.490 844.418 C 695.671 837.992, 723.706 813.955, 743.552 801.496 C 752.300 796.003, 754 795.248, 754 796.855 C 754 797.626, 741.549 807.681, 727.006 818.654 C 717.946 825.491, 706.474 836.104, 701.074 842.646 C 698.283 846.027, 696 849.028, 696 849.316 C 696 849.604, 698.319 850.610, 701.154 851.551 C 704.800 852.762, 710.285 853.332, 719.904 853.500 C 730.312 853.682, 734.538 854.163, 737.928 855.549 C 741.892 857.170, 743.306 857.239, 751.428 856.205 C 756.418 855.569, 768.600 853.425, 778.500 851.441 C 788.400 849.456, 796.894 847.757, 797.375 847.666 C 799.412 847.280, 798.853 849.746, 796.679 850.736 C 787.403 854.963, 748.183 862, 733.903 862 C 723.394 862, 708.820 859.400, 699.234 855.814 C 696.337 854.731, 693.560 853.992, 693.061 854.172 C 692.303 854.446, 698.552 876.430, 701.866 885.147 C 702.843 887.717, 703.002 887.754, 715.177 888.203 C 742.958 889.228, 783.872 886.489, 816.130 881.444 C 824.727 880.100, 832.034 879, 832.369 879 C 833.623 879, 840.975 862.967, 844.360 852.849 C 849.943 836.163, 852.331 821.893, 852.369 805 C 852.400 791.201, 850.298 774.719, 848.043 771.069 C 847.366 769.974, 844.763 769.942, 833.360 770.889 C 816.683 772.275, 806.472 774.437, 788.814 780.322 C 781.491 782.763, 775.119 784.536, 774.654 784.262 C 770.955 782.083, 797.262 772.130, 816.380 768.475 C 820.846 767.622, 829.554 766.647, 835.731 766.310 L 846.962 765.696 846.350 763.098 C 846.013 761.669, 845.009 758.250, 844.119 755.500 L 842.500 750.500 829.500 750.374 C 822.350 750.304, 812.225 750.627, 807 751.090 M 904.635 752.781 C 903.849 754.054, 902.675 773.558, 903.427 772.858 C 904.057 772.272, 906.987 756.175, 906.996 753.250 C 907 751.870, 905.396 751.551, 904.635 752.781 M 490.420 756.145 C 484.930 758.809, 483.213 768.304, 487.455 772.545 C 492.191 777.281, 501.823 774.827, 503.416 768.478 C 504.328 764.847, 502.331 758.345, 499.749 756.537 C 497.274 754.803, 493.510 754.645, 490.420 756.145 M 912.006 759.165 C 911.392 761.549, 910.252 765.525, 909.472 768 C 907.849 773.151, 901 799.593, 901 800.707 C 901 801.113, 900.245 800.367, 899.322 799.050 C 897.658 796.674, 897.616 796.740, 893.972 807.577 C 891.951 813.585, 889.920 819.400, 889.458 820.500 C 888.944 821.724, 889.898 821.142, 891.919 819 C 893.734 817.075, 894.774 816.400, 894.229 817.500 C 893.684 818.600, 892.228 821.750, 890.992 824.500 C 885.768 836.130, 878.920 849.165, 875.168 854.624 C 872.955 857.844, 871.381 860.708, 871.671 860.989 C 872.654 861.944, 881.182 851.615, 888.140 841.040 C 896.570 828.228, 907.183 807.535, 913.332 791.921 C 918.877 777.841, 925.089 757.740, 924.170 756.852 C 923.802 756.495, 921.165 755.894, 918.312 755.516 L 913.123 754.829 912.006 759.165 M 254 759.215 C 254 761.740, 276.730 780.788, 297.042 795.285 L 300.944 798.071 301.580 795.538 C 301.930 794.144, 301.973 792.373, 301.677 791.600 C 301.081 790.046, 287.841 780.436, 278.500 774.777 C 275.200 772.777, 268.949 768.184, 264.610 764.571 C 256.954 758.195, 254 756.704, 254 759.215 M 445.931 764.680 C 445.371 766.155, 444.645 769.417, 444.318 771.930 C 443.990 774.444, 443.351 777.228, 442.897 778.118 C 442.214 779.455, 444.106 780.627, 453.792 784.868 C 460.239 787.691, 465.848 790, 466.257 790 C 466.666 790, 467 789.156, 467 788.124 C 467 786.819, 464.879 785.133, 460.032 782.586 C 456.199 780.572, 451.663 777.746, 449.952 776.306 C 446.935 773.768, 446.861 773.509, 447.518 767.844 C 448.242 761.603, 447.593 760.309, 445.931 764.680 M 246.595 768.250 C 240.613 778.462, 239.706 784.808, 243.612 789.124 C 246.038 791.804, 246.698 791.519, 249.099 786.750 C 250.276 784.413, 252.761 780.361, 254.620 777.748 C 256.479 775.134, 258 772.638, 258 772.201 C 258 771.251, 250.705 764, 249.750 764 C 249.384 764, 247.964 765.913, 246.595 768.250 M 493 765.559 C 493 766.416, 493.450 766.840, 494 766.500 C 494.550 766.160, 495 765.459, 495 764.941 C 495 764.423, 494.550 764, 494 764 C 493.450 764, 493 764.702, 493 765.559 M 473.669 776.100 C 472.899 778.975, 475.204 782.493, 479.990 785.750 C 484.521 788.834, 485.852 788.588, 482.031 785.373 C 480.314 783.928, 477.875 780.710, 476.610 778.223 C 474.467 774.005, 474.268 773.862, 473.669 776.100 M 708.500 775.673 C 705.680 776.477, 696.414 777.360, 687.250 777.697 C 673.239 778.213, 671.005 778.517, 671.037 779.898 C 671.106 782.844, 678.735 808.412, 679.624 808.674 C 680.106 808.815, 682.461 806.023, 684.858 802.469 C 690.692 793.816, 699.793 784.907, 708.914 778.919 C 716.765 773.766, 716.709 773.333, 708.500 775.673 M 258.711 782.772 C 251.763 793.364, 250.479 795.887, 251.540 796.860 C 253.152 798.337, 281.806 816.848, 285.186 818.596 C 288.869 820.501, 289.280 820.165, 293.628 811.688 C 298.633 801.932, 298.818 802.749, 290.205 796.627 C 285.967 793.614, 278.141 787.751, 272.812 783.596 L 263.125 776.043 258.711 782.772 M 426 777.480 C 426 778.276, 434.155 782.178, 434.694 781.640 C 434.969 781.365, 433.368 780.208, 431.137 779.070 C 426.972 776.945, 426 776.644, 426 777.480 M 637.250 778.737 C 634.362 778.939, 632 779.476, 632 779.929 C 632 781.034, 641.334 785, 643.935 785 C 645.071 785, 646 784.842, 646 784.649 C 646 783.307, 643.678 778.036, 643.152 778.185 C 642.793 778.287, 640.138 778.535, 637.250 778.737 M 423.218 784.240 C 423.895 790.245, 428.165 804.252, 429.027 803.292 C 430.025 802.180, 434.004 789.940, 433.980 788.056 C 433.969 787.200, 431.434 785.023, 428.347 783.218 L 422.733 779.936 423.218 784.240 M 223 781.397 C 223 781.615, 225.889 786.003, 229.420 791.147 C 237.004 802.196, 244.265 809.544, 252.441 814.441 C 258.696 818.188, 262.637 819.402, 257.500 816 C 255.850 814.907, 254.887 814.010, 255.361 814.007 C 255.834 814.003, 255.159 813.115, 253.861 812.033 C 246.533 805.929, 263.437 814.434, 273.500 821.915 C 288.489 833.058, 296.492 838.678, 304.500 843.686 C 313.574 849.360, 335.194 860.821, 343.771 864.504 L 349.500 866.964 341.500 859.429 C 334.174 852.530, 321.903 842.886, 303.114 829.263 C 296.099 824.177, 295.820 824.072, 293.434 825.635 C 289.670 828.102, 286.552 826.910, 272.941 817.798 C 266.099 813.217, 256.754 807.061, 252.175 804.117 C 246.346 800.370, 242.334 796.837, 238.795 792.334 C 235.435 788.058, 232.119 785.081, 228.904 783.451 C 224.101 781.018, 223 780.634, 223 781.397 M 511.917 782.512 C 511.112 783.317, 507.764 785.443, 504.477 787.238 C 501.189 789.032, 498.426 791.175, 498.336 792 C 497.661 798.200, 496.654 801.129, 494.738 802.471 C 492.192 804.254, 493.080 804.383, 498.168 802.970 C 502.859 801.667, 507.428 796.461, 511.140 788.188 C 514.179 781.414, 514.364 780.065, 511.917 782.512 M 470.011 786.250 C 471.101 788.038, 471.994 790.486, 471.996 791.691 C 472 794.172, 470.116 795.806, 469.116 794.188 C 468.273 792.823, 457.983 788.009, 456 788.052 C 454.033 788.094, 459.295 790.931, 470.836 796.050 C 481.332 800.705, 488.668 801.516, 492.109 798.401 C 494.104 796.596, 494.697 793, 493 793 C 492.450 793, 491.785 792.954, 491.523 792.899 C 484.724 791.457, 481.606 790.261, 476.057 786.965 C 472.387 784.784, 469.079 783, 468.707 783 C 468.334 783, 468.921 784.462, 470.011 786.250 M 604.500 796.550 C 586.875 801.429, 551.377 810, 548.793 810 C 545.836 810, 541.226 814.918, 537.049 822.528 C 532.319 831.147, 527.555 834.958, 520.518 835.751 C 518.033 836.031, 516 836.593, 516 837.001 C 516 841.448, 605.646 836.186, 644.781 829.441 C 655.087 827.665, 657 827.136, 657 826.062 C 657 824.296, 651.024 804.630, 650.288 803.974 C 649.855 803.588, 647.250 802.733, 644.500 802.073 C 641.750 801.414, 635.792 798.878, 631.260 796.438 C 626.727 793.997, 622.452 792.027, 621.760 792.060 C 621.067 792.093, 613.300 794.114, 604.500 796.550 M 538.690 803.899 C 531.779 810.422, 516.900 822.201, 509.767 826.797 C 506.605 828.833, 504.014 830.778, 504.009 831.118 C 503.992 832.336, 512.392 832.831, 517.889 831.937 C 524.974 830.784, 527.661 828.761, 531.885 821.399 C 533.746 818.155, 536.626 813.250, 538.283 810.500 C 539.940 807.750, 542.174 804.038, 543.247 802.250 C 544.320 800.462, 544.901 799, 544.539 799 C 544.177 799, 541.545 801.205, 538.690 803.899 M 795 807.687 C 790.875 810.186, 776.035 818.502, 762.023 826.166 C 737.379 839.646, 733 842.360, 733 844.155 C 733 846.642, 736.740 844.912, 767.500 828.194 C 791.205 815.311, 805.640 805.844, 804.468 803.948 C 803.609 802.558, 803.199 802.719, 795 807.687 M 304.640 812.174 C 304.285 815.570, 303.343 819.069, 302.546 819.949 C 301.249 821.383, 302.260 822.343, 312.299 829.213 C 328.382 840.218, 336.890 847.560, 360 870.373 C 372.245 882.460, 382.085 891.346, 384.436 892.440 C 391.199 895.585, 403.676 894.175, 428 887.517 C 439.275 884.430, 457.473 879.650, 468.441 876.895 C 479.408 874.140, 489.083 871.492, 489.941 871.010 C 491.165 870.321, 490.534 869.694, 487 868.088 C 484.525 866.964, 481.684 866.034, 480.686 866.022 C 479.688 866.010, 472.488 867.562, 464.686 869.470 C 448.031 873.544, 433.208 876.117, 412.500 878.526 C 390.420 881.095, 392.888 882.299, 367.500 856.571 C 355.950 844.866, 341.775 831.360, 336 826.556 C 325.216 817.587, 308.569 806, 306.467 806 C 305.755 806, 305.028 808.455, 304.640 812.174 M 458.500 819.458 C 463.526 821.627, 466.769 822.125, 462.500 820.072 C 460.300 819.014, 457.825 818.152, 457 818.156 C 456.175 818.160, 456.850 818.746, 458.500 819.458 M 345.500 827.084 C 349.350 830.491, 361.725 842.675, 373 854.159 L 393.500 875.040 402.006 875.020 C 417.800 874.983, 442.586 871.341, 465.818 865.644 C 476.384 863.053, 476.439 863.406, 464.474 857.020 L 456.448 852.736 428.474 858.377 C 413.088 861.480, 399.105 864.014, 397.399 864.009 C 393.816 863.999, 386.566 858.841, 369.500 844.163 C 357.959 834.237, 344.188 823.627, 340.609 821.904 C 339.449 821.346, 341.650 823.677, 345.500 827.084 M 471 824 C 471.825 824.533, 473.175 824.945, 474 824.914 C 474.989 824.878, 474.819 824.567, 473.500 824 C 470.751 822.819, 469.172 822.819, 471 824 M 458.817 825.280 C 460.435 827.229, 482.665 838.139, 489.675 840.424 C 493.992 841.831, 495.194 841.896, 496.925 840.815 C 498.066 840.102, 498.993 839.290, 498.984 839.009 C 498.957 838.118, 489.746 834.182, 482.500 831.966 C 478.650 830.788, 472.575 828.775, 469 827.491 C 458.365 823.673, 457.290 823.440, 458.817 825.280 M 486 828.362 C 486 829.022, 497.102 832.231, 497.614 831.719 C 497.833 831.500, 496.097 830.770, 493.756 830.096 C 491.415 829.423, 488.712 828.646, 487.750 828.369 C 486.788 828.092, 486 828.089, 486 828.362 M 652.806 833.527 C 651.900 834.433, 626.405 837.864, 605 839.961 C 563.385 844.037, 527.043 845.120, 515.187 842.636 C 509.386 841.420, 508.556 841.471, 504.941 843.259 C 502.778 844.329, 501.237 845.574, 501.516 846.026 C 502.909 848.280, 550.790 865.914, 567 870.142 C 576.854 872.713, 579.573 873.051, 586 872.500 C 598.965 871.390, 615.589 867.691, 642.935 859.832 C 658.483 855.364, 664 853.111, 664 851.230 C 664 850.335, 662.861 845.867, 661.468 841.302 C 659.081 833.478, 658.774 833, 656.135 833 C 654.594 833, 653.096 833.237, 652.806 833.527 M 721.500 858 C 725.704 859.070, 737.340 859.070, 734 858 C 732.625 857.560, 728.575 857.208, 725 857.218 C 720.031 857.232, 719.207 857.416, 721.500 858 M 879.500 862.201 C 876.200 864.955, 872.595 867.949, 871.490 868.854 C 870.384 869.759, 867.909 871.299, 865.990 872.276 C 862.809 873.894, 862.747 874.002, 865.296 873.495 C 869.122 872.734, 870.261 873.636, 868.853 876.311 C 867.241 879.372, 866.134 879.896, 862.514 879.308 C 859.463 878.813, 859.282 878.989, 857.178 884.487 C 855.980 887.617, 855 890.353, 855 890.568 C 855 892.246, 868.938 883.553, 878 876.222 C 886.114 869.659, 889.698 862.557, 886.779 858.827 C 885.634 857.365, 884.871 857.719, 879.500 862.201 M 662.943 859.390 C 661.775 860.559, 620.632 872.221, 602.500 876.524 C 597.130 877.798, 635.825 883.991, 661 885.887 C 667.875 886.405, 673.691 886.638, 673.925 886.405 C 674.159 886.173, 672.577 880.029, 670.408 872.752 C 667.766 863.884, 665.960 859.423, 664.934 859.226 C 664.092 859.064, 663.196 859.137, 662.943 859.390 M 497 877.088 C 489.627 877.902, 448.799 887.132, 449.494 887.828 C 450.558 888.891, 517 882.163, 517 880.992 C 517 880.231, 506.853 875.948, 505.481 876.130 C 504.941 876.201, 501.125 876.632, 497 877.088" stroke="none" fill="black" fill-rule="evenodd"/>
</svg>