<svg xmlns="http://www.w3.org/2000/svg" width="1024" height="1024" viewBox="0 0 1024 1024" version="1.1">
	<path d="M 343 64.461 C 342.175 64.658, 338.160 65.365, 334.078 66.031 C 304.933 70.789, 287.485 84.014, 262.875 120 C 249.021 140.258, 246.199 142.397, 223.830 149.612 C 215.091 152.431, 212.603 153.689, 210.080 156.562 C 206.332 160.831, 206.169 163.949, 209.130 174.739 C 210.835 180.952, 211.145 184.130, 210.684 190.676 C 210.038 199.841, 209.209 198.065, 220.836 212.405 C 227.623 220.776, 229.084 221.774, 243 227.539 C 252.460 231.458, 255.476 232.272, 260 232.131 C 272.085 231.752, 274.966 229.200, 278.451 215.787 C 281.832 202.774, 287.564 187.804, 294.316 174.355 C 305.999 151.085, 319.184 142.500, 343 142.656 C 370.155 142.835, 402.402 156.255, 421.145 175.177 C 426.361 180.443, 428.868 184.101, 432.804 192.193 C 442.494 212.116, 448.051 234.571, 448.348 255 C 448.486 264.568, 448.165 266.579, 444.723 277.656 C 442.646 284.342, 439.938 294.467, 438.706 300.156 L 436.466 310.500 431.983 311.826 C 429.517 312.555, 424.088 314.467, 419.919 316.074 L 412.337 318.997 406.105 316.465 C 392.618 310.984, 384.118 309.622, 363 309.559 C 342.536 309.497, 337.066 310.257, 322.661 315.163 C 314.676 317.882, 299.906 325.199, 293.316 329.701 L 288.131 333.242 278.213 331.978 C 263.417 330.093, 241.957 331.166, 230.371 334.371 C 213.034 339.167, 193.408 349.221, 182.748 358.766 C 180.412 360.859, 174.900 365.221, 170.500 368.461 C 151.309 382.593, 132.429 404.653, 120.102 427.350 C 114.613 437.457, 109.767 448.728, 104.989 462.500 C 95.895 488.713, 92.297 505.096, 91.043 526 C 90.520 534.724, 89.019 546.964, 87.610 554 C 82.825 577.885, 81.819 586.985, 81.279 611.291 C 80.687 637.896, 81.544 648.893, 86.066 672.719 C 97.266 731.729, 116.906 778.467, 147.259 818.340 C 155.647 829.359, 172.648 846.778, 183.397 855.367 L 192.293 862.476 180.897 863.648 C 167.405 865.036, 161.362 866.248, 150.200 869.802 C 141.409 872.601, 138 874.881, 138 877.961 C 138 880.832, 142.829 881.827, 158.500 882.189 C 166.200 882.366, 171.375 882.289, 170 882.017 C 168.625 881.745, 171.100 881.252, 175.500 880.921 C 179.900 880.590, 174.950 880.519, 164.500 880.763 C 144.479 881.231, 139.559 880.530, 140.181 877.301 C 140.360 876.370, 141.855 874.825, 143.503 873.868 C 149.114 870.610, 170.452 865.886, 185.678 864.532 C 192.071 863.963, 193.383 864.164, 197.678 866.367 C 200.330 867.727, 203.400 869.551, 204.500 870.420 C 206.487 871.990, 206.487 872.010, 204.534 873.518 C 202.684 874.947, 202.760 874.998, 205.816 874.387 C 208.380 873.874, 211.047 874.633, 218.471 877.987 C 228.867 882.684, 231.151 885, 225.385 885 C 221.140 885, 221.149 887.323, 225.396 887.823 L 228.138 888.146 225.819 890.175 C 223.822 891.922, 222.641 892.118, 217.323 891.582 C 213.926 891.239, 209.539 890.287, 207.573 889.466 C 204.625 888.234, 204 888.211, 204 889.334 C 204 890.082, 205.013 891.166, 206.250 891.741 C 209.036 893.038, 209.210 892.978, 192.578 896.467 C 167.116 901.807, 150 910.341, 150 917.696 C 150 920.975, 152.415 925.386, 155.213 927.220 C 158.955 929.672, 170.824 933.637, 181.021 935.841 C 207.421 941.548, 237.805 944.469, 292.043 946.513 C 314.294 947.352, 337.225 948.479, 343 949.018 C 348.775 949.557, 360.925 950.437, 370 950.974 C 402.094 952.874, 416.804 954.308, 413 955.164 C 406.676 956.588, 371.766 957.705, 358.500 956.908 C 346.320 956.175, 329.092 953.702, 326.605 952.329 C 325.997 951.993, 326.175 952.428, 327 953.296 C 331.093 957.600, 370.166 960.259, 397.225 958.075 C 405.626 957.396, 417.887 956.202, 424.470 955.421 C 440.297 953.542, 439.755 953.484, 441.349 957.250 C 443.063 961.300, 445.149 963.168, 451.500 966.337 C 458.752 969.956, 468.846 971.769, 492 973.614 C 521.143 975.935, 559.342 974.152, 599.898 968.577 C 621.260 965.640, 642.085 961.316, 643.840 959.452 C 644.203 959.067, 643.600 959.014, 642.500 959.334 C 638.980 960.359, 620.811 963.877, 611 965.432 C 574.340 971.245, 525.820 974.111, 496.580 972.192 C 477.318 970.927, 464.038 969.054, 455.350 966.376 C 448.662 964.315, 443 959.698, 443 956.305 C 443 954.046, 443.189 953.912, 444.654 955.128 C 445.563 955.882, 446.454 956.408, 446.633 956.296 C 446.812 956.183, 449.412 957.215, 452.410 958.588 C 466.385 964.985, 499.637 967.885, 538 966.052 C 565.456 964.740, 582.245 962.912, 580.733 961.400 C 580.503 961.170, 574.732 961.633, 567.908 962.430 C 538.581 965.853, 485.902 965.367, 467.914 961.508 C 451.687 958.026, 446.460 955.678, 445.807 951.576 C 445.529 949.836, 446.075 949.674, 451.500 949.885 C 454.800 950.013, 461.550 950.593, 466.500 951.174 C 471.450 951.755, 478.650 952.334, 482.500 952.460 C 492.424 952.786, 507.226 953.916, 516 955.017 C 520.125 955.535, 527.325 956.050, 532 956.163 C 542.329 956.411, 583.025 955.103, 584.016 954.490 C 585.021 953.869, 603.607 952.715, 603 953.311 C 602.725 953.581, 599.125 954.952, 595 956.357 C 590.875 957.763, 588.175 958.927, 589 958.944 C 590.902 958.985, 604.634 955.562, 608.168 954.166 C 609.635 953.586, 611.660 953.129, 612.668 953.150 C 617.153 953.245, 651.182 951.983, 657.500 951.488 C 661.350 951.186, 666.525 950.306, 669 949.531 C 679.684 946.189, 693.492 942.999, 697.339 942.985 C 699.926 942.975, 701.006 942.656, 700.194 942.141 C 699.437 941.661, 704.015 941.038, 711.101 940.657 C 724.361 939.944, 734.542 939.960, 731.750 940.689 C 730.788 940.941, 730 941.572, 730 942.092 C 730 943.309, 733.985 942.302, 738.714 939.891 C 741.703 938.367, 744.614 938, 753.711 938 C 760.570 938, 765 938.392, 765 939 C 765 939.550, 764.145 940, 763.099 940 C 762.054 940, 758.791 941.121, 755.849 942.490 C 748.746 945.797, 750.722 945.656, 760.770 942.139 C 765.266 940.566, 768.620 938.929, 768.222 938.502 C 767.305 937.517, 790.004 938.718, 797.705 940.063 C 811.434 942.460, 818.537 946.891, 814.738 950.690 C 810.532 954.897, 787.344 958.420, 730.500 963.488 C 708.500 965.449, 683.331 967.738, 674.569 968.574 C 657.679 970.185, 603.887 977.771, 603.016 978.664 C 602.361 979.335, 608.428 978.642, 640 974.439 C 665.868 970.995, 688.774 968.592, 706 967.514 C 711.225 967.187, 719.325 966.499, 724 965.985 C 728.675 965.470, 738.575 964.564, 746 963.972 C 784.887 960.867, 808.712 956.817, 814.807 952.275 C 819.989 948.414, 818.353 945.063, 809.340 941.074 C 805.649 939.440, 792.328 937, 787.101 937 C 779.433 937, 780.247 935.502, 788.930 933.637 C 798.303 931.622, 808.737 927.584, 811.486 924.907 C 813.796 922.657, 812.884 920.313, 808.902 918.265 C 806.550 917.055, 806.573 917.027, 810 916.899 C 811.925 916.827, 812.712 916.562, 811.750 916.311 C 808.809 915.542, 809.803 914.001, 813.250 913.985 C 815.498 913.974, 816.074 913.699, 815.118 913.094 C 813.534 912.091, 814.764 911.576, 821.500 910.421 C 823.700 910.043, 826.305 908.894, 827.289 907.867 C 828.273 906.840, 830.374 906, 831.957 906 C 835.646 906, 838.143 905.041, 837.435 903.895 C 837.131 903.403, 838.596 902.947, 840.691 902.882 C 844.454 902.765, 844.464 902.754, 841.500 902 L 838.500 901.237 841.250 900.952 C 842.763 900.795, 844.788 900.629, 845.750 900.583 C 846.712 900.538, 847.725 900.251, 848 899.946 C 848.275 899.642, 850.525 898.914, 853 898.329 C 875.348 893.045, 903.995 883.214, 917.117 876.326 C 924.764 872.312, 933.670 863.277, 934.537 858.654 C 936.061 850.530, 932.345 844.130, 923 838.784 C 912.842 832.974, 885.246 826.038, 870.001 825.464 L 859.500 825.069 870.500 826.445 C 896.473 829.695, 919.899 836.759, 927.556 843.650 C 933.708 849.186, 934.898 857.039, 930.490 863.013 C 924.484 871.154, 907.300 879.838, 884 886.509 C 877.125 888.477, 870.118 890.518, 868.429 891.044 C 864.643 892.223, 859 892.294, 859 891.164 C 859 890.704, 861.736 889.567, 865.080 888.637 C 881.869 883.970, 904.790 871.883, 914.617 862.516 C 918.881 858.451, 919.976 856.773, 919.884 854.442 C 919.818 852.756, 919.573 852.247, 919.311 853.250 C 918.753 855.386, 917.024 855.486, 914.441 853.532 C 913.374 852.724, 911.825 852.069, 911 852.076 C 910.175 852.083, 911.158 852.964, 913.185 854.035 C 917.350 856.235, 918.167 857.164, 917.184 858.582 C 915.233 861.395, 901.224 871, 899.073 871 C 898.626 871, 897.715 869.055, 897.050 866.679 C 894.913 859.046, 889.065 854.577, 871.029 846.793 C 860.857 842.403, 861.503 843.658, 872 848.680 C 889.443 857.025, 896 862.776, 896 869.729 C 896 872.363, 895.284 873.103, 890.017 875.910 C 883.605 879.328, 869.729 884.386, 864 885.394 C 861.334 885.863, 861.012 885.787, 862.648 885.075 C 865.943 883.641, 866.674 881.793, 863.645 882.553 C 861.314 883.138, 861.151 882.957, 861.504 880.168 C 861.905 877.002, 860.832 875.543, 857.500 874.724 C 855.612 874.260, 855.620 874.226, 857.643 874.116 C 858.822 874.052, 860.036 873.348, 860.342 872.551 C 860.719 871.569, 860.418 871.286, 859.406 871.674 C 858.144 872.159, 858.172 871.707, 859.592 868.729 C 863.552 860.425, 856.387 853.213, 837 845.984 C 831.606 843.973, 831.474 843.377, 835.792 840.519 C 839.693 837.938, 839.989 837.896, 846.154 839.076 C 849.644 839.744, 853.715 840.900, 855.200 841.645 C 858.531 843.316, 859 843.329, 858.998 841.750 C 858.997 840.865, 860.822 840.550, 865.248 840.671 C 869.408 840.784, 867.552 840.372, 859.706 839.438 C 853.219 838.666, 846.482 837.664, 844.735 837.211 L 841.560 836.388 847.530 831.992 C 861.479 821.719, 879.854 801.094, 893.961 779.875 C 921.287 738.774, 938.856 687.144, 946.153 626.500 C 947.892 612.051, 947.591 575.244, 945.608 559.737 C 943.481 543.106, 940.605 528.358, 937.452 517.907 C 936.057 513.283, 933.560 504.100, 931.904 497.500 C 926.977 477.872, 923.150 467.322, 915.325 451.794 C 903.418 428.167, 892.360 412.618, 875.034 395.143 C 854.128 374.057, 830.742 359.813, 807.485 354.002 C 800.013 352.135, 797.490 350.957, 792.500 347.007 C 775.128 333.253, 757.463 324.882, 736.500 320.468 C 725.606 318.174, 702.412 317.423, 689.550 318.947 L 679.200 320.174 672.350 316.974 C 647.397 305.318, 619.794 302.855, 596.757 310.230 C 590.108 312.359, 589.913 312.364, 582.757 310.617 C 569.725 307.434, 571 309.857, 570.997 288.271 C 570.994 265.648, 569.887 255.693, 565.436 238.243 C 556.971 205.058, 540.687 173.588, 516.410 143.500 C 497.197 119.688, 473.864 101.205, 445 86.934 C 413.165 71.193, 390.626 65.096, 362 64.479 C 352.375 64.271, 343.825 64.263, 343 64.461 M 344.084 74.084 C 315.626 77.769, 298.859 87.303, 280.918 110 C 276.246 115.910, 269.202 126.181, 271.928 123.108 C 273.095 121.793, 274.336 121.003, 274.686 121.352 C 275.568 122.234, 272.003 126, 270.286 126 C 269.514 126, 269.136 126.412, 269.447 126.915 C 269.758 127.418, 269.657 127.980, 269.223 128.165 C 268.788 128.349, 266.302 131.289, 263.698 134.698 C 255.558 145.353, 246.721 151.036, 227.500 157.977 C 215.090 162.458, 215.204 162.301, 217.844 171.197 C 219.036 175.214, 220.346 181.143, 220.756 184.373 L 221.500 190.246 228.190 183.112 C 231.870 179.188, 239.829 171.595, 245.877 166.239 C 252.063 160.760, 260.728 151.691, 265.686 145.505 C 280.902 126.523, 290.456 118.309, 307 109.985 C 321.763 102.557, 336.901 99.060, 354.812 98.940 C 368.540 98.848, 375.571 99.854, 390.506 104.047 C 419.582 112.208, 449.421 128.826, 471.418 149.107 C 491.114 167.266, 512.195 198.246, 522.670 224.427 C 526.290 233.474, 533 258.225, 533 262.532 C 533 263.825, 533.419 265.141, 533.930 265.457 C 534.491 265.803, 534.714 261.750, 534.492 255.266 C 533.759 233.912, 524.685 205.832, 511.922 185.426 C 497.598 162.526, 475.986 138.796, 457.174 125.316 C 437.730 111.383, 406.022 97.747, 380.500 92.341 C 371.442 90.422, 345.812 90.167, 336.500 91.903 C 311.043 96.648, 289.369 106.208, 279.632 116.985 C 277.549 119.291, 275.542 120.874, 275.172 120.503 C 274.803 120.132, 277.875 116.591, 282 112.636 C 290.439 104.544, 297.953 100.465, 315.013 94.720 C 342.632 85.417, 364.755 84.678, 391.500 92.164 C 412.544 98.054, 439.293 109.752, 453.434 119.249 C 464.560 126.722, 476.627 136.857, 485.609 146.274 C 497.132 158.355, 506.866 169.476, 510.316 174.500 C 511.826 176.700, 514.373 180.028, 515.976 181.896 C 518.213 184.503, 518.760 184.800, 518.335 183.174 C 518.031 182.009, 516.706 179.895, 515.391 178.477 C 514.076 177.058, 513 175.449, 513 174.900 C 513 173.821, 506.192 162.819, 505.017 162 C 504.623 161.725, 504.120 160.968, 503.900 160.318 C 503.101 157.956, 488.630 141.897, 478.572 132.210 C 466.248 120.339, 453.418 111.200, 438.500 103.666 C 418.328 93.478, 399.620 87.053, 378 82.889 C 374.425 82.200, 364.750 81.644, 356.500 81.654 C 344.491 81.667, 339.705 82.109, 332.500 83.868 C 316.409 87.796, 302.527 93.367, 295.845 98.578 C 294.005 100.013, 294.525 99.342, 297 97.087 C 303.736 90.950, 325.075 81.692, 328.131 83.581 C 328.818 84.005, 329.044 83.880, 328.674 83.281 C 326.898 80.408, 355.102 78.217, 371.886 79.925 C 403.953 83.187, 447.425 101.588, 473.232 122.822 C 484.803 132.344, 509.409 158.061, 519.460 171.138 C 522.229 174.741, 522.503 174.874, 523.211 172.958 C 523.889 171.126, 522.124 166.820, 519.949 165 C 519.620 164.725, 518.260 162.651, 516.926 160.391 C 511.663 151.476, 498.549 136.465, 487.182 126.345 C 469.703 110.782, 439.536 93.099, 416.116 84.687 C 390.301 75.415, 363.863 71.523, 344.084 74.084 M 327 107.463 C 313.589 110.986, 300.935 117.492, 292.547 125.178 C 288.764 128.644, 281.304 137.334, 275.969 144.490 C 266.156 157.651, 258.536 165.536, 242.814 178.801 C 238.054 182.816, 232.993 187.631, 231.568 189.500 L 228.975 192.899 231.176 194.950 C 234.106 197.679, 234.746 197.571, 240 193.456 C 245.513 189.137, 271 164.050, 271 162.942 C 271 162.502, 271.589 161.548, 272.309 160.821 C 273.029 160.095, 276.683 155, 280.429 149.500 C 292.724 131.450, 304.357 122.307, 322 116.829 C 328.411 114.838, 331.532 114.510, 343.500 114.567 C 359.157 114.642, 370.794 116.977, 389 123.698 C 429.152 138.518, 458.999 161.480, 476.484 191 C 478.602 194.575, 481.345 199.119, 482.581 201.098 C 502.746 233.396, 510.682 280.584, 503.056 322.846 C 501.930 329.086, 500.361 341.236, 499.569 349.846 C 498.777 358.456, 497.166 369.929, 495.990 375.342 C 494.814 380.755, 494.016 385.350, 494.218 385.552 C 494.420 385.753, 498.227 386.222, 502.679 386.594 L 510.772 387.269 508.854 378.384 C 507.572 372.444, 506.916 365.357, 506.876 357 C 506.824 346.373, 507.224 343.001, 509.544 334.500 C 516.591 308.679, 518.515 285.755, 515.975 257.865 C 515.255 249.964, 514.629 242.530, 514.583 241.345 C 514.537 240.161, 514.248 239.347, 513.941 239.537 C 513.633 239.727, 512.588 235.521, 511.618 230.191 C 509.369 217.833, 507.152 211.834, 500.470 200.024 C 491.052 183.377, 478.095 166.025, 466.043 153.918 C 446.440 134.224, 415.192 117.024, 384.168 108.848 C 373.701 106.090, 370.647 105.732, 354.500 105.371 C 337.786 104.997, 335.822 105.146, 327 107.463 M 248.500 151.859 C 245.750 153.421, 239 156.379, 233.500 158.432 C 219.725 163.573, 219.108 163.849, 221.200 163.932 C 225.772 164.114, 250.408 153.624, 253.140 150.332 C 254.687 148.467, 254.174 148.636, 248.500 151.859 M 521 171 C 521 171.550, 521.477 172, 522.059 172 C 522.641 172, 522.840 171.550, 522.500 171 C 522.160 170.450, 521.684 170, 521.441 170 C 521.198 170, 521 170.450, 521 171 M 525.070 175.191 C 525.032 176.671, 525.450 178.160, 526 178.500 C 527.194 179.238, 527.194 177.278, 526 174.500 C 525.233 172.714, 525.133 172.788, 525.070 175.191 M 528.459 180.067 C 528.096 180.653, 528.014 181.348, 528.276 181.610 C 528.538 181.872, 529.019 181.392, 529.345 180.543 C 530.021 178.781, 529.445 178.471, 528.459 180.067 M 529.369 183.480 C 528.543 185.633, 529.214 186.109, 530.740 184.452 C 531.528 183.597, 531.617 182.881, 530.983 182.489 C 530.435 182.151, 529.708 182.596, 529.369 183.480 M 457.982 193.451 C 458.494 194.800, 460.011 197.642, 461.353 199.767 C 468.627 211.290, 478.038 233.942, 480.607 246.110 C 482.749 256.255, 483.682 297.430, 482.032 309 C 480.507 319.698, 475.660 341.170, 472.551 351 C 468.496 363.822, 466.037 369.249, 460.894 376.718 C 456.077 383.714, 453 389.710, 453 392.099 C 453 393.683, 458.263 392.716, 464.266 390.027 C 468.658 388.060, 469.339 387.248, 472.930 379.696 C 478.320 368.362, 482 359.355, 482 357.499 C 482 356.640, 482.683 355.675, 483.518 355.355 C 484.352 355.035, 484.939 354.261, 484.822 353.636 C 484.506 351.958, 486.006 348, 486.958 348 C 487.411 348, 487.990 346.538, 488.245 344.750 C 488.500 342.962, 490.628 334.300, 492.973 325.500 C 497.048 310.207, 497.259 308.707, 497.747 291.536 C 498.665 259.272, 493.495 237.047, 479.741 214.125 C 474.849 205.974, 466.258 196.289, 460.779 192.750 C 457.216 190.448, 456.872 190.534, 457.982 193.451 M 460 216.413 C 460 216.706, 461.085 223.145, 462.411 230.722 C 467.987 262.590, 468 281.507, 462.471 317.223 C 456.950 352.877, 454.518 358.163, 438.690 368.895 C 430.394 374.520, 427.585 377.309, 426 381.491 C 424.965 384.220, 425.112 384.679, 427.683 386.736 C 429.232 387.976, 431.085 388.992, 431.800 388.995 C 432.514 388.998, 434.539 389.757, 436.300 390.682 C 438.060 391.608, 440.175 392.460, 441 392.576 C 441.825 392.692, 443.873 393.098, 445.551 393.479 C 448.197 394.079, 448.760 393.822, 449.801 391.538 C 450.460 390.090, 451 388.310, 451 387.581 C 451 386.853, 453.229 382.842, 455.953 378.669 C 462.470 368.686, 463.710 366.190, 466.459 357.531 C 470.036 346.259, 475.990 316.553, 478.070 299.598 C 480.864 276.827, 475.296 243.519, 465.403 223.824 C 462.516 218.078, 460 214.626, 460 216.413 M 457.504 236 C 459.934 266.740, 459.215 282.553, 454.506 302 C 453.241 307.225, 451.463 315.550, 450.555 320.500 C 447.675 336.196, 444.498 345.153, 439.996 350.267 C 436.175 354.608, 427.152 359.908, 421 361.425 C 419.625 361.764, 421.216 360.695, 424.537 359.049 C 435.476 353.627, 439.578 349.033, 443.776 337.500 C 444.377 335.850, 446.510 326.400, 448.516 316.500 C 450.522 306.600, 452.802 296.281, 453.582 293.568 C 454.362 290.856, 454.982 286.131, 454.961 283.068 C 454.922 277.519, 454.917 277.511, 453.572 280.600 C 451.903 284.434, 447.729 302.678, 445.015 318 C 440.374 344.203, 436.588 349.996, 420 356.280 C 409.859 360.122, 403.262 365.869, 400.495 373.272 C 399.514 375.897, 398.947 378.280, 399.234 378.567 C 399.522 378.855, 403.524 379.983, 408.128 381.074 C 412.733 382.165, 417.247 383.287, 418.159 383.567 C 419.393 383.946, 420.444 382.710, 422.262 378.739 C 424.756 373.292, 427.968 370.237, 437.500 364.248 C 444.258 360.001, 449.485 354.426, 451.799 348.996 C 454.637 342.334, 457.591 328.746, 460.603 308.500 C 465.204 277.563, 464.480 252.245, 458.472 234 L 456.990 229.500 457.504 236 M 609.500 317.005 C 607.300 317.420, 601.658 318.797, 596.963 320.066 L 588.426 322.373 580.228 320.005 C 575.720 318.702, 571.703 317.964, 571.302 318.365 C 570.901 318.766, 570.648 322.612, 570.739 326.912 C 570.864 332.738, 571.518 336.103, 573.307 340.115 C 575.818 345.747, 580.614 351.357, 582.121 350.425 C 582.604 350.126, 583 350.297, 583 350.804 C 583 351.311, 585.587 352.525, 588.750 353.501 C 591.913 354.477, 594.950 355.598, 595.500 355.992 C 596.050 356.387, 597.926 357.189, 599.669 357.775 C 602.576 358.751, 603.403 358.468, 609.669 354.343 C 625.061 344.213, 643.871 335.033, 662.750 328.439 C 665.638 327.430, 668 326.292, 668 325.909 C 668 324.760, 655.326 320.048, 646.630 317.963 C 638.141 315.928, 617.971 315.407, 609.500 317.005 M 347.810 319.043 C 332.391 320.841, 305.139 331.308, 300.114 337.363 C 299.102 338.582, 299.602 338.980, 303.203 339.818 C 335.334 347.292, 349.735 351.172, 368.998 357.542 L 391.863 365.104 396.069 360.541 C 401.253 354.917, 410.132 349.424, 418.706 346.536 C 424.189 344.689, 425.637 343.684, 428.105 340.010 C 430.965 335.752, 434 327.415, 434 323.818 C 434 321.149, 431.831 321.551, 422.472 325.957 L 414.065 329.914 406.807 326.920 C 388.879 319.527, 367.796 316.712, 347.810 319.043 M 693.500 328.066 C 674.123 330.711, 642.386 341.951, 627.819 351.328 L 621.138 355.628 627.351 355.687 C 635.436 355.763, 640 356.807, 640 358.579 C 640 359.475, 641.054 360, 642.852 360 C 644.656 360, 646.856 361.102, 648.843 363 C 651.872 365.895, 653.085 366.226, 661.500 366.458 C 663.150 366.503, 669.450 365.501, 675.500 364.232 C 687.522 361.710, 718.809 355.689, 731.500 353.456 C 743.399 351.362, 757.104 349.970, 766.502 349.901 C 779.322 349.807, 778.608 347.154, 763.793 339.838 C 754.174 335.088, 743.605 331.572, 732.727 329.504 C 722.379 327.537, 702.673 326.814, 693.500 328.066 M 239.404 341.922 C 225.103 344.895, 210.584 351.175, 197.319 360.123 C 190.464 364.748, 186.389 368.455, 190.629 366.209 C 194.002 364.422, 210.353 359.117, 217.500 357.491 C 241.479 352.036, 273.699 351.640, 305 356.416 C 317.813 358.371, 341.205 361.128, 341.603 360.730 C 342.930 359.404, 302.312 345.700, 289 342.982 C 273.814 339.882, 251.511 339.405, 239.404 341.922 M 512.438 348.567 C 511.479 354.962, 512.498 377.347, 514.018 383.257 C 515.218 387.923, 515.348 388.044, 520.871 389.561 C 523.967 390.411, 527.571 391.550, 528.879 392.091 C 531.796 393.297, 532.727 392.581, 530.981 390.477 C 529.934 389.216, 529.495 389.162, 528.757 390.203 C 528.151 391.058, 528.040 390.573, 528.431 388.777 C 528.931 386.483, 528.747 386.153, 527.262 386.686 C 526.293 387.034, 525.842 386.943, 526.259 386.484 C 526.677 386.024, 526.185 384.715, 525.166 383.574 C 524.147 382.433, 522.297 378.575, 521.054 375 C 519.812 371.425, 518.534 367.825, 518.214 367 C 517.307 364.655, 515.086 353.967, 514.485 349.054 C 513.750 343.048, 513.282 342.937, 512.438 348.567 M 777 349 C 777 349.550, 777.477 350, 778.059 350 C 778.641 350, 778.840 349.550, 778.500 349 C 778.160 348.450, 777.684 348, 777.441 348 C 777.198 348, 777 348.450, 777 349 M 239 356.088 C 226.419 357.163, 219.494 358.493, 207.689 362.099 C 195.619 365.786, 183.152 371.174, 176.434 375.607 C 165.583 382.768, 152.072 396.267, 141.511 410.500 C 135.513 418.583, 132.205 424.592, 137.107 418.500 C 145.200 408.441, 160.007 395.091, 171.838 387.186 C 195.040 371.684, 216.045 363.379, 243.054 359.031 C 264.699 355.547, 265.801 355.237, 256.500 355.258 C 252.100 355.267, 244.225 355.641, 239 356.088 M 353 358.877 C 353 360.063, 359.897 362.933, 375.820 368.373 C 383.147 370.875, 388.976 372.429, 388.775 371.826 C 388.574 371.223, 385.280 369.603, 381.455 368.227 C 377.630 366.850, 369.807 363.986, 364.071 361.862 C 352.343 357.519, 353 357.696, 353 358.877 M 747.112 359.081 C 741.779 360.128, 740.634 360.999, 744.583 361.003 C 748.796 361.008, 765.382 364.017, 765.987 364.887 C 766.269 365.292, 767.400 365.657, 768.500 365.699 C 772.867 365.866, 779.922 366.902, 783.793 367.944 C 786.036 368.548, 788.238 368.980, 788.686 368.903 C 789.134 368.826, 789.725 368.851, 790 368.958 C 790.275 369.065, 791.175 369.321, 792 369.527 C 805.480 372.888, 820.506 378.528, 830.958 384.150 C 835.106 386.381, 838.928 388.610, 839.450 389.103 C 839.973 389.596, 841.178 390, 842.129 390 C 843.079 390, 844.564 390.707, 845.429 391.571 C 846.293 392.436, 847.007 392.773, 847.015 392.321 C 847.024 391.870, 847.361 391.953, 847.765 392.506 C 848.169 393.059, 850.075 394.692, 852 396.135 C 853.925 397.578, 856.977 400.181, 858.782 401.919 C 860.587 403.657, 862.569 404.766, 863.186 404.385 C 863.804 404.003, 864.045 404.118, 863.723 404.639 C 863.401 405.161, 864.942 407.125, 867.149 409.004 C 871.876 413.028, 882.938 424.323, 886.008 428.260 C 887.192 429.777, 888.585 430.756, 889.105 430.435 C 889.624 430.114, 889.926 430.447, 889.775 431.176 C 889.624 431.904, 890.035 432.397, 890.689 432.270 C 891.343 432.144, 892.161 432.931, 892.506 434.020 C 892.852 435.109, 893.581 436, 894.126 436 C 894.672 436, 894.838 436.453, 894.496 437.007 C 894.153 437.561, 894.574 438.283, 895.431 438.612 C 896.288 438.941, 896.697 439.682, 896.340 440.259 C 895.950 440.889, 896.175 441.010, 896.900 440.562 C 897.811 439.999, 897.691 439.161, 896.410 437.157 C 869.683 395.340, 836.342 369.540, 799.434 362.114 C 780.326 358.270, 757.870 356.968, 747.112 359.081 M 251.277 361.068 C 240.249 362.135, 224.124 365.467, 212.678 369.045 C 185.727 377.470, 159.418 394.841, 142.325 415.500 C 131.117 429.046, 127.761 433.826, 123.125 442.852 C 118.271 452.301, 109.267 477.275, 107.019 487.521 C 106.418 490.259, 105.684 493.400, 105.387 494.500 C 105.090 495.600, 108.442 489.263, 112.837 480.418 C 125.163 455.609, 141.356 432.405, 158.681 414.723 C 181.719 391.212, 209.607 375.507, 240.500 368.647 C 249.357 366.680, 258.902 364.991, 260.934 365.030 C 264.075 365.091, 259.682 366.727, 254.500 367.426 C 240.970 369.251, 222.772 375.075, 209.058 381.971 C 163.858 404.697, 122.696 459.827, 104.882 521.500 C 93.927 559.425, 88.871 599.816, 91.039 632.096 C 92.427 652.767, 96.831 682.948, 99.071 687.132 C 99.633 688.182, 99.789 689.532, 99.418 690.132 C 99.047 690.733, 99.294 691.564, 99.967 691.980 C 100.640 692.396, 101.236 694.342, 101.292 696.305 C 101.347 698.269, 101.687 699.693, 102.047 699.471 C 102.406 699.249, 103.434 702.764, 104.330 707.283 C 109.639 734.051, 127.485 772.986, 147.399 801.250 C 150.014 804.962, 152.821 808, 153.636 808 C 154.451 808, 154.828 808.470, 154.473 809.044 C 153.668 810.346, 155.403 812.486, 159.411 815.133 C 162.379 817.094, 162.412 817.095, 160.250 815.176 C 159.013 814.078, 158 812.727, 158 812.173 C 158 811.620, 157.438 810.938, 156.750 810.659 C 155.802 810.275, 155.853 809.907, 156.961 809.137 C 158.189 808.283, 158.012 807.740, 155.855 805.741 C 154.443 804.433, 153.032 802.718, 152.720 801.931 C 152.234 800.706, 151.988 800.716, 151.011 802 C 150.087 803.214, 149.995 803.054, 150.530 801.161 C 151.023 799.417, 150.406 797.845, 148.108 794.985 C 146.412 792.874, 144.473 789.877, 143.798 788.324 C 143.124 786.771, 141.514 784.397, 140.221 783.048 C 138.927 781.700, 137.617 779.337, 137.310 777.798 C 137.002 776.259, 136.333 775, 135.823 775 C 135.313 775, 134.425 773.650, 133.850 772 C 133.275 770.350, 132.494 769, 132.115 769 C 131.736 769, 131.353 768.033, 131.264 766.850 L 131.102 764.700 132.619 766.867 C 133.454 768.058, 134.491 768.815, 134.924 768.547 C 135.357 768.279, 135.516 769.284, 135.277 770.780 C 134.938 772.910, 135.074 773.175, 135.906 772 C 136.491 771.175, 136.976 770.997, 136.985 771.604 C 136.993 772.211, 138.013 773.860, 139.250 775.269 C 143.477 780.080, 145.973 783.499, 145.989 784.500 C 145.998 785.050, 147.353 786.400, 149 787.500 C 150.647 788.600, 151.996 789.832, 151.997 790.239 C 152.002 791.543, 155.403 795, 156.680 795 C 157.360 795, 160.297 797.237, 163.208 799.971 C 166.118 802.705, 168.993 804.955, 169.594 804.971 C 170.196 804.987, 171.996 806.124, 173.594 807.499 C 175.193 808.873, 177.047 809.998, 177.715 809.999 C 178.383 809.999, 179.411 810.900, 180 812 C 180.589 813.100, 181.958 814, 183.042 814 C 184.126 814, 185.991 815.125, 187.187 816.500 C 188.382 817.875, 190.184 819, 191.191 819 C 192.198 819, 195.074 819.965, 197.582 821.143 C 201.530 822.999, 202.333 823.095, 203.567 821.861 C 204.802 820.627, 204.772 820.120, 203.347 818.084 C 202.441 816.791, 200.706 813.881, 199.491 811.617 C 196.635 806.295, 193.413 800.588, 187.103 789.671 C 184.296 784.815, 182 780.645, 182 780.404 C 182 780.163, 180.039 776.711, 177.643 772.733 C 165.383 752.384, 155.013 733.845, 150.479 724.174 C 146.870 716.477, 138.340 692.763, 137.531 688.181 C 137.271 686.706, 136.150 681.854, 135.040 677.397 C 129.469 655.023, 127.539 636.780, 128.287 613.578 C 128.898 594.643, 130.014 587.433, 135.821 564.878 C 141.140 544.221, 147.530 527.020, 156.283 509.800 C 175.514 471.964, 204.137 437.702, 233.929 416.852 C 243.046 410.472, 270.318 396.526, 273.250 396.745 C 274.212 396.817, 275 396.427, 275 395.879 C 275 395.331, 275.384 395.119, 275.853 395.409 C 276.716 395.943, 283.077 393.995, 284 392.915 C 284.275 392.593, 286.300 391.838, 288.500 391.238 C 290.700 390.637, 294.975 389.437, 298 388.571 C 310.653 384.947, 338.140 381.320, 327 384.744 C 322.318 386.183, 326.286 386.326, 331.411 384.903 C 334.017 384.179, 334.893 383.552, 334.036 383.023 C 333.279 382.555, 335.680 381.934, 339.875 381.513 C 343.794 381.119, 347 380.393, 347 379.899 C 347 379.404, 345.904 379, 344.565 379 C 343.226 379, 341.088 378.606, 339.815 378.125 C 336.497 376.870, 311.894 374.035, 295.500 373.018 C 281.824 372.171, 281.975 372.158, 302 372.481 C 313.275 372.664, 324.975 373.282, 328 373.856 C 338.256 375.801, 351.310 377.123, 365.429 377.648 C 380.119 378.194, 381.013 377.660, 371 374.318 C 354.361 368.766, 342.390 366.810, 298.500 362.472 C 272.716 359.923, 265.367 359.705, 251.277 361.068 M 705 368.592 C 703.075 368.820, 697 369.489, 691.500 370.079 C 679.096 371.410, 656.846 375.756, 655.500 377.111 C 654.829 377.786, 657.791 377.881, 664.500 377.400 C 675.963 376.578, 677.103 376.547, 686.193 376.808 C 692.057 376.976, 692.842 377.224, 692.537 378.809 C 692.222 380.444, 693.590 380.733, 706.844 381.827 C 735.290 384.175, 758.829 390.496, 781.161 401.786 C 794.619 408.590, 815 421.424, 815 423.096 C 815 423.593, 815.627 424, 816.393 424 C 817.159 424, 818.056 424.704, 818.386 425.563 C 818.722 426.438, 819.497 426.811, 820.147 426.409 C 820.814 425.997, 821.041 426.125, 820.680 426.708 C 820.334 427.268, 821.502 429.067, 823.276 430.706 C 825.049 432.346, 829.123 436.462, 832.330 439.853 C 835.536 443.245, 838.569 445.767, 839.069 445.458 C 839.568 445.149, 839.727 445.549, 839.420 446.347 C 839.114 447.145, 839.414 448.138, 840.086 448.553 C 840.918 449.068, 841.076 448.860, 840.578 447.905 C 840.176 447.132, 840.824 447.625, 842.017 449 C 843.211 450.375, 845.832 453.311, 847.843 455.525 C 849.855 457.739, 853.972 462.464, 856.993 466.025 C 860.015 469.586, 862.827 472.650, 863.243 472.833 C 863.660 473.017, 863.998 473.692, 863.996 474.333 C 863.993 474.975, 861.968 473.269, 859.496 470.542 C 854.423 464.948, 853.455 465.602, 857.972 471.572 C 859.607 473.732, 860.957 475.881, 860.972 476.346 C 860.987 476.811, 861.911 478.470, 863.024 480.034 C 865.804 483.937, 872.015 496.680, 876.412 507.500 C 878.424 512.450, 880.495 517.400, 881.016 518.500 C 886.706 530.533, 895.918 571.246, 895.981 584.643 C 895.993 587.338, 896.510 588.982, 897.459 589.346 C 898.262 589.654, 899.382 591.390, 899.948 593.203 L 900.977 596.500 900.439 592.728 C 900.062 590.083, 900.364 588.493, 901.451 587.407 C 903.777 585.080, 903.329 583.704, 900.424 584.259 C 898.761 584.577, 898.192 584.408, 898.818 583.782 C 899.351 583.249, 900.610 582.971, 901.615 583.164 C 902.748 583.382, 904.733 582.087, 906.837 579.758 C 908.705 577.691, 910.746 576, 911.374 576 C 912.114 576, 912.387 574.400, 912.152 571.438 C 911.874 567.947, 912.203 566.572, 913.550 565.587 C 914.673 564.766, 915.112 563.538, 914.762 562.197 C 914.460 561.042, 914.678 559.941, 915.247 559.751 C 915.912 559.529, 916.301 552.271, 916.335 539.453 C 916.379 522.444, 916.072 518.180, 914.257 510.551 C 913.086 505.629, 912.351 501.241, 912.623 500.801 C 912.895 500.360, 912.698 500, 912.184 500 C 911.670 500, 910.990 498.702, 910.673 497.117 C 910.356 495.531, 909.796 492.943, 909.430 491.367 C 908.787 488.606, 908.821 488.574, 910.349 490.500 C 911.222 491.600, 911.951 493.288, 911.968 494.250 C 911.986 495.212, 912.420 496, 912.933 496 C 913.446 496, 914.156 497.012, 914.512 498.250 C 914.868 499.488, 915.843 502.013, 916.679 503.862 C 922.524 516.783, 928.480 538.308, 930.554 554 C 930.809 555.925, 931.252 558.636, 931.539 560.025 C 932.826 566.256, 933.653 597.186, 932.952 612.819 C 932.244 628.592, 931.478 635.681, 928.991 649.500 C 928.497 652.250, 927.568 657.425, 926.927 661 C 926.287 664.575, 925.171 669.750, 924.448 672.500 C 923.725 675.250, 922.836 679.863, 922.473 682.751 C 922.055 686.068, 921.421 687.760, 920.752 687.346 C 920.142 686.970, 919.984 687.164, 920.379 687.805 C 920.758 688.417, 920.351 691.108, 919.476 693.784 C 918.600 696.460, 917.513 700.866, 917.060 703.575 C 916.606 706.284, 916.182 707.686, 916.118 706.691 C 916.053 705.696, 915.592 705.134, 915.094 705.442 C 914.596 705.750, 914.423 706.902, 914.711 708.001 C 915.003 709.118, 914.741 710, 914.117 710 C 913.502 710, 912.998 711.013, 912.996 712.250 C 912.994 713.487, 912.084 715.990, 910.974 717.810 C 909.864 719.631, 909.198 721.512, 909.494 721.991 C 909.790 722.470, 909.575 723.144, 909.016 723.490 C 908.457 723.835, 908 725.243, 908 726.618 C 908 727.993, 907.601 728.872, 907.114 728.570 C 906.364 728.107, 905.180 730.600, 905.173 732.661 C 905.172 733, 904.778 733.552, 904.298 733.888 C 902.884 734.879, 899.996 743.185, 900.681 744.292 C 901.029 744.857, 900.817 745.005, 900.205 744.627 C 898.781 743.747, 896.822 747.373, 897.611 749.428 C 898.005 750.455, 897.657 751, 896.607 751 C 895.560 751, 895 751.870, 895 753.500 C 895 754.875, 894.602 756, 894.117 756 C 893.631 756, 892.984 756.788, 892.678 757.750 C 892.373 758.712, 891.308 760.836, 890.312 762.470 C 888.550 765.357, 887.851 766.318, 885.250 769.423 C 884.563 770.244, 884 771.636, 884 772.517 C 884 773.397, 883.550 773.840, 883 773.500 C 882.450 773.160, 882 773.411, 882 774.057 C 882 774.703, 880.487 777.317, 878.638 779.866 C 876.789 782.415, 875.463 785.021, 875.691 785.658 C 875.919 786.295, 875.632 787.110, 875.053 787.467 C 874.474 787.825, 874 788.602, 874 789.194 C 874 789.786, 874.900 789.126, 876 787.727 C 877.100 786.329, 878 784.878, 878 784.502 C 878 784.127, 879.237 782.509, 880.750 780.907 C 882.263 779.304, 883.349 777.707, 883.165 777.358 C 882.980 777.009, 883.222 776.448, 883.702 776.112 C 885.220 775.047, 891 765.715, 891 764.329 C 891 763.598, 891.420 763, 891.933 763 C 892.446 763, 893.185 761.987, 893.576 760.750 C 893.968 759.513, 895.307 757.150, 896.553 755.500 C 899.544 751.539, 906.682 736.839, 911.363 725 C 913.430 719.775, 915.499 714.600, 915.962 713.500 C 922.469 698.051, 931.268 662.329, 935.053 636 C 939.952 601.926, 938.139 559.806, 930.512 530.450 C 916.735 477.425, 887.703 432.415, 848.753 403.695 C 820.408 382.795, 802.446 375.648, 765.145 370.430 C 755.023 369.014, 712.431 367.713, 705 368.592 M 542.140 369.914 C 541.311 370.426, 542.559 373.789, 546.339 381.229 C 549.298 387.052, 551.970 392.778, 552.278 393.955 C 552.824 396.043, 552.931 396.055, 556.669 394.455 C 558.776 393.554, 562.975 391.882, 566 390.741 C 569.025 389.599, 571.932 388.286, 572.460 387.822 C 573.041 387.312, 571.955 385.556, 569.710 383.376 C 567.670 381.394, 566 379.429, 566 379.009 C 566 378.353, 563.156 377.004, 553.500 373.080 C 552.400 372.633, 550.375 371.798, 549 371.224 C 544.664 369.415, 543.352 369.165, 542.140 369.914 M 277.813 371.683 C 278.534 371.972, 279.397 371.936, 279.729 371.604 C 280.061 371.272, 279.471 371.036, 278.417 371.079 C 277.252 371.127, 277.015 371.364, 277.813 371.683 M 260.500 373.661 C 226.089 379.871, 187.210 404.494, 162.071 436 C 134.823 470.151, 119.166 503.385, 108.365 550 C 104.365 567.266, 102.862 580.705, 102.494 602.500 L 102.122 624.500 103.474 603 C 107.549 538.191, 124.368 490.100, 159.781 442 C 166.030 433.513, 185.621 413.711, 194.558 406.850 C 208.038 396.502, 227.456 385.687, 241.500 380.706 C 249.895 377.729, 267.206 374.027, 273.192 373.930 C 276.516 373.875, 277.043 373.663, 275.500 373 C 272.792 371.836, 269.912 371.963, 260.500 373.661 M 725.264 373.718 C 726.784 373.947, 729.034 373.941, 730.264 373.704 C 731.494 373.467, 730.250 373.279, 727.500 373.286 C 724.750 373.294, 723.744 373.488, 725.264 373.718 M 736.750 373.662 C 737.438 373.940, 738.563 373.940, 739.250 373.662 C 739.938 373.385, 739.375 373.158, 738 373.158 C 736.625 373.158, 736.063 373.385, 736.750 373.662 M 756.264 374.718 C 757.784 374.947, 760.034 374.941, 761.264 374.704 C 762.494 374.467, 761.250 374.279, 758.500 374.286 C 755.750 374.294, 754.744 374.488, 756.264 374.718 M 765.813 375.683 C 766.534 375.972, 767.397 375.936, 767.729 375.604 C 768.061 375.272, 767.471 375.036, 766.417 375.079 C 765.252 375.127, 765.015 375.364, 765.813 375.683 M 783 378.031 C 783 378.564, 783.675 379, 784.500 379 C 785.325 379, 786 378.823, 786 378.607 C 786 378.391, 785.325 377.955, 784.500 377.638 C 783.675 377.322, 783 377.499, 783 378.031 M 787.813 379.683 C 788.534 379.972, 789.397 379.936, 789.729 379.604 C 790.061 379.272, 789.471 379.036, 788.417 379.079 C 787.252 379.127, 787.015 379.364, 787.813 379.683 M 793 380.831 C 793.825 381.341, 795.625 382.059, 797 382.427 C 798.737 382.892, 799.042 382.813, 798 382.169 C 797.175 381.659, 795.375 380.941, 794 380.573 C 792.263 380.108, 791.958 380.187, 793 380.831 M 671.500 382.985 C 668.974 384.089, 686.626 384.202, 689.442 383.099 C 690.578 382.655, 687.675 382.292, 682.442 382.225 C 677.524 382.163, 672.600 382.505, 671.500 382.985 M 690 385.787 C 691.715 386.252, 690.144 386.628, 685 386.982 L 677.500 387.500 687.469 390.371 C 699.435 393.817, 719.450 402.715, 731.058 409.750 C 741.970 416.363, 759.950 434.084, 772.465 450.561 C 785.927 468.286, 796.309 487.657, 803.940 509.292 C 811.109 529.618, 814.486 544.609, 819.024 576.241 C 820.569 587.014, 821.635 622.178, 820.834 635.993 C 820.353 644.294, 820.492 647.692, 821.334 648.228 C 822.185 648.769, 822.192 648.974, 821.359 648.985 C 819.914 649.004, 819.011 655.994, 820.451 656.015 C 821.028 656.024, 820.889 656.418, 820.143 656.890 C 819.198 657.489, 818.989 658.775, 819.454 661.125 C 819.947 663.619, 819.848 664.108, 819.076 663 C 818.266 661.837, 818.027 662.324, 818.015 665.168 C 818.007 667.186, 817.727 669.548, 817.393 670.418 C 817.059 671.288, 817.251 672, 817.820 672 C 818.388 672, 819.059 671.212, 819.311 670.250 C 819.746 668.583, 819.774 668.583, 819.884 670.250 C 819.957 671.351, 820.816 672, 822.200 672 C 823.866 672, 824.119 672.281, 823.242 673.158 C 822.366 674.034, 821.739 674.028, 820.659 673.132 C 818.643 671.459, 817.704 674.255, 819.187 677.512 C 820.642 680.703, 822.608 680.698, 823.411 677.500 C 824.107 674.725, 827.678 673.997, 828.615 676.439 C 828.919 677.230, 830.490 678.168, 832.106 678.523 C 834.213 678.986, 835.619 680.292, 837.068 683.133 C 838.180 685.314, 839.745 687.349, 840.545 687.656 C 842.173 688.280, 842.562 692, 841 692 C 839.553 692, 839.769 695.740, 841.250 696.338 C 842.250 696.741, 842.250 696.858, 841.250 696.921 C 839.725 697.017, 839.539 703.680, 841.047 704.182 C 841.722 704.407, 841.540 705.856, 840.533 708.266 C 839.076 711.754, 839.089 712.005, 840.737 712.079 C 841.783 712.126, 841.992 712.363, 841.250 712.662 C 840.562 712.940, 840 714.704, 840 716.583 C 840 718.462, 839.550 720, 839 720 C 838.450 720, 838 722.039, 838 724.532 C 838 727.025, 837.361 730.593, 836.580 732.462 C 835.182 735.809, 835.204 735.875, 838.046 736.866 C 840.758 737.812, 841.169 737.574, 844.874 732.921 C 849.484 727.130, 859.340 707.506, 861.052 700.709 C 861.704 698.119, 862.583 696, 863.005 696 C 863.427 696, 864.047 694.538, 864.381 692.750 C 865.267 688.014, 865.531 687.135, 866.304 686.362 C 866.687 685.980, 867 684.392, 867 682.833 C 867 681.275, 867.347 680, 867.772 680 C 868.656 680, 870.937 669.406, 871.996 660.386 C 872.391 657.024, 872.975 653.849, 873.296 653.331 C 873.616 652.813, 874.098 650.614, 874.366 648.445 C 874.635 646.275, 875.620 638.650, 876.554 631.500 C 878.664 615.345, 878.066 570.629, 875.564 557.500 C 873.717 547.810, 873.593 545.193, 875.048 546.648 C 875.624 547.224, 877.229 552.827, 878.613 559.098 C 879.997 565.369, 881.511 571.737, 881.978 573.250 C 882.567 575.158, 882.470 576.005, 881.663 576.015 C 880.835 576.026, 880.817 576.243, 881.600 576.765 C 883.239 577.859, 884.054 591.321, 883.990 616.251 C 883.927 641.120, 883.756 644.668, 882.009 657.500 C 881.336 662.450, 880.673 668.096, 880.536 670.047 C 880.400 671.998, 879.829 674.473, 879.269 675.547 C 878.709 676.621, 877.737 680.500, 877.110 684.166 C 876.484 687.832, 875.302 692.726, 874.485 695.041 C 873.668 697.357, 873 700.551, 873 702.139 C 873 703.728, 872.593 705.809, 872.097 706.764 C 870.616 709.609, 866 724.984, 866 727.069 C 866 728.131, 865.550 729, 865 729 C 864.450 729, 864 729.438, 864 729.973 C 864 730.508, 862.841 733.393, 861.424 736.385 C 860.008 739.377, 858.737 742.427, 858.601 743.163 C 858.465 743.898, 857.585 746.276, 856.645 748.447 C 855.706 750.618, 855.187 753.045, 855.492 753.840 C 856.101 755.428, 857.020 754.941, 857.380 752.842 C 857.506 752.104, 858.390 750.024, 859.345 748.221 C 860.300 746.417, 860.769 744.435, 860.386 743.816 C 859.987 743.169, 860.138 742.967, 860.741 743.340 C 861.813 744.003, 865.307 736.180, 869.090 724.647 C 870.199 721.266, 871.548 717.694, 872.087 716.709 C 872.627 715.724, 872.801 714.487, 872.475 713.959 C 872.149 713.432, 872.306 713, 872.824 713 C 873.343 713, 873.991 711.987, 874.266 710.750 C 874.540 709.513, 876.646 701.300, 878.945 692.500 C 881.243 683.700, 882.953 675.286, 882.743 673.803 C 882.533 672.319, 882.730 671.333, 883.181 671.612 C 883.631 671.890, 884.008 671.754, 884.018 671.309 C 884.028 670.864, 884.689 666.225, 885.486 661 C 891.746 620.003, 888.852 569.150, 878.353 535.663 C 870.184 509.605, 861.262 490.548, 847.973 470.773 C 830.430 444.668, 815.597 429.258, 794.500 415.222 C 764.721 395.408, 737.245 386.396, 704 385.536 C 694.925 385.301, 688.625 385.414, 690 385.787 M 809 387 C 810.925 388.054, 812.950 388.916, 813.500 388.916 C 814.050 388.916, 812.925 388.054, 811 387 C 809.075 385.946, 807.050 385.084, 806.500 385.084 C 805.950 385.084, 807.075 385.946, 809 387 M 312.994 387.533 C 280.427 394.039, 250.647 406.756, 229 423.401 C 208.949 438.818, 189.356 460.701, 172.322 486.703 C 164.471 498.688, 150.942 526.024, 145.986 539.917 C 141.332 552.964, 134.713 578.553, 132.384 592.500 C 130.171 605.755, 130.165 636.352, 132.372 651.305 C 136.061 676.297, 143.617 703.303, 152.449 723.066 C 158.024 735.540, 160.906 740.395, 158.899 733.933 C 158.313 732.045, 157.383 728.700, 156.833 726.500 C 156.283 724.300, 155.644 721.825, 155.413 721 C 152.569 710.852, 149.042 696.071, 149.090 694.500 C 149.123 693.400, 150.473 697.450, 152.088 703.500 C 160.599 735.366, 167.620 751.268, 188.246 785.390 C 194.932 796.451, 200.650 805.725, 200.954 806 C 201.257 806.275, 202.854 808.492, 204.503 810.927 C 211.097 820.667, 215.801 824.247, 217.407 820.750 C 217.723 820.063, 217.730 820.513, 217.423 821.750 C 217.107 823.027, 217.327 824, 217.933 824 C 218.520 824, 219.007 823.438, 219.015 822.750 C 219.026 821.914, 219.357 821.997, 220.015 823 C 220.855 824.279, 221.134 824.292, 221.907 823.091 C 222.407 822.316, 222.569 821.040, 222.268 820.257 C 221.817 819.081, 221.555 819.065, 220.767 820.166 C 220.071 821.137, 219.978 820.988, 220.424 819.620 C 220.797 818.477, 220 815.969, 218.394 813.229 C 213.992 805.718, 200.151 777.428, 196.858 769.211 C 176.443 718.274, 168.455 674.652, 170.991 627.947 C 172.440 601.246, 174.390 588.433, 181.031 561.979 C 192.934 514.564, 211.353 476.195, 237.907 443.500 C 251.254 427.067, 267.898 412.923, 284.979 403.500 C 292.394 399.410, 301.099 393.991, 296.120 396.565 C 295.223 397.029, 294.895 396.815, 295.181 395.956 C 295.424 395.228, 300.770 393.114, 307.061 391.258 C 322.414 386.728, 324.026 386.164, 321.500 386.203 C 320.400 386.220, 316.572 386.818, 312.994 387.533 M 360 387.040 C 349.028 388.083, 329.300 392.037, 319.947 395.068 C 304.687 400.012, 283.064 411.483, 269.606 421.774 C 260.618 428.646, 245.122 444.681, 237.259 455.247 C 221.644 476.228, 210.745 496.743, 200.478 524.476 C 190.636 551.059, 186.524 564.774, 183.828 580 C 182.176 589.333, 182.228 630.185, 183.912 644.500 C 189.829 694.827, 198.089 727.678, 213.894 763.732 C 219.724 777.032, 227.794 792.094, 240.535 813.457 C 243.017 817.619, 255.162 832, 256.194 832 C 256.603 832, 256.694 832.634, 256.396 833.410 C 256.084 834.222, 256.627 835.067, 257.678 835.403 C 258.680 835.725, 261.707 838.240, 264.405 840.994 C 267.103 843.747, 269.916 846, 270.655 846 C 271.395 846, 272 846.344, 272 846.764 C 272 847.184, 273.800 848.640, 276 850 C 278.200 851.360, 280 852.763, 280 853.119 C 280 853.474, 282.428 854.953, 285.397 856.406 C 288.365 857.858, 291.345 859.711, 292.019 860.523 C 292.693 861.335, 294.063 862, 295.063 862 C 296.064 862, 297.160 862.450, 297.500 863 C 297.840 863.550, 299.441 864, 301.059 864 C 302.677 864, 304 864.450, 304 865 C 304 865.550, 305.800 866, 308 866 C 310.851 866, 312 865.578, 312 864.531 C 312 863.572, 311.423 863.284, 310.336 863.701 C 309.236 864.123, 308.911 863.953, 309.378 863.198 C 309.992 862.204, 308.284 858.638, 305.689 855.500 C 304.206 853.707, 293.374 836.615, 290.795 832 C 289.412 829.525, 286.512 824.800, 284.350 821.500 C 280.827 816.121, 276.122 806.668, 267.180 787 C 261.410 774.310, 251.161 738.972, 247.539 719.283 C 242.105 689.739, 241.119 654.104, 244.917 624.500 C 250.585 580.314, 260.149 546.986, 276.856 513.194 C 283.117 500.530, 298.352 475.559, 301.989 472 C 302.270 471.725, 304.297 469.250, 306.494 466.500 C 313.550 457.669, 315.354 455.647, 323.500 447.446 C 337.649 433.201, 352.902 422.226, 369.336 414.463 C 383.315 407.860, 405.209 400.974, 416.948 399.487 C 425.739 398.374, 429 397.724, 429 397.084 C 429 396.017, 420.229 393.194, 412.793 391.867 C 409.104 391.209, 406.295 390.332, 406.550 389.919 C 408.173 387.293, 377.375 385.388, 360 387.040 M 607.500 388.608 C 598.220 389.563, 585.126 392.350, 577.107 395.078 C 572.382 396.685, 568.287 398.059, 568.008 398.132 C 567.729 398.204, 569.075 398.595, 571 399 C 574.150 399.663, 573.938 399.750, 568.877 399.868 C 563.499 399.994, 554.789 402.915, 553.481 405.030 C 553.150 405.566, 553.919 406.410, 555.190 406.906 C 563.027 409.966, 582.265 426.927, 591.131 438.594 C 597.206 446.588, 599.084 449.753, 605.019 462 C 607.817 467.775, 610.513 473.249, 611.008 474.164 C 612.599 477.102, 620.727 499.299, 622.482 505.500 C 623.416 508.800, 624.787 513.300, 625.527 515.500 C 626.268 517.700, 627.814 523.933, 628.963 529.351 C 630.111 534.768, 632.124 543.318, 633.434 548.351 C 634.745 553.383, 636.544 561.550, 637.432 566.500 C 638.320 571.450, 640.178 581.800, 641.561 589.500 C 648.582 628.592, 650.452 648.859, 649.635 677 C 648.917 701.713, 648.291 707.988, 643.400 739.500 C 637.563 777.111, 634.201 793.596, 627.494 817.500 C 621.203 839.922, 619.538 845.443, 616.490 853.990 C 614.312 860.097, 614.039 861.832, 615.009 863.385 C 616.010 864.989, 615.947 865.194, 614.614 864.682 C 613.276 864.168, 613.216 864.373, 614.230 865.997 C 615.012 867.249, 615.670 867.534, 616.114 866.816 C 616.605 866.021, 618.018 866.006, 621.148 866.762 C 623.542 867.340, 627.075 867.649, 629 867.448 C 630.925 867.247, 631.707 867.324, 630.738 867.617 C 629.769 867.911, 629.214 868.538, 629.506 869.010 C 630.324 870.333, 637.349 868.865, 638.718 867.084 C 639.815 865.657, 639.940 865.674, 639.968 867.250 C 640.006 869.343, 641.325 869.518, 642.887 867.637 C 643.509 866.887, 646.572 865.973, 649.693 865.606 C 652.814 865.239, 655.906 864.493, 656.564 863.947 C 657.221 863.402, 659.580 862.774, 661.805 862.553 C 664.030 862.331, 666.820 861.632, 668.004 860.998 C 669.188 860.364, 670.759 860.077, 671.495 860.360 C 672.232 860.642, 673.083 860.227, 673.386 859.437 C 673.689 858.647, 674.851 858, 675.969 858 C 677.086 858, 678 857.502, 678 856.893 C 678 856.284, 678.675 856.045, 679.500 856.362 C 680.325 856.678, 681 856.501, 681 855.969 C 681 855.436, 681.589 855, 682.309 855 C 683.688 855, 690.723 843.522, 695.379 833.679 C 709.939 802.890, 723.704 750.408, 726.506 715 C 726.876 710.325, 727.360 705.375, 727.582 704 C 728.433 698.728, 727.981 652.979, 726.974 642.500 C 725.404 626.163, 724.530 620.207, 719.951 594.642 C 715.032 567.176, 702.424 526.828, 691.365 503.158 C 688.964 498.019, 687 493.688, 687 493.532 C 687 493.376, 684.177 488.130, 680.727 481.874 C 670.263 462.903, 658.423 446.682, 649.067 438.502 C 647.179 436.851, 644.029 433.992, 642.067 432.149 L 638.500 428.799 641.902 431.075 C 647.773 435.005, 657.757 444.915, 664.870 453.875 C 670.942 461.522, 683 479.267, 683 480.555 C 683 480.821, 684.049 482.718, 685.332 484.770 C 687.390 488.062, 691.381 496.453, 697.807 511 C 700.366 516.795, 708.104 538.466, 710.839 547.500 C 721.801 583.712, 723.478 591.278, 726.908 620 C 730.759 652.243, 731.299 661.504, 730.693 684.823 C 729.497 730.823, 720.139 779.334, 704.523 820.495 C 699.350 834.130, 698.774 837.214, 703.030 828.500 C 706.620 821.147, 712.571 805.302, 717.439 790.134 C 723.183 772.237, 726.358 757.505, 732.663 719.500 C 737.637 689.519, 736.766 650.151, 730.480 620.831 C 729.074 614.268, 731.020 618.806, 732.944 626.574 C 736.782 642.073, 738.264 659.703, 737.686 683 C 737.084 707.292, 734.465 727.384, 727.385 762 C 723.459 781.201, 709.580 824.965, 703.804 836.359 L 701.848 840.217 705.424 837.490 C 707.391 835.990, 709 835.039, 709 835.376 C 709 835.714, 711.250 833.787, 714 831.094 C 716.750 828.402, 719 825.629, 719 824.933 C 719 824.236, 719.281 823.947, 719.624 824.290 C 720.295 824.961, 725 818.542, 725 816.956 C 725 816.430, 725.675 816, 726.500 816 C 727.325 816, 728 815.148, 728 814.107 C 728 813.066, 728.675 811.955, 729.500 811.638 C 730.325 811.322, 731 810.422, 731 809.638 C 731 808.855, 731.675 807.955, 732.500 807.638 C 733.325 807.322, 734.001 806.261, 734.002 805.281 C 734.004 804.302, 735.353 801.925, 737 800 C 738.647 798.075, 739.996 795.963, 739.998 795.307 C 739.999 794.650, 740.810 793.525, 741.800 792.807 C 742.790 792.088, 744.227 789.925, 744.994 788 C 745.760 786.075, 746.686 784.275, 747.052 784 C 747.418 783.725, 749.622 779.900, 751.949 775.500 C 754.276 771.100, 756.963 766.150, 757.920 764.500 C 758.877 762.850, 760.484 759.250, 761.490 756.500 C 762.497 753.750, 763.826 751.050, 764.443 750.500 C 765.061 749.950, 766.168 747.475, 766.903 745 C 767.638 742.525, 768.811 739.150, 769.509 737.500 C 770.207 735.850, 771.503 732.797, 772.389 730.716 C 773.275 728.635, 774 726.394, 774 725.735 C 774 725.077, 774.872 722.280, 775.937 719.519 C 781.063 706.236, 786.137 690.595, 788.107 682 C 789.304 676.775, 790.603 672.050, 790.992 671.500 C 791.620 670.613, 793.736 661.396, 794.372 656.779 C 794.502 655.832, 794.922 654.745, 795.304 654.362 C 795.687 653.980, 796 652.890, 796 651.940 C 796 650.991, 796.775 649.917, 797.722 649.553 C 799.174 648.996, 799.218 648.752, 798 648 C 796.786 647.249, 796.834 647.001, 798.304 646.437 C 799.635 645.926, 799.786 645.447, 798.939 644.427 C 798.321 643.682, 798.186 642.513, 798.635 641.794 C 799.079 641.082, 799.577 639.635, 799.741 638.578 C 799.905 637.522, 800.440 636.172, 800.929 635.578 C 802.262 633.961, 803.413 617.657, 804.005 592 L 804.270 580.500 805.204 589.500 C 806.417 601.198, 805.371 645.522, 803.563 659 C 800.887 678.957, 799.079 689.531, 796.981 697.500 C 795.823 701.900, 794.179 708.425, 793.328 712 C 792.478 715.575, 791.413 719.400, 790.963 720.500 C 790.513 721.600, 789.187 725.650, 788.018 729.500 C 786.849 733.350, 785.466 737.281, 784.946 738.236 C 784.426 739.191, 784 740.841, 784 741.903 C 784 742.965, 783.645 743.983, 783.211 744.167 C 782.777 744.350, 781.655 747.292, 780.719 750.705 C 779.783 754.118, 777.938 759.293, 776.620 762.205 C 775.303 765.117, 773.202 770.200, 771.952 773.500 C 770.702 776.800, 769.029 780.263, 768.235 781.195 C 767.440 782.127, 765.319 785.727, 763.520 789.195 C 756.377 802.967, 754.428 806.394, 752.710 808.199 C 750.858 810.145, 748.555 814.934, 748.839 816.250 C 748.927 816.663, 748.593 817, 748.095 817 C 747.597 817, 746.003 819.025, 744.553 821.500 C 743.102 823.975, 741.430 826, 740.835 826 C 740.131 826, 740.185 826.518, 740.990 827.488 C 741.990 828.693, 741.919 829.094, 740.618 829.593 C 739.735 829.932, 739.260 830.612, 739.565 831.105 C 740.034 831.864, 738.944 832.332, 737 832.204 C 736.725 832.186, 736.454 833.449, 736.397 835.010 C 736.311 837.395, 736.511 837.632, 737.647 836.495 C 738.391 835.752, 739 834.661, 739 834.071 C 739 833.482, 739.472 833, 740.048 833 C 741.345 833, 745.280 828.656, 748.200 824 C 749.407 822.075, 750.715 820.273, 751.108 819.996 C 754.387 817.681, 775.282 779.697, 781.361 765 C 790.668 742.503, 802.245 703.196, 806.398 680 C 817.755 616.557, 812.668 551.804, 792.499 503.070 C 774.647 459.936, 742.826 423.381, 708.053 406.063 C 684.768 394.465, 660.780 389.075, 630 388.526 C 619.825 388.344, 609.700 388.381, 607.500 388.608 M 699.225 388.558 C 699.532 388.865, 706.019 389.992, 713.641 391.062 C 746.019 395.608, 765.584 403.823, 793.891 424.757 C 804.640 432.706, 810.439 438.043, 823.271 451.795 C 834.898 464.256, 855.062 492.860, 860.142 504.100 C 862.217 508.692, 864 510.435, 864 507.874 C 864 504.979, 853.811 487.357, 844.925 474.882 C 834.229 459.866, 825.912 450.378, 814 439.603 C 801.890 428.650, 801.552 428.372, 790.506 420.304 C 779.237 412.074, 759.708 401.458, 747.500 396.928 C 735.627 392.522, 696.385 385.718, 699.225 388.558 M 392.750 390.662 C 393.438 390.940, 394.563 390.940, 395.250 390.662 C 395.938 390.385, 395.375 390.158, 394 390.158 C 392.625 390.158, 392.063 390.385, 392.750 390.662 M 400.813 390.683 C 401.534 390.972, 402.397 390.936, 402.729 390.604 C 403.061 390.272, 402.471 390.036, 401.417 390.079 C 400.252 390.127, 400.015 390.364, 400.813 390.683 M 367.250 392.689 C 368.212 392.941, 369.788 392.941, 370.750 392.689 C 371.712 392.438, 370.925 392.232, 369 392.232 C 367.075 392.232, 366.288 392.438, 367.250 392.689 M 356.500 394.537 L 352.500 395.920 357 395.333 C 359.475 395.009, 362.400 394.381, 363.500 393.936 C 367.149 392.460, 360.973 392.990, 356.500 394.537 M 474.500 395.405 C 466.748 397.206, 457.400 400.767, 448 405.497 C 422.691 418.234, 403.481 440.097, 390.008 471.500 C 384.741 483.774, 383.575 488.834, 378.401 521.861 C 370.255 573.855, 370.540 570.113, 370.520 625.500 C 370.502 677.060, 370.988 686.072, 375.591 719.500 C 381.356 761.362, 394.288 807.345, 410.823 844.779 C 420.398 866.455, 421.397 868.936, 420.792 869.541 C 420.073 870.260, 409.486 848.225, 403.476 833.500 C 387.423 794.167, 375.534 744.851, 370.570 697 C 368.352 675.615, 366.707 627.313, 367.437 605 C 368.516 572.057, 369.861 560.007, 376.621 522.729 C 377.994 515.155, 378.979 507.280, 378.809 505.229 L 378.500 501.500 376.305 507.500 C 369.533 526.013, 358.162 579.706, 353.326 616 C 350.669 635.943, 350.944 673.768, 353.908 696 C 359.218 735.828, 367.127 774.271, 375.511 801 C 383.287 825.792, 401.912 868.791, 404.248 867.346 C 404.945 866.916, 405.110 867.271, 404.704 868.329 C 404.095 869.915, 407.325 874, 409.189 874 C 409.635 874, 410 874.675, 410 875.500 C 410 876.325, 410.675 877, 411.500 877 C 412.325 877, 413 877.648, 413 878.441 C 413 879.234, 413.461 880.167, 414.025 880.515 C 414.588 880.864, 414.985 880.778, 414.906 880.324 C 414.391 877.359, 415.149 876.972, 417.635 878.927 C 419.084 880.067, 420.870 881, 421.604 881 C 422.339 881, 424.542 881.900, 426.500 883 C 428.458 884.100, 431.024 885, 432.202 885 C 433.379 885, 435.053 885.612, 435.921 886.361 C 437.349 887.592, 451.628 890.156, 464.500 891.493 C 467.250 891.778, 472.200 892.407, 475.500 892.891 C 479.260 893.441, 481.950 893.407, 482.706 892.799 C 483.370 892.265, 484.361 892.105, 484.910 892.444 C 485.458 892.783, 486.355 891.359, 486.902 889.280 C 488.437 883.453, 490.431 791.273, 490.467 724.500 C 490.491 680.219, 490.809 663.976, 491.681 662.500 C 493.022 660.229, 492.893 783.227, 491.498 838 C 490.810 864.969, 491.475 892.755, 492.724 889.244 C 492.970 888.553, 493.520 888.204, 493.948 888.468 C 494.880 889.044, 511.286 884.970, 512 883.985 C 512.275 883.606, 514.188 882.503, 516.250 881.534 C 518.313 880.565, 520 879.373, 520 878.886 C 520 878.399, 520.491 878, 521.092 878 C 524.948 878, 539.738 862.854, 547.641 850.811 C 551.139 845.482, 554 840.871, 554 840.564 C 554 840.257, 555.392 836.967, 557.094 833.253 C 558.796 829.539, 561.046 824.587, 562.094 822.250 C 563.142 819.913, 564.901 816.087, 566.003 813.750 C 567.104 811.413, 568.004 808.739, 568.003 807.809 C 568.001 806.879, 568.450 805.840, 569 805.500 C 569.550 805.160, 570 803.784, 570 802.441 C 570 801.098, 570.378 800, 570.840 800 C 571.302 800, 572.274 798.200, 573 796 C 573.726 793.800, 574.698 792, 575.160 792 C 575.622 792, 576.010 790.087, 576.022 787.750 C 576.048 782.734, 579.379 777.218, 580.545 780.258 C 580.914 781.217, 581.279 784.135, 581.357 786.742 C 581.491 791.182, 581.690 791.515, 584.500 792.012 C 586.472 792.361, 587.072 792.812, 586.250 793.330 C 584.366 794.518, 584.749 796, 586.941 796 C 589.265 796, 590.484 797.583, 588.910 798.556 C 588.086 799.065, 588.097 799.442, 588.951 799.970 C 589.661 800.409, 589.856 801.724, 589.451 803.338 C 588.615 806.668, 587 805.818, 587 802.048 C 587 800.451, 586.345 798.963, 585.500 798.638 C 584.675 798.322, 584 798.461, 584 798.948 C 584 799.435, 584.563 800.037, 585.250 800.286 C 586.170 800.619, 586.223 801.235, 585.448 802.619 C 583.952 805.296, 584.802 808, 587.141 808 C 588.571 808, 588.988 808.495, 588.615 809.750 C 588.329 810.712, 587.801 812.734, 587.441 814.243 C 587.081 815.752, 586.464 816.787, 586.070 816.544 C 585.676 816.300, 585.346 817.541, 585.335 819.300 C 585.311 823.432, 581.637 841.184, 579.603 847 C 577.646 852.595, 577.640 853, 579.519 853 C 580.655 853, 580.887 852.306, 580.438 850.250 C 579.976 848.132, 580.083 847.845, 580.904 849 C 581.784 850.238, 581.972 850.096, 581.985 848.184 C 581.993 846.911, 582.481 844.969, 583.070 843.869 C 583.658 842.770, 584.360 840.887, 584.628 839.685 C 585.302 836.673, 585.332 836.567, 588.267 827 C 598.161 794.740, 609.561 721.936, 613.086 668.500 C 613.703 659.150, 614.208 639.350, 614.209 624.500 C 614.211 578.426, 610.673 547.308, 600.850 507 C 596.103 487.523, 590.598 471.668, 583.611 457.349 C 575.053 439.809, 568.550 430.343, 557.496 419.334 C 549.131 411.003, 547.163 409.615, 535.896 404.106 C 529.078 400.772, 520.575 397.352, 517 396.506 C 507.674 394.300, 482.108 393.638, 474.500 395.405 M 342 398.391 C 314.306 408.258, 287.782 428.247, 265.556 456 C 249.283 476.320, 241.875 488.260, 228.021 516.500 C 206.186 561.008, 195.397 603.317, 196.193 641.304 C 196.348 648.719, 196.444 649.241, 196.688 644 C 197.667 622.980, 201.570 595.900, 205.927 579.885 C 211.447 559.600, 213.311 554.364, 222.803 532.500 C 245.922 479.241, 274.437 441.618, 311.570 415.378 C 316.738 411.726, 334.106 403.101, 343.500 399.521 C 353.511 395.706, 352.234 394.744, 342 398.391 M 287 398 C 286.099 398.582, 285.975 398.975, 286.691 398.985 C 287.346 398.993, 288.160 398.550, 288.500 398 C 289.267 396.758, 288.921 396.758, 287 398 M 503 406.375 C 503 411.393, 501.336 426.190, 499.072 441.292 C 496.912 455.706, 494.662 473.262, 494.072 480.304 C 493.409 488.224, 493.066 521.987, 493.173 568.804 C 493.268 610.437, 493.605 641.575, 493.923 638 C 494.375 632.910, 494.934 637.576, 496.500 659.500 C 498.659 689.731, 499.213 746.488, 497.734 785.933 C 497.312 797.171, 497.217 806.117, 497.522 805.812 C 497.827 805.507, 498.783 796.312, 499.648 785.379 C 501.736 758.966, 501.743 703.921, 499.663 674 C 498.803 661.625, 497.514 643.175, 496.799 633 C 495.923 620.523, 495.515 592.850, 495.547 548 L 495.594 481.500 498.370 461 C 499.897 449.725, 501.804 435.100, 502.608 428.500 C 504.104 416.214, 504.654 399.321, 503.593 398.260 C 503.267 397.933, 503 401.586, 503 406.375 M 275 402.231 C 243.954 415.249, 222.098 431.854, 197.370 461.211 C 165.300 499.283, 142.013 555.285, 137.994 604 C 137.165 614.050, 137.623 632.710, 138.673 631.660 C 138.879 631.454, 139.474 623.234, 139.995 613.393 C 141.097 592.561, 143.529 577.967, 149.134 558.549 C 162.611 511.861, 182.740 477.370, 216 443.976 C 230.896 429.021, 246.374 417.854, 264.440 409.030 C 272.173 405.253, 279.742 401.851, 281.259 401.470 C 284.174 400.739, 286.033 398.970, 283.809 399.043 C 283.089 399.067, 279.125 400.501, 275 402.231 M 493.750 400.578 C 493.337 400.993, 493 403.738, 493 406.677 C 493 409.617, 492.334 416.179, 491.520 421.261 C 485.666 457.811, 484.571 485.706, 485.383 577.500 C 485.728 616.550, 486.358 651.200, 486.783 654.500 C 487.208 657.800, 487.379 627.650, 487.162 587.500 C 486.651 492.805, 487.803 461.666, 493.043 428.500 C 494.993 416.157, 495.431 398.884, 493.750 400.578 M 575.083 400.356 C 575.313 400.552, 577.075 401.002, 579 401.355 C 581.462 401.807, 582.055 401.706, 581 401.014 C 579.644 400.125, 574.092 399.508, 575.083 400.356 M 404.500 407.598 C 397.900 410.073, 391.174 412.602, 389.553 413.216 C 384.133 415.270, 362.607 428.098, 353 434.998 C 338.775 445.215, 322.392 461.108, 312.253 474.527 C 304.782 484.415, 302.585 487.614, 297.441 496.094 C 281.288 522.722, 267.012 561.175, 259.582 598.066 C 256.858 611.595, 253.952 638.126, 253.346 655 C 252.296 684.258, 257.673 726.325, 267.341 764.503 C 270.449 776.776, 279.389 801.855, 284.532 812.731 C 291.655 827.795, 306.051 851.622, 313.997 861.500 C 315.767 863.700, 317.602 866.504, 318.075 867.731 C 318.672 869.277, 319.451 869.764, 320.613 869.318 C 321.600 868.939, 322.755 869.313, 323.424 870.227 C 325.230 872.697, 339.186 874.972, 350.856 874.699 C 360.379 874.476, 361.365 874.267, 363.121 872.099 C 365.209 869.520, 365.210 865.058, 363.124 861.204 C 362.440 859.942, 361.795 856.455, 361.690 853.456 C 361.586 850.457, 361.163 848.003, 360.750 848.002 C 360.337 848.001, 360 848.525, 360 849.167 C 360 849.808, 359.739 850.072, 359.419 849.752 C 359.099 849.433, 359.345 848.224, 359.964 847.067 C 360.841 845.428, 360.752 844.357, 359.562 842.231 C 356.057 835.968, 348.698 814.126, 343.481 794.500 C 342.750 791.750, 340.975 785.450, 339.536 780.500 C 334.792 764.178, 332.419 754.914, 330.056 743.500 C 326.804 727.785, 325.812 722.003, 324.425 710.670 C 323.561 703.614, 322.671 696.889, 322.447 695.726 C 322.223 694.563, 321.517 687.736, 320.878 680.556 C 316.962 636.532, 326.404 579.626, 348.266 515.500 C 359.102 483.716, 371.894 457.251, 385.009 439.483 C 390.199 432.451, 405.826 416, 407.316 416 C 407.883 416, 405.006 419.522, 400.923 423.827 C 396.841 428.132, 392.073 433.459, 390.330 435.665 C 378.608 450.493, 364.862 476.515, 356.080 500.500 C 353.261 508.200, 350.109 516.750, 349.076 519.500 C 343.410 534.576, 334.472 567.645, 330.155 589.500 C 324.093 620.188, 323.558 625.767, 323.542 658.500 C 323.529 685.472, 323.821 691.529, 325.788 705.121 C 328.494 723.818, 332.006 741.407, 335.350 753 C 336.698 757.675, 338.046 762.400, 338.345 763.500 C 339.092 766.242, 338.655 760.883, 335.535 729 C 332.172 694.633, 332.336 664.504, 336.027 638.778 C 337.267 630.131, 338.556 623.224, 338.891 623.430 C 339.226 623.635, 339.550 622.459, 339.611 620.816 C 339.672 619.173, 340.239 615.505, 340.872 612.664 C 341.996 607.616, 344.852 593.503, 347.582 579.500 C 350.677 563.624, 356.280 541.339, 356.790 542.871 C 357.005 543.514, 355.358 551.569, 353.131 560.770 C 349.386 576.246, 343.394 607.565, 339.599 631.507 C 335.398 658.002, 335.119 692.748, 338.874 721.500 C 340.023 730.300, 341.648 745.150, 342.484 754.500 C 344.216 773.861, 349.337 800.265, 353.916 813.443 C 357.203 822.905, 358.407 825.179, 362.431 829.521 C 363.809 831.007, 365.228 833.143, 365.585 834.268 C 365.942 835.392, 367.194 837.254, 368.367 838.406 C 371.602 841.582, 375 846.732, 375 848.460 C 375 849.307, 375.654 850, 376.453 850 C 377.252 850, 378.654 851.575, 379.567 853.500 C 380.480 855.425, 381.964 857.069, 382.864 857.152 C 383.764 857.236, 385.022 857.355, 385.660 857.416 C 386.298 857.477, 387.648 858.240, 388.660 859.111 C 394.697 864.309, 394.134 861.195, 385.026 839 C 369.198 800.428, 364.510 782.680, 351.617 712.500 C 346.858 686.596, 345.608 669.935, 346.310 641.725 C 347.028 612.858, 349.486 595.138, 358.481 554 C 369.061 505.610, 376.940 480.996, 389.212 458 C 400.104 437.590, 417.692 416.127, 430.141 408.055 C 432.293 406.660, 433.589 405.363, 433.021 405.174 C 432.453 404.984, 432.242 404.418, 432.553 403.915 C 433.348 402.628, 427.294 402.772, 424.814 404.100 C 423.319 404.899, 422.944 404.899, 423.438 404.100 C 424.959 401.639, 415.949 403.303, 404.500 407.598 M 597 407 C 597.825 407.533, 599.175 407.945, 600 407.914 C 600.989 407.878, 600.819 407.567, 599.500 407 C 596.751 405.819, 595.172 405.819, 597 407 M 614.905 415.031 C 620.078 417.777, 624.490 419.843, 624.710 419.624 C 625.160 419.173, 607.565 409.989, 606.309 410.019 C 605.864 410.030, 609.732 412.285, 614.905 415.031 M 378 413.351 C 343.366 425.651, 304.838 464.127, 281.721 509.500 C 266.327 539.714, 257.617 566.039, 251.115 602 C 246.104 629.709, 245.548 635.903, 245.543 664 C 245.539 689.919, 246.404 700.557, 250.100 720 C 254.154 741.329, 269.672 791.661, 271.599 789.734 C 271.945 789.388, 271.102 786.183, 266.012 768.500 C 253.564 725.255, 247.982 667.866, 252.492 629.500 C 254.342 613.765, 257.377 595.982, 260.517 582.485 C 265.684 560.277, 280.049 522.128, 289.882 504.500 C 294.438 496.333, 304.648 480.577, 308.411 475.906 C 309.560 474.480, 311.813 471.555, 313.418 469.406 C 315.022 467.258, 321.547 460.310, 327.918 453.966 C 343.347 438.602, 356.653 428.728, 377 417.545 C 382.775 414.371, 387.688 411.600, 387.917 411.387 C 389.139 410.252, 383.683 411.332, 378 413.351 M 564.671 417.074 C 572.662 425.394, 574.825 428.107, 579.857 436.120 C 592.343 456.001, 608.354 499.967, 612.953 527 C 613.813 532.055, 614.171 533.921, 615.629 540.948 C 616.031 542.883, 616.329 543.093, 617.053 541.948 C 617.717 540.898, 617.974 541.401, 617.985 543.775 C 617.993 545.576, 618.900 549.611, 620 552.740 C 621.100 555.870, 622 559.646, 622 561.132 C 622 562.618, 622.371 563.983, 622.823 564.167 C 624.859 564.991, 632.038 621.548, 633.464 648 C 634.251 662.611, 635.282 687.382, 635.148 688.500 C 634.578 693.280, 633.372 719.668, 633.698 720.250 C 633.929 720.663, 633.641 721, 633.059 721 C 632.477 721, 631.996 722.913, 631.992 725.250 C 631.976 733.525, 626.907 767.806, 625.005 772.500 C 624.559 773.600, 623.415 779, 622.463 784.500 C 621.510 790, 620.342 794.928, 619.866 795.450 C 618.774 796.648, 618.861 803.850, 620 806.500 C 620.778 808.310, 620.866 808.254, 620.930 805.909 C 620.968 804.484, 621.677 801.109, 622.505 798.409 C 624.540 791.768, 631.461 752.999, 633.914 734.500 C 639.293 693.931, 639.185 664.651, 633.443 607 C 631.531 587.801, 620.964 529.812, 618.045 522.500 C 617.606 521.400, 616.707 517.575, 616.047 514 C 615.387 510.425, 614.227 505.475, 613.469 503 C 607.737 484.279, 606.247 478.847, 607.070 479.670 C 610.681 483.281, 622.792 527.985, 628.968 560.500 C 636.914 602.334, 640.411 638.488, 640.331 678 C 640.269 709.201, 640.077 711.696, 634.476 754 C 632.914 765.802, 628.297 791.055, 625.427 803.500 C 624.539 807.350, 623.687 811.400, 623.534 812.500 C 623.381 813.600, 623.163 814.500, 623.051 814.500 C 622.939 814.500, 622.696 815.175, 622.511 816 C 622.327 816.825, 621.225 821.502, 620.064 826.392 C 618.902 831.283, 618.147 835.481, 618.387 835.720 C 618.626 835.959, 619.386 833.533, 620.076 830.328 C 620.766 827.122, 621.651 824.050, 622.042 823.500 C 623.523 821.419, 630.772 794.387, 633.840 779.500 C 646.792 716.671, 650.644 667.747, 645.572 630.500 C 639.687 587.276, 637.691 575.416, 631.860 549 C 627.905 531.090, 626.465 525.397, 622.874 513.500 C 617.021 494.105, 614.832 487.459, 612.992 483.500 C 611.969 481.300, 608.836 474.222, 606.030 467.771 C 601.098 456.434, 593.328 442.766, 588.728 437.335 C 581.516 428.819, 570.499 418.799, 562 413.026 C 559.339 411.218, 559.980 412.189, 564.671 417.074 M 583.567 417.190 C 583.870 417.910, 585.793 419.829, 587.840 421.454 C 594.181 426.485, 609.600 446.992, 608.205 448.539 C 607.817 448.969, 608.064 448.996, 608.753 448.600 C 609.715 448.046, 609.741 447.370, 608.866 445.689 C 607.708 443.465, 601.382 434.441, 599.521 432.358 C 598.959 431.730, 596.925 429.341, 595 427.048 C 591.075 422.373, 582.717 415.167, 583.567 417.190 M 758 417.229 C 758.825 418.060, 763.669 422.377, 768.765 426.823 C 777.554 434.492, 789 446.607, 789 448.243 C 789 448.659, 789.481 449, 790.068 449 C 792.925 449, 778.791 433.438, 767 423.602 C 759.474 417.324, 754.825 414.032, 758 417.229 M 276.468 425.367 C 263.996 435.709, 250.941 449.525, 241.382 462.500 C 237.330 468, 233.666 472.950, 233.238 473.500 C 232.811 474.050, 229.024 479.900, 224.822 486.500 C 215.752 500.748, 209.983 511.125, 210.044 513.083 C 210.069 513.862, 211.028 512.700, 212.176 510.500 C 216.354 502.494, 237.085 469.664, 239.014 468 C 239.333 467.725, 241.813 464.575, 244.525 461 C 254.347 448.056, 265.490 436.294, 277.500 426.192 C 282.450 422.028, 286.688 418.482, 286.917 418.311 C 287.146 418.140, 287.131 417.798, 286.885 417.551 C 286.638 417.304, 281.950 420.822, 276.468 425.367 M 433.567 421.323 C 429.491 426.667, 422.653 439.089, 419.046 447.702 C 417.250 451.991, 415.384 456.400, 414.899 457.500 C 405.374 479.113, 391.827 530.561, 388.568 557.504 C 386.862 571.604, 385.634 602.724, 386.930 599 C 387.409 597.625, 387.845 592.222, 387.900 586.994 C 388.386 540.662, 412.117 455.552, 433.163 424.656 C 437.508 418.277, 437.814 415.755, 433.567 421.323 M 633 425.350 C 633 425.581, 634.180 426.543, 635.623 427.489 C 637.066 428.434, 637.941 428.713, 637.567 428.109 C 636.854 426.955, 633 424.626, 633 425.350 M 827.733 432.124 C 828.412 432.808, 829.219 433.115, 829.526 432.807 C 829.834 432.499, 829.279 431.940, 828.293 431.564 C 826.868 431.022, 826.753 431.136, 827.733 432.124 M 794.902 455.750 C 796.996 458.913, 799.514 463.075, 800.496 465 C 802.459 468.844, 806 473.696, 806 472.540 C 806 472.138, 803.608 467.915, 800.684 463.155 C 792.827 450.365, 792.581 450, 791.806 450 C 791.415 450, 792.808 452.587, 794.902 455.750 M 611 452.287 C 611 452.510, 611.613 453.999, 612.363 455.596 C 613.112 457.193, 614.982 461.543, 616.518 465.262 C 618.053 468.981, 619.470 471.863, 619.666 471.668 C 620.125 471.209, 617.239 463.009, 616.117 461.586 C 615.646 460.989, 614.719 458.819, 614.057 456.764 C 613.077 453.718, 611 450.678, 611 452.287 M 620.571 476 C 620.933 477.925, 621.647 480.175, 622.158 481 C 622.775 481.997, 622.866 481.326, 622.429 479 C 622.067 477.075, 621.353 474.825, 620.842 474 C 620.225 473.003, 620.134 473.674, 620.571 476 M 868.732 481 C 869.674 482.100, 870.790 483, 871.212 483 C 871.635 483, 871.210 482.100, 870.268 481 C 869.326 479.900, 868.210 479, 867.788 479 C 867.365 479, 867.790 479.900, 868.732 481 M 810 481.365 C 810 482.554, 812.869 489, 813.398 489 C 813.673 489, 813.199 487.313, 812.344 485.250 C 810.739 481.378, 810 480.153, 810 481.365 M 906 483.941 C 906 484.459, 906.445 485.157, 906.989 485.493 C 907.555 485.843, 907.723 485.442, 907.382 484.552 C 906.717 482.820, 906 482.503, 906 483.941 M 813.660 491.742 C 813.279 492.358, 813.374 493.113, 813.870 493.420 C 814.367 493.727, 815.080 495.613, 815.455 497.612 C 815.830 499.611, 816.510 501.978, 816.967 502.873 C 818.564 506.005, 822.970 518.530, 823.607 521.750 C 823.961 523.538, 824.644 525, 825.125 525 C 826.336 525, 826.307 524.860, 823.545 517.523 C 822.194 513.935, 821.384 511, 821.745 511 C 822.105 511, 821.860 510.460, 821.200 509.800 C 820.540 509.140, 820 507.911, 820 507.069 C 820 506.227, 819.044 503.055, 817.875 500.019 C 816.706 496.984, 815.435 493.627, 815.051 492.561 C 814.604 491.320, 814.103 491.025, 813.660 491.742 M 886 502 C 886 502.550, 886.477 503, 887.059 503 C 887.641 503, 887.840 502.550, 887.500 502 C 887.160 501.450, 886.684 501, 886.441 501 C 886.198 501, 886 501.450, 886 502 M 892.856 514.750 C 898.866 527.060, 901.999 533, 902.481 533 C 902.957 533, 900.257 526.489, 897.712 521.500 C 896.870 519.850, 894.921 515.913, 893.380 512.750 C 891.839 509.587, 890.239 507, 889.825 507 C 889.411 507, 890.775 510.488, 892.856 514.750 M 864 511.966 C 864 513.047, 864.648 515.410, 865.439 517.216 C 866.230 519.022, 867.186 521.850, 867.562 523.500 C 867.939 525.150, 868.454 525.938, 868.707 525.250 C 869.162 524.013, 865.220 510, 864.417 510 C 864.188 510, 864 510.885, 864 511.966 M 826.079 527.583 C 826.127 528.748, 826.364 528.985, 826.683 528.188 C 826.972 527.466, 826.936 526.603, 826.604 526.271 C 826.272 525.939, 826.036 526.529, 826.079 527.583 M 359.079 531.583 C 359.127 532.748, 359.364 532.985, 359.683 532.188 C 359.972 531.466, 359.936 530.603, 359.604 530.271 C 359.272 529.939, 359.036 530.529, 359.079 531.583 M 357.625 537.125 C 356.791 541.293, 357.599 542.101, 358.500 538 C 358.880 536.271, 358.982 534.649, 358.727 534.394 C 358.472 534.139, 357.976 535.368, 357.625 537.125 M 616.158 538 C 616.158 539.375, 616.385 539.938, 616.662 539.250 C 616.940 538.563, 616.940 537.438, 616.662 536.750 C 616.385 536.063, 616.158 536.625, 616.158 538 M 872.818 539.787 C 872.540 541.680, 872.834 542.667, 873.675 542.667 C 874.544 542.667, 874.756 541.837, 874.337 540.083 C 873.484 536.518, 873.303 536.483, 872.818 539.787 M 616.079 548.583 C 616.127 549.748, 616.364 549.985, 616.683 549.188 C 616.972 548.466, 616.936 547.603, 616.604 547.271 C 616.272 546.939, 616.036 547.529, 616.079 548.583 M 617.641 559.047 C 617.298 560.761, 617.397 562.914, 617.861 563.832 C 620.537 569.124, 619.935 659.528, 617.046 686 C 616.536 690.675, 615.611 699.675, 614.989 706 C 614.368 712.325, 613.237 722.225, 612.477 728 C 611.716 733.775, 610.840 740.525, 610.529 743 C 609.037 754.901, 605.171 779.060, 603.482 787.038 C 602.613 791.142, 601.880 796.750, 601.853 799.500 C 601.827 802.250, 601.460 804.725, 601.037 805 C 600.615 805.275, 599.988 806.625, 599.644 808 C 599.300 809.375, 599.267 809.966, 599.572 809.313 C 599.954 808.492, 600.730 808.730, 602.085 810.085 C 603.575 811.575, 604.489 811.809, 605.891 811.058 C 606.907 810.515, 608.021 810.355, 608.369 810.702 C 608.716 811.049, 609 810.583, 609 809.667 C 609 808.750, 609.450 808, 610 808 C 610.550 808, 611 808.750, 611 809.667 C 611 812.777, 612.444 809.908, 612.672 806.345 C 612.797 804.397, 613.531 801.835, 614.303 800.652 C 615.075 799.468, 616.204 795.800, 616.811 792.500 C 618.261 784.621, 618.435 783.876, 621.023 774.500 C 622.237 770.100, 623.438 765.150, 623.691 763.500 C 623.944 761.850, 624.991 755.550, 626.017 749.500 C 628.029 737.638, 629.241 726.312, 631.098 702 C 633.225 674.161, 630.355 620.804, 625.019 589 C 624.512 585.975, 623.861 581.475, 623.572 579 C 622.883 573.081, 619.530 557.197, 618.820 556.487 C 618.514 556.181, 617.983 557.333, 617.641 559.047 M 899.800 579.200 C 900.733 580.133, 901.267 580.133, 902.200 579.200 C 903.133 578.267, 902.867 578, 901 578 C 899.133 578, 898.867 578.267, 899.800 579.200 M 901.989 593.250 C 901.983 595.587, 901.765 599.300, 901.504 601.500 L 901.031 605.500 901.896 602 C 903.447 595.725, 904.008 589, 902.981 589 C 902.441 589, 901.995 590.913, 901.989 593.250 M 897.232 597.500 C 897.268 601.490, 897.549 602.830, 898.073 601.500 C 898.661 600.003, 898.919 600.632, 899.098 604 C 899.309 607.987, 899.375 608.101, 899.672 605 C 899.857 603.075, 899.371 599.250, 898.593 596.500 L 897.178 591.500 897.232 597.500 M 901.158 611 C 901.158 612.375, 901.385 612.938, 901.662 612.250 C 901.940 611.563, 901.940 610.438, 901.662 609.750 C 901.385 609.063, 901.158 609.625, 901.158 611 M 178 636.256 C 178 661.633, 179.258 676.748, 183.015 696.500 C 186.726 716.009, 193.916 740.322, 201.498 759 C 205.993 770.074, 219.687 797.150, 224.459 804.398 C 226.956 808.192, 229 811.516, 229 811.784 C 229 812.051, 230.125 813.313, 231.500 814.588 C 232.875 815.862, 234 817.754, 234 818.792 C 234 819.871, 235.155 821.205, 236.698 821.908 C 238.858 822.893, 239.107 823.320, 237.948 824.053 C 236.768 824.800, 236.844 824.972, 238.357 824.985 C 239.622 824.995, 240.024 825.495, 239.618 826.552 C 239.291 827.406, 239.435 827.849, 239.939 827.537 C 240.444 827.226, 241.144 827.877, 241.495 828.985 C 242.487 832.111, 243.593 831.366, 243.703 827.500 C 243.757 825.575, 243.449 824, 243.018 824 C 242.586 824, 241.973 823.212, 241.656 822.250 C 241.338 821.288, 239.148 817.076, 236.789 812.891 C 224.415 790.937, 217.976 778.668, 214.015 769.500 C 212.827 766.750, 211.265 763.150, 210.542 761.500 C 198.427 733.820, 189.635 699.624, 184.059 658.500 C 181.145 637.003, 180 625.738, 180 618.558 C 180 614.853, 179.565 612, 179 612 C 178.361 612, 178 620.752, 178 636.256 M 901.158 622 C 901.158 623.375, 901.385 623.938, 901.662 623.250 C 901.940 622.563, 901.940 621.438, 901.662 620.750 C 901.385 620.063, 901.158 620.625, 901.158 622 M 821.825 662.326 C 821.452 664.151, 821.592 664.808, 822.218 664.182 C 822.751 663.649, 823.011 662.377, 822.794 661.356 C 822.503 659.981, 822.251 660.233, 821.825 662.326 M 832 673 C 832 673.550, 832.675 674, 833.500 674 C 834.325 674, 835 673.550, 835 673 C 835 672.450, 834.325 672, 833.500 672 C 832.675 672, 832 672.450, 832 673 M 836.500 677 C 836.148 677.569, 837.009 678, 838.500 678 C 839.991 678, 840.852 677.569, 840.500 677 C 840.160 676.450, 839.260 676, 838.500 676 C 837.740 676, 836.840 676.450, 836.500 677 M 824 678.500 C 824 679.325, 824.730 680, 825.622 680 C 826.951 680, 827.020 679.729, 826 678.500 C 825.315 677.675, 824.585 677, 824.378 677 C 824.170 677, 824 677.675, 824 678.500 M 146.232 681 C 146.232 682.925, 146.438 683.712, 146.689 682.750 C 146.941 681.788, 146.941 680.212, 146.689 679.250 C 146.438 678.288, 146.232 679.075, 146.232 681 M 815.079 683.583 C 815.127 684.748, 815.364 684.985, 815.683 684.188 C 815.972 683.466, 815.936 682.603, 815.604 682.271 C 815.272 681.939, 815.036 682.529, 815.079 683.583 M 832 685.441 C 832 686.848, 832.354 688, 832.787 688 C 833.922 688, 834.049 684.148, 832.936 683.461 C 832.421 683.142, 832 684.034, 832 685.441 M 147 687 C 147 687.550, 147.450 688, 148 688 C 148.550 688, 149 687.550, 149 687 C 149 686.450, 148.550 686, 148 686 C 147.450 686, 147 686.450, 147 687 M 814.564 688.293 C 814.940 689.279, 815.499 689.834, 815.807 689.526 C 816.115 689.219, 815.808 688.412, 815.124 687.733 C 814.136 686.753, 814.022 686.868, 814.564 688.293 M 813.860 693.697 C 813.586 695.456, 813.730 696.667, 814.181 696.388 C 814.631 696.110, 815 696.434, 815 697.108 C 815 697.782, 815.191 698.143, 815.423 697.910 C 815.656 697.677, 815.512 695.914, 815.103 693.993 L 814.359 690.500 813.860 693.697 M 814.079 700.583 C 814.127 701.748, 814.364 701.985, 814.683 701.188 C 814.972 700.466, 814.936 699.603, 814.604 699.271 C 814.272 698.939, 814.036 699.529, 814.079 700.583 M 814.252 707.500 C 814.263 709.700, 814.468 710.482, 814.707 709.238 C 814.946 707.994, 814.937 706.194, 814.687 705.238 C 814.437 704.282, 814.241 705.300, 814.252 707.500 M 806.079 724.583 C 806.127 725.748, 806.364 725.985, 806.683 725.188 C 806.972 724.466, 806.936 723.603, 806.604 723.271 C 806.272 722.939, 806.036 723.529, 806.079 724.583 M 898.500 748 C 898.160 748.550, 898.359 749, 898.941 749 C 899.523 749, 900 748.550, 900 748 C 900 747.450, 899.802 747, 899.559 747 C 899.316 747, 898.840 747.450, 898.500 748 M 854 756 C 854 756.550, 854.477 757, 855.059 757 C 855.641 757, 855.840 756.550, 855.500 756 C 855.160 755.450, 854.684 755, 854.441 755 C 854.198 755, 854 755.450, 854 756 M 852.200 759.259 C 851.445 760.168, 851.431 761.014, 852.152 762.034 C 853.017 763.257, 853.099 763.220, 852.651 761.815 C 852.355 760.888, 852.650 759.937, 853.306 759.702 C 853.963 759.466, 854.227 758.976, 853.893 758.613 C 853.558 758.249, 852.797 758.540, 852.200 759.259 M 849.510 765.016 C 849.856 765.575, 850.557 765.774, 851.069 765.457 C 852.456 764.600, 852.198 764, 850.441 764 C 849.584 764, 849.165 764.457, 849.510 765.016 M 847.415 767.765 C 846.818 768.169, 845.832 770.525, 845.223 773 C 844.240 776.999, 844.277 777.284, 845.558 775.559 C 846.351 774.491, 847 772.777, 847 771.750 C 847 770.578, 847.436 770.152, 848.170 770.605 C 848.947 771.085, 849.134 770.791, 848.726 769.729 C 848.389 768.849, 848.650 767.911, 849.306 767.644 C 849.963 767.376, 850.050 767.129, 849.500 767.094 C 848.950 767.059, 848.012 767.361, 847.415 767.765 M 134.500 777 C 134.840 777.550, 135.316 778, 135.559 778 C 135.802 778, 136 777.550, 136 777 C 136 776.450, 135.523 776, 134.941 776 C 134.359 776, 134.160 776.450, 134.500 777 M 841.592 780.500 C 840.691 781.875, 840.342 783, 840.816 783 C 841.291 783, 842.192 781.875, 842.818 780.500 C 843.445 779.125, 843.794 778, 843.594 778 C 843.394 778, 842.493 779.125, 841.592 780.500 M 592 784.441 C 592 785.298, 592.450 786, 593 786 C 593.550 786, 594 785.577, 594 785.059 C 594 784.541, 593.550 783.840, 593 783.500 C 592.450 783.160, 592 783.584, 592 784.441 M 833.459 793.067 C 833.096 793.653, 833.014 794.348, 833.276 794.610 C 833.538 794.872, 834.019 794.392, 834.345 793.543 C 835.021 791.781, 834.445 791.471, 833.459 793.067 M 829 798.059 C 829 798.641, 829.450 798.840, 830 798.500 C 830.550 798.160, 831 797.684, 831 797.441 C 831 797.198, 830.550 797, 830 797 C 829.450 797, 829 797.477, 829 798.059 M 862.733 801.124 C 863.412 801.808, 864.219 802.115, 864.526 801.807 C 864.834 801.499, 864.279 800.940, 863.293 800.564 C 861.868 800.022, 861.753 800.136, 862.733 801.124 M 617.061 809 C 617.061 811.855, 617.249 812.178, 618.080 810.750 C 618.772 809.561, 618.772 808.439, 618.080 807.250 C 617.249 805.822, 617.061 806.145, 617.061 809 M 615.500 815 C 615.160 815.550, 615.359 816, 615.941 816 C 616.523 816, 617 815.550, 617 815 C 617 814.450, 616.802 814, 616.559 814 C 616.316 814, 615.840 814.450, 615.500 815 M 162.543 818.931 C 162.226 819.443, 162.425 820.144, 162.984 820.490 C 163.543 820.835, 164 820.416, 164 819.559 C 164 817.802, 163.400 817.544, 162.543 818.931 M 613 825.059 C 613 825.641, 613.450 825.840, 614 825.500 C 614.550 825.160, 615 824.684, 615 824.441 C 615 824.198, 614.550 824, 614 824 C 613.450 824, 613 824.477, 613 825.059 M 170 829 C 170 829.550, 170.477 830, 171.059 830 C 171.641 830, 171.840 829.550, 171.500 829 C 171.160 828.450, 170.684 828, 170.441 828 C 170.198 828, 170 828.450, 170 829 M 245 829.559 C 245 830.416, 245.450 830.840, 246 830.500 C 246.550 830.160, 247 829.459, 247 828.941 C 247 828.423, 246.550 828, 246 828 C 245.450 828, 245 828.702, 245 829.559 M 246.446 833.087 C 246.077 833.685, 246.179 834.579, 246.673 835.073 C 247.204 835.604, 247.571 835.160, 247.571 833.986 C 247.571 831.713, 247.386 831.566, 246.446 833.087 M 866.813 832.683 C 867.534 832.972, 868.397 832.936, 868.729 832.604 C 869.061 832.272, 868.471 832.036, 867.417 832.079 C 866.252 832.127, 866.015 832.364, 866.813 832.683 M 874 834.452 C 876.475 835.175, 883.621 837.199, 889.880 838.951 C 896.139 840.703, 905.038 843.882, 909.656 846.016 C 914.275 848.150, 917.754 849.411, 917.388 848.818 C 915.989 846.556, 901.906 841.013, 887.583 837.088 C 879.379 834.839, 871.954 833.031, 871.083 833.070 C 870.213 833.108, 871.525 833.730, 874 834.452 M 362 834.941 C 362 835.459, 362.450 836.160, 363 836.500 C 363.550 836.840, 364 836.416, 364 835.559 C 364 834.702, 363.550 834, 363 834 C 362.450 834, 362 834.423, 362 834.941 M 733.500 837 C 733.160 837.550, 733.359 838, 733.941 838 C 734.523 838, 735 837.550, 735 837 C 735 836.450, 734.802 836, 734.559 836 C 734.316 836, 733.840 836.450, 733.500 837 M 251.211 841.399 C 251.920 842.169, 252.658 842.649, 252.850 842.466 C 253.443 841.902, 251.940 840, 250.902 840 C 250.362 840, 250.501 840.630, 251.211 841.399 M 872.750 841.662 C 873.438 841.940, 874.563 841.940, 875.250 841.662 C 875.938 841.385, 875.375 841.158, 874 841.158 C 872.625 841.158, 872.063 841.385, 872.750 841.662 M 885.813 844.683 C 886.534 844.972, 887.397 844.936, 887.729 844.604 C 888.061 844.272, 887.471 844.036, 886.417 844.079 C 885.252 844.127, 885.015 844.364, 885.813 844.683 M 823.284 848.929 L 819.069 851.703 823.284 852.965 C 827.822 854.324, 829.573 854.971, 835 857.294 C 836.925 858.118, 840.862 859.794, 843.750 861.019 C 846.638 862.244, 849 863.641, 849 864.123 C 849 864.605, 850.035 865, 851.300 865 C 852.565 865, 854.159 865.559, 854.842 866.242 C 855.830 867.230, 856.275 867.180, 857.026 865.992 C 858.332 863.927, 858.288 863.723, 855.750 859.965 C 853.291 856.324, 847.938 852.894, 838.184 848.710 C 830.431 845.384, 828.633 845.410, 823.284 848.929 M 896.500 848 C 897.600 848.473, 899.175 848.859, 900 848.859 C 900.945 848.859, 900.761 848.542, 899.500 848 C 898.400 847.527, 896.825 847.141, 896 847.141 C 895.055 847.141, 895.239 847.458, 896.500 848 M 195.872 878.750 C 194.629 880.336, 194.664 880.371, 196.250 879.128 C 197.916 877.821, 198.445 877, 197.622 877 C 197.415 877, 196.627 877.788, 195.872 878.750 M 185.750 880.662 C 186.438 880.940, 187.563 880.940, 188.250 880.662 C 188.938 880.385, 188.375 880.158, 187 880.158 C 185.625 880.158, 185.063 880.385, 185.750 880.662 M 195 882.500 C 195 883.417, 195.484 884.005, 196.075 883.808 C 196.666 883.611, 197.150 883.023, 197.150 882.500 C 197.150 881.977, 196.666 881.389, 196.075 881.192 C 195.484 880.995, 195 881.583, 195 882.500 M 190.500 898.460 C 171.517 902.864, 161.037 907.142, 154.874 913.005 C 151.383 916.326, 151.120 916.933, 151.941 919.794 C 153.271 924.431, 153.783 924.977, 158.860 927.167 C 180.566 936.532, 221.817 942.211, 281.500 944.051 C 299.650 944.611, 328.450 945.976, 345.500 947.085 C 375.917 949.064, 384.453 949.698, 412.421 952.053 C 420.077 952.698, 428.291 952.958, 430.674 952.631 C 434.859 952.058, 442.345 948.869, 443.359 947.229 C 444.011 946.173, 444.530 946.202, 414 945.604 C 386.392 945.064, 363.615 942.959, 342 938.949 C 335.675 937.776, 329.150 936.629, 327.500 936.401 C 325.850 936.172, 323.150 935.554, 321.500 935.026 C 315.847 933.219, 303.498 931.171, 294.500 930.550 C 277.638 929.384, 254.659 926.077, 243 923.138 C 235.158 921.161, 225.892 916.652, 220.454 912.166 C 219.879 911.691, 218.754 911.067, 217.954 910.780 C 216.039 910.091, 221.398 909.241, 232.488 908.477 C 237.432 908.136, 241.671 907.662, 241.909 907.425 C 242.485 906.848, 238.190 902.299, 234.723 899.815 C 231.974 897.845, 231.910 897.845, 228.223 899.751 C 223.841 902.016, 217.603 903.451, 218.509 901.985 C 218.844 901.443, 219.574 901, 220.130 901 C 220.687 901, 221.757 900.386, 222.507 899.636 C 225.178 896.965, 222.069 895.997, 211.050 896.070 C 203.769 896.118, 197.402 896.859, 190.500 898.460 M 246.502 909.996 C 245.829 911.085, 253.618 913.354, 255.031 912.481 C 256.673 911.466, 253.770 909.517, 250.283 909.293 C 248.513 909.179, 246.812 909.495, 246.502 909.996 M 224 911.895 C 224 913.570, 230.895 917.728, 237.369 919.955 C 250.730 924.552, 286 929.045, 286 926.150 C 286 925.518, 284.595 925, 282.878 925 C 280.314 925, 279.963 924.749, 280.918 923.599 C 281.881 922.439, 281.174 922.085, 276.790 921.536 C 269.484 920.622, 257.669 917.306, 250.500 914.158 C 245.592 912.003, 242.634 911.459, 234.250 911.171 C 227.377 910.934, 224 911.173, 224 911.895 M 257.813 913.683 C 258.534 913.972, 259.397 913.936, 259.729 913.604 C 260.061 913.272, 259.471 913.036, 258.417 913.079 C 257.252 913.127, 257.015 913.364, 257.813 913.683 M 196 921.441 C 196 922.234, 196.408 923.134, 196.907 923.442 C 197.405 923.751, 197.578 923.102, 197.290 922.001 C 196.679 919.666, 196 919.371, 196 921.441 M 791.500 922.427 C 789.850 923.121, 784 924.495, 778.500 925.481 C 773 926.467, 765.661 927.785, 762.191 928.411 C 758.721 929.037, 756.209 929.875, 756.608 930.274 C 757.007 930.673, 755.458 931, 753.167 931 C 750.367 931, 749.082 931.410, 749.250 932.250 C 749.419 933.093, 748.245 933.460, 745.646 933.377 C 743.154 933.297, 742.271 933.557, 743.146 934.111 C 745.045 935.315, 767.455 935.212, 774.583 933.966 C 794.191 930.542, 811.189 924.855, 808.840 922.507 C 807.555 921.222, 794.511 921.162, 791.500 922.427 M 200 926 C 200.825 926.533, 201.950 926.969, 202.500 926.969 C 203.050 926.969, 202.825 926.533, 202 926 C 201.175 925.467, 200.050 925.031, 199.500 925.031 C 198.950 925.031, 199.175 925.467, 200 926 M 206.095 927.949 C 209.069 929.770, 240.824 936.039, 253.886 937.383 C 262.874 938.309, 258.823 936.919, 248.331 935.478 C 236.363 933.834, 224.485 931.676, 216.482 929.692 C 206.528 927.224, 204.300 926.850, 206.095 927.949 M 265.250 938.689 C 266.212 938.941, 267.788 938.941, 268.750 938.689 C 269.712 938.438, 268.925 938.232, 267 938.232 C 265.075 938.232, 264.288 938.438, 265.250 938.689" stroke="none" fill="black" fill-rule="evenodd"/>
</svg>