<svg xmlns="http://www.w3.org/2000/svg" width="1024" height="1024" viewBox="0 0 1024 1024" version="1.1">
	<path d="M 705.228 111.057 C 698.358 119.147, 686.862 131.876, 680.250 138.716 C 676.263 142.840, 673 146.526, 673 146.908 C 673 147.289, 670.560 150.119, 667.579 153.198 C 664.597 156.276, 661.390 160.304, 660.452 162.148 C 659.514 163.991, 657.020 167.300, 654.910 169.500 C 647.832 176.880, 635.524 190.611, 632.954 193.995 L 630.407 197.347 615.454 192.191 C 580.200 180.038, 548.713 174.991, 508.278 175.011 C 476.751 175.026, 451.941 178.029, 425.500 185.029 C 402.414 191.142, 392.306 194.987, 370.500 205.955 C 341.586 220.498, 319.596 236.395, 296.454 259.484 C 244.855 310.963, 215.555 370.696, 204.474 447 C 202.272 462.162, 201.482 495.552, 202.900 513.500 C 206.898 564.088, 220.860 610.643, 244.626 652.631 C 251.396 664.592, 277 704.292, 277 702.828 C 277 702.488, 276.126 699.351, 275.059 695.855 C 265.623 664.963, 263.846 623.072, 270.030 577.310 C 274.736 542.483, 282.190 502.790, 287.598 483.754 C 300.804 437.275, 307.160 418.723, 314.238 406 L 317.297 400.500 313.480 404.856 C 302.867 416.967, 295.117 432.637, 284.475 463.500 C 271.919 499.913, 258.713 518.921, 237.500 531.109 C 234.750 532.689, 232.097 533.985, 231.605 533.991 C 231.113 533.996, 233.735 531.228, 237.432 527.841 C 249.032 517.212, 258.182 501.603, 263.424 483.500 C 264.857 478.550, 267.585 465.243, 269.486 453.929 C 275.990 415.222, 283.824 395.026, 301.379 371.705 C 311.403 358.390, 335.399 336.097, 348.273 328.141 C 350.323 326.874, 352 325.673, 352 325.472 C 352 324.676, 341.078 328.934, 334 332.489 C 317.297 340.879, 298.466 356.491, 287.847 370.750 C 281.736 378.956, 281.742 377.358, 287.867 366 C 297.515 348.110, 309.271 334.500, 322.742 325.627 C 339.323 314.706, 357.346 306.907, 374.948 303.036 C 385.906 300.626, 406.424 298, 414.292 298 C 418.991 298, 420.127 297.727, 419.218 296.818 C 417.484 295.084, 381.379 294.422, 371.038 295.934 C 353.373 298.517, 336.071 304.781, 324.092 312.930 C 320.322 315.495, 318.264 316.471, 319.092 315.302 C 328.981 301.343, 348.856 285.568, 367.342 277.005 C 385.944 268.389, 400.937 264.680, 417.500 264.600 C 431.323 264.533, 436.633 265.614, 450.100 271.240 L 459.700 275.249 459.221 289.375 C 458.802 301.710, 459.015 304.499, 460.904 311.383 C 462.094 315.719, 462.939 319.336, 462.783 319.422 C 460.060 320.916, 446.511 332.837, 441.335 338.292 C 418.217 362.657, 404.436 391.079, 397.840 428 C 395.778 439.543, 396.049 477.579, 398.297 492 C 403.202 523.473, 412.759 551.589, 429.357 583.378 C 433.413 591.145, 439.913 603.575, 443.803 611 C 464.790 651.059, 473.674 687.473, 471.001 722.481 C 469.208 745.971, 461.806 775.562, 452.899 794.840 C 450.755 799.482, 449 803.814, 449 804.467 C 449 805.561, 461.265 808.023, 466.635 808.007 C 469.673 807.997, 487.782 785.031, 496.035 770.719 C 506.980 751.741, 514.679 729.525, 518.464 706 C 520.694 692.137, 520.477 668.997, 517.980 654.349 C 514.249 632.469, 503.003 603.499, 488.329 577.967 C 475.934 556.402, 465.066 535.177, 465.018 532.443 C 465.008 531.862, 467.813 534.058, 471.250 537.324 C 478.384 544.102, 488.631 551.273, 497.777 555.889 C 505.957 560.017, 520.890 564.996, 525.148 565.015 C 526.991 565.024, 528.970 565.361, 529.544 565.765 C 530.119 566.169, 531.166 570.100, 531.871 574.500 C 533.632 585.482, 536.791 597.749, 544.360 623.005 C 557.749 667.683, 560.396 693.715, 554.454 722.306 C 549.346 746.884, 535.625 773.297, 514.259 799.680 C 509.769 805.225, 506.269 809.936, 506.482 810.149 C 507.384 811.051, 533.821 808.795, 549.863 806.447 C 614.096 797.048, 670.143 768.436, 719.171 720.014 C 773.751 666.111, 805.423 602.113, 816.177 524 C 818.164 509.571, 817.870 465.587, 815.686 450.500 C 805.292 378.703, 776.017 318.494, 726.539 267.159 C 711.627 251.687, 683.969 229.137, 667.250 218.820 C 662.712 216.021, 659 213.512, 659 213.247 C 659 212.981, 660.416 211.151, 662.147 209.179 C 663.878 207.208, 666.668 202.648, 668.346 199.047 C 670.024 195.446, 673.107 189.843, 675.198 186.595 C 677.289 183.347, 679 179.894, 679 178.922 C 679 177.949, 680.122 175.820, 681.493 174.190 C 683.969 171.248, 688.972 161.433, 688.990 159.482 C 688.996 158.922, 690.800 156.285, 693 153.623 C 695.331 150.802, 697 147.729, 697 146.259 C 697 144.871, 700.395 136.947, 704.545 128.649 C 712.194 113.354, 713.331 108.864, 709.728 108.181 C 708.683 107.983, 706.835 109.164, 705.228 111.057 M 697.964 128.164 C 696.819 130.397, 696.846 130.424, 698.574 128.774 C 699.568 127.824, 700.107 126.773, 699.771 126.438 C 699.436 126.103, 698.623 126.880, 697.964 128.164 M 683.524 146.339 C 680.486 150.375, 678 154.200, 678 154.839 C 678 156.543, 680.604 156.253, 682.521 154.336 C 684.735 152.122, 691.086 139, 689.943 139 C 689.451 139, 686.562 142.303, 683.524 146.339 M 671.781 158.744 C 668.940 161.984, 667 166.869, 667 170.784 C 667 172.919, 667.284 174.951, 667.631 175.298 C 668.810 176.477, 671.967 173.957, 675.990 168.629 C 680.177 163.084, 681.046 160.661, 678.498 161.639 C 677.672 161.956, 675.832 161.924, 674.410 161.567 C 672.259 161.027, 672.031 160.668, 673.054 159.435 C 674.826 157.299, 673.621 156.646, 671.781 158.744 M 657.606 177.589 C 653.810 184.382, 652.706 189.899, 654.573 192.750 C 657.423 197.103, 661.645 194.792, 666.905 186 L 670.793 179.500 666.823 179.189 C 663.477 178.927, 662.651 178.398, 661.571 175.832 L 660.291 172.786 657.606 177.589 M 646.875 189 C 642.891 194.313, 642 196.495, 642 200.934 C 642 205.214, 640.576 206.391, 639.500 203 C 639.151 201.900, 638.527 201, 638.113 201 C 636.721 201, 628.953 210.338, 628.352 212.735 C 627.290 216.964, 628.593 225.229, 630.546 226.658 C 632.877 228.362, 631.790 229.493, 629.169 228.091 C 628.068 227.501, 626.418 224.765, 625.503 222.010 C 624.588 219.254, 623.714 217, 623.561 217 C 623.408 217, 621.544 219.588, 619.418 222.750 C 615.969 227.881, 615.559 229.146, 615.611 234.500 C 615.674 241.093, 618.565 248.162, 621.938 249.967 C 623 250.535, 625.426 251, 627.331 251 C 630.032 251, 631.465 250.235, 633.851 247.517 C 636.542 244.452, 641 233.202, 641 229.476 C 641 228.754, 642.535 227.215, 644.411 226.055 C 647.212 224.324, 648.187 222.746, 649.871 217.224 C 650.999 213.526, 653.479 208.037, 655.382 205.027 C 658.957 199.374, 659.110 198, 656.163 198 C 652.453 198, 650.120 195.150, 649.804 190.231 L 649.500 185.500 646.875 189 M 572 208.216 C 567.325 213.213, 561.250 218.964, 558.499 220.998 C 552.072 225.749, 544.228 233.708, 543.400 236.316 C 542.474 239.234, 545.436 241, 551.256 241 C 556.001 241, 556.326 240.801, 563.630 233.401 C 567.756 229.221, 572.452 223.979, 574.066 221.751 L 577 217.700 576.956 224.600 C 576.932 228.395, 576.523 233.300, 576.047 235.500 C 575.570 237.700, 574.596 242.093, 573.881 245.263 C 572.643 250.753, 572.686 251.130, 574.778 253.222 C 576.949 255.394, 576.991 255.396, 578.532 253.459 C 583.765 246.882, 586.314 235.593, 586.314 219 C 586.313 206.098, 584.688 198.919, 581.801 199.066 C 581.085 199.102, 576.675 203.220, 572 208.216 M 512.316 204.920 C 510.436 206.672, 498.606 224.110, 486.482 243 C 475.789 259.661, 471.566 273.025, 471.632 290 C 471.668 299.228, 472.104 302.670, 473.843 307.420 C 476.297 314.125, 480.122 321.026, 482.461 322.968 C 484.383 324.563, 486.641 322.808, 491.236 316.147 L 494.238 311.793 491.996 302.482 C 490.099 294.609, 489.825 291.266, 490.220 280.836 C 490.785 265.916, 493.578 256.523, 501.229 243.818 C 503.984 239.243, 508.304 232.012, 510.829 227.750 C 513.353 223.488, 515.729 220, 516.108 220 C 517.102 220, 521.753 233.382, 523.407 241 C 527.875 261.581, 525.586 277.874, 515.362 298.250 C 513.499 301.962, 512.294 305, 512.684 305 C 514.313 305, 521.200 299.462, 524.338 295.628 C 532.593 285.545, 536 274.468, 536 257.715 C 536 248.651, 535.462 244.133, 533.456 236.359 C 530.356 224.341, 523.216 209.201, 518.959 205.619 C 515.238 202.488, 514.958 202.459, 512.316 204.920 M 602.634 240.259 L 595.768 247.482 596.228 254.491 C 597.264 270.278, 607.974 280.685, 617.901 275.551 C 621.395 273.745, 623.633 270.380, 626.088 263.244 C 628.540 256.118, 628.499 255.529, 625.543 255.359 C 618.774 254.968, 612.702 247.403, 611.373 237.702 C 611.018 235.116, 610.452 233.008, 610.114 233.019 C 609.776 233.029, 606.410 236.287, 602.634 240.259 M 421.500 239.100 C 410.291 239.826, 404.796 240.709, 393.729 243.562 C 385.465 245.693, 373.466 250.726, 371.819 252.752 C 370.663 254.174, 370.747 254.273, 372.500 253.551 C 390.063 246.319, 416.643 247.448, 438.486 256.354 C 443.289 258.312, 450.121 261.733, 453.667 263.957 C 457.214 266.181, 460.502 268, 460.975 268 C 461.448 268, 462.641 265.889, 463.626 263.308 C 465.433 258.578, 471.403 249.104, 473.403 247.792 C 474.116 247.324, 474.146 246.753, 473.492 246.112 C 471.847 244.501, 452.816 240.082, 444.902 239.473 C 440.831 239.160, 436.375 238.788, 435 238.646 C 433.625 238.503, 427.550 238.708, 421.500 239.100 M 545.846 255.465 L 545.492 259.917 553.854 264.061 L 562.216 268.204 566.565 263.936 C 568.956 261.589, 570.703 259.329, 570.446 258.913 C 569.980 258.158, 553.852 252.692, 548.850 251.594 C 546.329 251.040, 546.183 251.228, 545.846 255.465 M 584.227 260.265 C 577.606 266.936, 576.901 268.038, 576.369 272.547 C 575.589 279.158, 577.188 284.556, 582.113 291.931 C 587.459 299.937, 591.775 303.176, 597.880 303.763 C 602.154 304.173, 603.063 303.884, 606.229 301.104 C 608.632 298.994, 610.789 295.480, 612.896 290.242 C 614.609 285.984, 616.008 282.163, 616.005 281.750 C 616.002 281.337, 614.178 281, 611.950 281 C 609.723 281, 606.627 280.341, 605.069 279.536 C 599.024 276.410, 593.369 266.867, 592.142 257.718 L 591.500 252.936 584.227 260.265 M 569.918 273.250 C 568.139 276.066, 567.921 277.701, 568.282 285.500 C 568.617 292.711, 569.255 295.673, 571.495 300.404 C 576.789 311.582, 587.160 319.431, 594.277 317.645 C 595.630 317.306, 598.401 314.997, 600.435 312.514 L 604.134 308 598.517 308 C 595.428 308, 591.632 307.344, 590.080 306.542 C 585.702 304.277, 578.705 295.874, 575.099 288.550 C 572.297 282.858, 571.876 281.049, 572.164 275.950 C 572.349 272.675, 572.381 269.997, 572.235 269.998 C 572.090 269.999, 571.047 271.462, 569.918 273.250 M 544.724 276.383 C 543.455 288.684, 533.670 303.526, 516.294 319.508 C 484.175 349.050, 466.822 374.754, 455.524 409.523 C 450.220 425.844, 448.500 437.234, 448.503 456 C 448.506 474.948, 450.020 483.739, 455.440 496.276 C 460.491 507.959, 464.607 514.193, 473.627 523.823 C 482.961 533.788, 492.979 540.340, 505.500 544.669 C 512.757 547.178, 515.076 547.469, 530.458 547.805 L 547.416 548.175 555.958 554.047 C 564.521 559.933, 595.010 583.829, 600.342 588.833 C 604.347 592.592, 606.521 597.309, 608.352 606.209 C 609.225 610.449, 610.593 615.484, 611.393 617.398 C 614.921 625.842, 628.208 635.970, 640.413 639.518 C 648.761 641.945, 661.018 641.242, 666.774 638.007 C 669.098 636.701, 671 635.358, 671 635.023 C 671 634.689, 668.942 633.865, 666.428 633.192 C 663.913 632.519, 659.493 630.458, 656.605 628.610 C 651.324 625.232, 649.979 623.589, 635.561 602.914 C 624.919 587.653, 619.356 583.799, 615.637 589.108 C 612.694 593.310, 609.883 587.060, 612.468 582.062 C 614.227 578.661, 616.911 577.562, 621.337 578.432 C 625.842 579.317, 629.944 583.144, 638.025 594 C 646.500 605.386, 657.937 617.293, 663.567 620.592 C 669.697 624.185, 678.715 627, 684.091 627 C 690.140 627, 702.041 624.520, 707.392 622.144 C 712.349 619.943, 718.526 613.325, 721.142 607.413 C 722.196 605.030, 723.428 599.125, 723.881 594.290 C 724.461 588.091, 725.811 582.554, 728.460 575.504 C 731.992 566.107, 732.193 564.968, 731.811 556.504 C 731.228 543.567, 728.500 538.120, 716.533 526 C 703.412 512.711, 693.335 496.860, 669.130 451.436 C 652.510 420.245, 647.311 405.699, 648.292 393.128 C 648.925 385.015, 651.090 382.680, 660.363 380.109 C 665.094 378.797, 668.222 377.208, 670.589 374.913 C 675.168 370.476, 674.886 369.655, 669.750 372.472 C 663.912 375.673, 659.930 376.331, 654.834 374.936 L 650.500 373.749 655.484 372.276 C 662.058 370.333, 665.609 367.686, 668.043 362.916 C 670.411 358.274, 669.580 357.954, 665.626 361.985 C 661.243 366.453, 655.485 366.961, 648.418 363.504 C 642.202 360.462, 637.537 355.042, 623.500 334.551 C 619.100 328.128, 614.651 321.740, 613.614 320.355 L 611.728 317.839 608.358 321.308 C 603.403 326.410, 598.543 328.437, 591.376 328.394 C 583.897 328.350, 575.683 324.683, 569.735 318.735 C 562.310 311.310, 556.603 295.255, 557.096 283.175 C 557.227 279.971, 556.978 276.774, 556.544 276.071 C 555.720 274.738, 548.323 271.060, 546.390 271.022 C 545.778 271.010, 545.030 273.417, 544.724 276.383 M 424.844 324.884 C 401.669 341.484, 384.860 360.638, 371.244 385.960 C 361.012 404.989, 354.620 424.452, 351.391 446.415 C 349.163 461.569, 349.911 490.793, 352.941 506.921 C 358.355 535.747, 374.521 571.678, 393.018 596 C 399.624 604.687, 416.031 622.303, 416.799 621.534 C 417.086 621.247, 416.617 620.222, 415.756 619.256 C 410.638 613.515, 395.951 589.635, 389.561 576.667 C 376.788 550.743, 368.311 524.959, 363.864 498.500 C 361.097 482.038, 360.842 455.436, 363.313 441 C 370.007 401.900, 390.937 362.968, 423.391 329.250 C 428.287 324.163, 432.115 320.026, 431.897 320.058 C 431.679 320.090, 428.505 322.262, 424.844 324.884 M 509 379.032 C 509 381.784, 512.158 387.041, 515.333 389.574 C 519.266 392.712, 519.224 394.003, 515.191 393.994 C 507.286 393.978, 500.006 389.425, 496.880 382.541 C 495.610 379.747, 495.037 379.148, 495.022 380.601 C 494.985 384.144, 497.131 389.271, 500.737 394.255 C 503.953 398.699, 510.803 402.933, 520.500 406.471 C 522.239 407.105, 521.945 407.474, 518.250 409.297 C 513.165 411.806, 512.845 412.995, 517.250 413.015 C 522.919 413.042, 525.352 416.648, 521.977 420.023 C 520.008 421.992, 520.010 422, 522.665 422 C 524.563 422, 527.139 423.736, 531.613 428.033 C 542.089 438.093, 549.899 440.281, 569.588 438.674 C 579.466 437.867, 582.396 437.964, 586.750 439.241 L 592 440.781 591.985 436.140 C 591.933 419.853, 581.079 400.390, 568.562 394.138 C 562.950 391.335, 553.093 389.461, 537.500 388.232 C 524.503 387.208, 517.087 384.851, 512.924 380.419 C 510.519 377.859, 509 377.322, 509 379.032 M 559.676 380.908 C 557.017 381.465, 557.164 381.610, 562.176 383.378 C 567.971 385.421, 581.531 393.719, 584.577 397.085 C 585.622 398.240, 587.292 399.621, 588.286 400.153 C 591.412 401.826, 585.721 391.884, 581.231 387.828 C 575.512 382.661, 565.953 379.592, 559.676 380.908 M 557.270 399.694 C 554.588 400.223, 551 404.519, 551 407.201 C 551 409.437, 552.804 413.169, 554.400 414.235 C 556.270 415.484, 562.953 415.076, 565.941 413.530 C 570.973 410.928, 571.649 404.135, 567.154 401.328 C 564.923 399.935, 560.097 399.137, 557.270 399.694 M 533.217 403.269 C 530.113 406.573, 530.386 411.452, 534.089 418.863 C 540.657 432.007, 554.616 437.630, 573.250 434.640 C 581.174 433.368, 578.568 432.094, 569.250 432.684 C 558.775 433.348, 553.676 432.159, 547.813 427.688 C 541.763 423.073, 538.079 416.603, 536.640 408.062 L 535.435 400.908 533.217 403.269 M 303.601 486.454 C 303.242 487.885, 302.487 495.005, 301.923 502.278 C 299.194 537.507, 307.825 575.761, 326.029 609.114 C 338.340 631.669, 360.707 655.482, 379.500 666.042 L 383.500 668.289 379.500 664.983 C 377.300 663.164, 371.189 657.361, 365.920 652.088 C 348.105 634.260, 334.696 610.530, 323.207 576.500 C 315.125 552.562, 310.285 529.623, 307.488 502 C 305.818 485.511, 304.830 481.558, 303.601 486.454 M 670.500 539.167 C 663.884 542.826, 659.990 549.531, 660.022 557.210 C 660.049 563.628, 662.478 569.306, 667.651 575.043 C 675.200 583.415, 690.180 587.820, 694.935 583.065 C 700.987 577.013, 700.231 556.391, 693.640 547.750 C 687.970 540.316, 676.269 535.976, 670.500 539.167 M 491.671 840.637 C 491.577 840.712, 477.687 841.050, 460.805 841.389 C 443.924 841.728, 426.599 842.520, 422.305 843.150 C 418.012 843.781, 413.525 844.342, 412.333 844.398 C 411.141 844.454, 409.829 844.837, 409.416 845.250 C 409.004 845.663, 406.717 846, 404.333 846 C 401.950 846, 400 846.450, 400 847 C 400 847.550, 399.395 848, 398.655 848 C 397.915 848, 396.480 848.917, 395.466 850.038 C 393.664 852.029, 393.681 852.135, 396.199 854.653 C 400.155 858.610, 416.858 862.627, 445.532 866.517 C 451.599 867.340, 457.674 868.009, 459.032 868.003 C 460.389 867.996, 465.775 868.354, 471 868.796 C 485.449 870.020, 525.942 870.175, 540 869.059 C 575.360 866.254, 580.054 865.692, 600.500 861.821 C 603.250 861.301, 607.362 860.713, 609.637 860.516 C 611.913 860.319, 614.613 859.745, 615.637 859.241 C 616.662 858.737, 618.850 857.674, 620.500 856.879 C 624.475 854.963, 624.856 851.818, 621.437 849.129 C 619.967 847.973, 618.377 847.267, 617.903 847.560 C 617.429 847.853, 616.118 847.598, 614.989 846.994 C 612.303 845.557, 599.576 843.372, 589.500 842.619 C 585.100 842.291, 577 841.695, 571.500 841.295 C 563.479 840.713, 492.312 840.126, 491.671 840.637" stroke="none" fill="black" fill-rule="evenodd"/>
</svg>