<svg xmlns="http://www.w3.org/2000/svg" width="1024" height="1024" viewBox="0 0 1024 1024" version="1.1">
	<path d="M 458 193.511 C 439.264 196.084, 424.136 200.900, 405.574 210.201 C 385.268 220.376, 370.585 231.325, 354.123 248.567 C 332.163 271.567, 315.149 304.327, 308.422 336.567 L 306.738 344.633 298.242 346.237 C 287.695 348.229, 270.289 356.614, 258.917 365.184 C 233.569 384.284, 220.675 411.021, 222.355 441 C 223.009 452.676, 224.794 460.384, 228.980 469.616 L 231.786 475.804 229.893 482.630 C 227.539 491.119, 227.401 504.890, 229.585 513.356 C 234.804 533.583, 252.275 551.192, 274.722 558.847 L 282.500 561.500 391.500 561.778 L 500.500 562.057 500.252 586.778 C 500.116 600.375, 499.891 625.675, 499.752 643 C 499.535 670.071, 499.262 675.024, 497.810 678.228 C 495.273 683.825, 491.331 688.362, 482.727 695.586 C 469.757 706.476, 467.591 711.314, 466.545 731.735 L 465.815 745.969 468.831 748.985 C 472.669 752.823, 476.256 752.897, 479.939 749.215 C 482.647 746.506, 482.739 746.056, 483.233 732.965 C 483.512 725.559, 484.215 718.323, 484.794 716.885 C 485.374 715.448, 490.524 709.598, 496.240 703.885 C 507.324 692.809, 512.044 685.708, 513.813 677.445 C 514.459 674.429, 515.182 650.128, 515.606 617.195 C 516.106 578.390, 516.641 562.006, 517.408 562.021 C 518.009 562.032, 576.775 561.919, 648 561.771 L 777.500 561.500 785.490 558.676 C 804.766 551.865, 819.616 537.397, 825.116 520.072 C 827.794 511.635, 828.669 496.949, 827.037 487.819 C 822.885 464.585, 807.145 446.333, 784.500 438.494 L 778.500 436.417 777.859 428.958 C 775.668 403.444, 762.362 383.659, 739 371.178 C 728.596 365.620, 719.245 362.946, 707.898 362.285 L 698.295 361.725 697.111 355.298 C 693.148 333.793, 683.398 314.549, 669.237 300.286 C 658.932 289.906, 648.967 283.775, 631.252 276.915 C 630.015 276.436, 627.415 273.562, 625.474 270.527 C 616.656 256.743, 598.814 238.064, 583.306 226.381 C 560.327 209.070, 529.432 196.502, 501.500 193.101 C 489.807 191.678, 469.988 191.864, 458 193.511 M 455.500 208.496 C 418.584 215.008, 382.479 236.383, 357.441 266.549 C 340.585 286.858, 327.818 314.597, 322.946 341.500 C 321.751 348.100, 320.180 354.450, 319.455 355.610 C 318.429 357.253, 316.101 358.093, 308.957 359.400 C 285.108 363.764, 266.546 374.321, 252.348 391.596 C 242.458 403.631, 237.942 416.155, 237.239 433.500 C 236.655 447.916, 238.138 454.937, 244.040 465.691 C 246.218 469.659, 247.994 473.714, 247.987 474.703 C 247.980 475.691, 247.128 479.200, 246.093 482.500 C 238.018 508.256, 247.849 530.611, 272.277 542.042 C 275.704 543.646, 280.931 545.418, 283.891 545.979 C 291.344 547.393, 768.656 547.393, 776.109 545.979 C 788.129 543.700, 800.998 534.979, 806.700 525.249 C 812.816 514.814, 814.748 499.130, 811.469 486.542 C 805.950 465.355, 787.044 450, 766.475 450 C 759.793 450, 750.698 452.655, 746.057 455.959 C 742.429 458.542, 736.630 458.630, 734.140 456.140 C 733.117 455.117, 731.332 451.161, 730.174 447.348 C 727.464 438.424, 721.945 429.979, 714.080 422.718 C 707.280 416.440, 700.316 412.536, 689.669 409.032 C 679.355 405.637, 676.841 400.354, 681.087 391 C 685.366 381.573, 682.974 353.123, 676.580 337.390 C 667.762 315.689, 649.560 298.126, 629.500 291.963 C 625.650 290.780, 621.556 289.446, 620.403 288.997 C 619.250 288.549, 615.563 283.754, 612.210 278.341 C 592.442 246.428, 556.776 221.097, 517.048 210.754 C 506.309 207.958, 504.029 207.724, 484.500 207.416 C 469.542 207.180, 461.198 207.491, 455.500 208.496 M 697.648 383.120 C 697.292 386.629, 696.739 390.865, 696.419 392.533 C 695.850 395.497, 696.013 395.644, 703.534 398.949 C 711.238 402.335, 720.555 408.496, 726.854 414.372 C 730.546 417.816, 738.512 429.141, 741.841 435.680 L 743.969 439.860 749.377 437.959 C 752.351 436.913, 756.689 435.754, 759.015 435.382 L 763.246 434.705 762.597 428.375 C 759.735 400.432, 736.447 379.063, 706.897 377.263 L 698.295 376.739 697.648 383.120 M 438.874 406.037 C 420.050 408.235, 399.891 417.386, 384.241 430.835 C 377.833 436.343, 366.740 450.039, 361.830 458.508 C 359.914 461.813, 356.823 468.338, 354.961 473.008 C 350.856 483.309, 350.382 484, 347.415 484 C 340.124 484, 323.023 493.692, 315.992 501.808 C 310.832 507.765, 304.315 520.799, 302.778 528.238 C 301.689 533.509, 301.759 534.201, 303.645 536.738 C 306.760 540.928, 311.935 541.054, 315.327 537.023 C 316.753 535.328, 318.198 532.267, 318.538 530.221 C 320.960 515.630, 328.699 506.333, 343.171 500.629 C 346.839 499.183, 351.339 497.984, 353.171 497.965 C 360.248 497.889, 363.950 493.664, 368.475 480.501 C 374.802 462.093, 386.292 446.562, 401.163 436.315 C 410.929 429.585, 417.121 426.560, 427.693 423.352 C 435.363 421.025, 438.307 420.671, 450.500 420.614 C 466.818 420.537, 472.446 421.796, 486.500 428.669 C 497.812 434.201, 506.549 441.258, 514.766 451.500 C 526.457 466.072, 524.251 464.612, 535.521 465.242 C 553.178 466.229, 563.981 472.146, 571.728 485.072 C 577.863 495.310, 582.157 497.364, 587.354 492.548 C 590.232 489.881, 590.759 486.126, 588.931 481.318 C 585.876 473.284, 572.208 460.274, 561.832 455.523 C 555.890 452.803, 543.873 450, 538.153 450 C 534.733 450, 533.701 449.208, 525.232 440.090 C 514.133 428.140, 505.493 421.461, 493.500 415.562 C 483.147 410.469, 473.103 407.524, 461.026 406.041 C 451.685 404.893, 448.667 404.893, 438.874 406.037 M 341.206 576.048 C 337.345 577.597, 336 582.693, 336 595.774 C 336 608.997, 335.926 609.184, 327.150 618.087 C 320.542 624.791, 318.565 629.243, 318.530 637.500 C 318.487 647.452, 321.753 652.805, 332.438 660.297 C 334.756 661.922, 335 662.735, 335 668.824 C 335 676.415, 336.292 679.050, 340.960 680.984 C 343.411 681.998, 344.598 681.995, 347.084 680.965 C 351.019 679.335, 352 676.642, 352 667.466 L 352 660.063 357.446 656.040 C 363.438 651.614, 368.027 645.598, 369.978 639.612 C 372.765 631.066, 368.418 618.479, 359.408 609 L 354.180 603.500 353.840 591.661 C 353.508 580.114, 353.431 579.763, 350.694 577.411 C 347.759 574.889, 345.060 574.501, 341.206 576.048 M 408.924 578.578 C 406.586 581.066, 406.488 581.760, 406.163 598.255 C 405.746 619.412, 406.268 623.474, 409.694 625.719 C 413.727 628.362, 418.827 627.903, 421.630 624.644 C 423.948 621.949, 424 621.462, 424 602.395 C 424 578.138, 423.238 576, 414.593 576 C 412.400 576, 410.563 576.835, 408.924 578.578 M 641.788 580.485 C 639.381 582.892, 639.286 583.518, 638.735 600.568 L 638.166 618.168 631.565 625.006 C 627.934 628.766, 624.237 633.566, 623.350 635.672 C 621.129 640.944, 621.288 648.622, 623.731 654.033 C 631.373 670.957, 652.989 674.183, 666.201 660.370 C 671.029 655.322, 673 650.388, 673 643.348 C 673 636.121, 670.610 631.057, 663.370 622.943 C 660.342 619.549, 657.444 615.669, 656.932 614.321 C 656.419 612.973, 656 605.414, 656 597.524 L 656 583.178 652.923 580.589 C 649.015 577.300, 645.010 577.263, 641.788 580.485 M 340.250 625.941 C 331.521 635.197, 330.890 638.090, 336.400 643.600 C 340.465 647.665, 344.382 648.041, 348.615 644.773 C 352.604 641.695, 353.797 640.052, 354.987 636 C 355.900 632.890, 355.617 631.692, 352.452 625.250 C 350.493 621.263, 348.578 618.057, 348.195 618.127 C 347.813 618.196, 344.238 621.713, 340.250 625.941 M 718.061 625.750 C 714.950 628.270, 714.051 633.625, 714.024 649.782 C 713.992 669.106, 715.723 673, 724.345 673 C 727 673, 728.434 672.273, 730.411 669.923 C 732.952 666.903, 732.999 666.567, 732.956 651.673 C 732.904 633.571, 732.072 628.330, 728.854 625.855 C 725.853 623.547, 720.841 623.498, 718.061 625.750 M 471.792 630.949 C 469.402 632.829, 469.291 633.450, 468.642 648.699 C 468.041 662.810, 467.697 665.059, 465.424 669.724 C 462.692 675.331, 457.609 680.254, 449.315 685.328 C 443.794 688.706, 442.405 691.305, 443.950 695.370 C 447.096 703.642, 458.554 700.403, 471.326 687.630 C 481.366 677.590, 484.376 669.783, 485.549 650.737 C 486.378 637.274, 485.355 632.752, 480.966 630.483 C 477.123 628.495, 474.759 628.615, 471.792 630.949 M 642.584 635.170 C 637.155 641.170, 636.587 642.310, 636.937 646.500 C 637.158 649.140, 643.418 655, 646.017 655 C 653.898 655, 661.063 645.767, 657.869 639.729 C 656.197 636.571, 649.914 629, 648.963 629 C 648.526 629, 645.655 631.777, 642.584 635.170 M 572.229 631.669 C 570.621 632.316, 568 637.317, 568 639.739 C 568 640.749, 565.968 643.275, 563.485 645.350 C 556.779 650.956, 554.128 657.037, 552.577 670.370 C 551.861 676.529, 550.540 682.988, 549.643 684.724 C 548.745 686.460, 545.687 689.819, 542.847 692.190 C 531.703 701.490, 531.311 702.429, 535.152 710.601 C 538.607 717.950, 545.643 724.475, 551.673 725.922 C 561.905 728.376, 575.138 723.631, 584.921 713.999 C 591.560 707.462, 594.909 701.982, 597.988 692.619 C 599.938 686.687, 600.178 684.340, 599.726 675.619 C 599.120 663.902, 596.716 655.982, 591.123 647.277 C 589.082 644.100, 586.809 640.022, 586.071 638.216 C 583.708 632.433, 577.560 629.525, 572.229 631.669 M 573.039 657.750 C 569.536 661.978, 569.536 661.980, 568.006 674.998 C 566.298 689.528, 562.342 696.936, 552.976 703.141 L 550.500 704.781 552.599 707.641 C 556.821 713.393, 566.676 711.265, 575.008 702.800 C 585.465 692.176, 586.917 676.868, 579.281 657.750 C 578.457 655.688, 577.414 654, 576.964 654 C 576.514 654, 574.748 655.688, 573.039 657.750 M 380.308 684.034 C 376.188 685.648, 375.220 688.766, 374.791 701.807 L 374.387 714.113 369.614 718.753 C 362.658 725.514, 360.698 729.911, 361.190 737.647 C 361.664 745.084, 364.972 750.628, 371.799 755.426 C 377.595 759.500, 386.504 760.183, 393.143 757.063 C 401.750 753.017, 407.014 745.009, 406.978 736.015 C 406.949 728.822, 404.481 723.569, 398.248 717.433 L 393.232 712.495 392.859 700.764 C 392.511 689.808, 392.322 688.874, 389.993 686.636 C 387.067 683.823, 383.378 682.832, 380.308 684.034 M 704.110 707.396 C 699.706 709.836, 699.073 712.465, 699.035 728.473 L 699 743.447 693.082 749.078 C 685.685 756.117, 683.324 762.428, 685.025 770.619 C 686.281 776.669, 691.297 783.091, 697.068 786.034 C 702.064 788.583, 711.043 788.618, 716.565 786.110 C 734.432 777.995, 737.270 757.721, 722.452 744.062 L 718 739.959 718 727.947 C 718 714.898, 716.874 710.426, 712.883 707.631 C 710.095 705.678, 707.342 705.604, 704.110 707.396 M 379.919 730.081 C 376.320 733.680, 375.872 734.610, 376.420 737.351 C 377.177 741.137, 379.548 743.642, 383.225 744.539 C 385.421 745.075, 386.536 744.618, 388.975 742.179 C 392.565 738.589, 392.867 735.026, 389.930 730.902 C 386.142 725.581, 384.549 725.451, 379.919 730.081 M 617.357 737.992 C 612.478 739.960, 612 742.119, 612 762.167 C 612 780.474, 612.053 780.950, 614.394 783.672 C 616.307 785.896, 617.633 786.455, 621 786.455 C 624.367 786.455, 625.693 785.896, 627.606 783.672 C 629.939 780.959, 630 780.434, 630 762.895 C 630 748.801, 629.673 744.268, 628.490 741.980 C 626.112 737.383, 622.273 736.008, 617.357 737.992 M 704.042 758.458 C 698.663 763.938, 698.153 768.014, 702.389 771.658 C 706.067 774.822, 709.243 774.604, 713.465 770.896 C 718.075 766.849, 718.212 762.926, 713.927 757.728 C 712.237 755.678, 710.306 754, 709.635 754 C 708.965 754, 706.448 756.006, 704.042 758.458" stroke="none" fill="black" fill-rule="evenodd"/>
</svg>